<svg xmlns="http://www.w3.org/2000/svg" viewBox="0 0 368.5 368.5">
  <defs>
    <style>.cls-1{fill:#fdd8ee;}.cls-2{fill:#fff;}</style>
  </defs>
  <title>Asset 5</title>
  <g>
    <g id="BGI" data-name="BGI">
      <path class="cls-1" d="M254.8,319.38l25.52,29.92s25-31.33,88.18-36V55.2c-63.19-4.66-88.18-36-88.18-36L254.8,49.13V0H113.71S87.41,56.44,13.93,55.78Q6.67,55.71,0,55.2V313.3c4.45-.33,9.09-.53,13.93-.57,73.48-.67,99.78,55.77,99.78,55.77H254.8ZM70.54,184.25s26.3-56.44,99.79-55.77S272.43,165,272.43,165L298,135.12v98.26l-25.53-29.93S243.81,239.36,170.33,240,70.54,184.25,70.54,184.25Z"/>
      <path class="cls-2" d="M113.71,0H0V55.2q6.68.49,13.93.58C87.41,56.44,113.71,0,113.71,0Z"/><path class="cls-2" d="M280.32,19.2s25,31.34,88.18,36V0H254.8V49.13Z"/>
      <path class="cls-2" d="M13.93,312.73c-4.84,0-9.48.24-13.93.57v55.2H113.71S87.41,312.06,13.93,312.73Z"/>
      <path class="cls-2" d="M280.32,349.3,254.8,319.38V368.5H368.5V313.3C305.31,318,280.32,349.3,280.32,349.3Z"/>
      <path class="cls-2" d="M272.43,203.45,298,233.38V135.12L272.43,165s-28.62-35.9-102.1-36.56-99.79,55.77-99.79,55.77,26.3,56.44,99.79,55.78S272.43,203.45,272.43,203.45Z"/>
    </g>
  </g>
</svg>
