<svg xmlns="http://www.w3.org/2000/svg" viewBox="0 0 252.82 217.37">
  <defs>
    <style>.cls-1{fill:#fff;}.cls-2{fill:#c2bab2;}.cls-3{fill:#e580a9;}.cls-4{fill:#f8a16c;}.cls-5{fill:#231f20;}</style>
  </defs>
  <title>Cat3</title>
  <g id="Cat">
    <g>
      <path class="cls-1" d="M57.37,102.77c1.31-.61-1.48,0-1.85.12a27.6,27.6,0,0,0-5.15,2.22l18.36,7.47.11.32A12.63,12.63,0,0,0,50,102.11C42.82,106.21,40.18,114,35,120A95.8,95.8,0,0,0,20,143C13.88,156.2,8.69,170.61,8.39,185.38c-.26,12.38,4.93,31.26,21.61,25.91,8-2.57,10.75-10.45,12.24-17.92,1.26-6.3,3.16-12.19,4.91-18.38,1.32-4.68,2.16-7.66,4.36-11.46a18.91,18.91,0,0,1,5.6-6.76c1.54-1.32-1.34.88.34-.24.83-.55,1.67-1.08,2.55-1.56q.8-.43,1.62-.81c1.08-.5-1.06.19,1-.31,1.65-.41,3.25-.92,4.93-1.22-1.82.32.34,0,.63-.06,1.39-.09,2.78-.15,4.17-.17,16.08-.21,16.12-25.21,0-25-13.22.17-26.36,4.32-35.54,14.24-9.67,10.43-14.06,25-17.4,38.56-.53,2.15-.84,4.36-1.27,6.53s-1.59,4.52-1.67,6.53c.31-7.47,11.94-6.61,15.46-3.16,2,2,2.13,2.06,1.36,1.05.27.37.49,2.24.62,1.26,0-.33-.71-3.24-.36-1.27.3,1.75-.11-1.86-.13-2.53-.07-1.9,0-3.81.08-5.71a6.85,6.85,0,0,0,.16-2c0-.08-.49,2.92-.29,2.17s.25-1.7.39-2.52a100.53,100.53,0,0,1,6.31-21.33,84.22,84.22,0,0,1,10.4-19c2.68-3.5,5.85-6.6,8.41-10.23,1.12-1.59,2.07-3.27,3.06-4.94.34-.58.73-1.16,1-1.75.74-1.42,0,.25-.33.43L43.84,112.9a38.44,38.44,0,0,0,.78,6.32c1.61,8.3,11.74,11,18.36,7.47,1.56-.82,4.93-1.36,7-2.33,6.12-2.86,7.67-11.66,4.49-17.1-3.67-6.27-11-7.36-17.1-4.49Z"/><path class="cls-1" d="M169.84,108.74c5.42,4.33,7.56,9.46,10,15.63,3.11,8,9.22,14,14.49,20.27A44.36,44.36,0,0,0,213.64,158c2.12.74,4.33,1.1,6.5,1.7,1.2.34,3.19,1.88,1.28.33,1.21.74,1.1.64-.31-.3a8.36,8.36,0,0,1-2.27-4.5l9.18-12c1.7-.39-.12-.28-.37-.41-6-3-13.54-1.61-17.1,4.49-3.24,5.53-1.58,14.07,4.48,17.1,6.34,3.16,12.63,4.55,19.64,2.93,5.39-1.25,9.08-6.73,9.17-12.06.18-9.88-6.79-16.28-15.57-19.2-2.37-.79-4.93-1-7.27-1.85a19.86,19.86,0,0,1-6.09-4c-2.73-2.64-4.66-5.52-7.33-8.48-2.45-2.71-3.49-3.9-4.73-6.88-3.7-9-7.56-17.51-15.34-23.72-5.26-4.21-12.53-5.15-17.67,0-4.37,4.36-5.31,13.44,0,17.68Z"/><path class="cls-1" d="M63.22,17.09c-2.91,1.39-8.34,3.17-10.4,0-5.27-8-18.26-.53-13,7.57,7.19,11,20.19,10.48,30.92,5.36,3.66-1.74,4.62-7,2.7-10.26-2.19-3.74-6.6-4.44-10.27-2.69Z"/><path class="cls-1" d="M64.34,26.07c-8.34-.4-15.86,3-24,4-9.18,1.08-18.43-.34-27.66.93-8.47,1.16-6.28,14.84,2,14.73s18.72-2.58,26.76.72c3.48,1.43,4.81,4.46,5.65,7.94,2.45,10.11.46,20.9,2,31.17.61,4,5.66,6.24,9.23,5.24,4.28-1.2,5.85-5.19,5.23-9.23-1.75-11.61,1.25-25.13-4-36.85-8-17.85-28.95-14.2-44.89-14l2,14.73c8.35-1.14,16.85.42,25.22-.57,7.54-.89,14.8-4.19,22.45-3.82,9.65.45,9.63-14.55,0-15Z"/><path class="cls-1" d="M53.85,89c-20.31,8-31.52,26-39,45.63-3.54,9.3-6.2,18.9-8.92,28.45C3.41,172,.3,180.91,0,190.24c-.34,11,4.76,19.27,14.74,23.95,10.59,5,21.76,4.95,28.06-6.13,5.11-9,6.76-19.95,9.67-29.73,2.42-8.1,7-25.74,18-24.91,5.12.4,5.61,2.54,6.47,7.07,1.08,5.74,1.8,11.44,4,16.91,2.48,6.24,6.38,11.47,12.6,14.36,6.7,3.11,14.13,3.05,21.33,4v-15c-6.62.87-13.26-.63-19.91-.18-7.12.49-14.2,1.38-21.34,1.68l2,14.73a80.57,80.57,0,0,1,19.25-.73l-5.3-12.8c-2,2.45-7.07,2-10,2.68A18.85,18.85,0,0,0,67.37,194l12.95,7.57c1.5-3.37,10.66-4.46,13.77-4.79l-7.23-5.5q1.2-3.67-.6-1.39c-.58.52-1.16,1-1.72,1.59a34.69,34.69,0,0,0-3.14,3.16,25.89,25.89,0,0,0-5,9.65l14.73,2c-.23-4.16,8.2-7.19,11.5-8,3.58-.9,5.77,1.14,8.92,2.76a82.31,82.31,0,0,0,14.27,5.45,56.44,56.44,0,0,0,14.47,2.45c5.07.13,9.35-1.4,14.19-2.38,5.35-1.08,12.87,1,15.93,5.78L180.63,202a80.38,80.38,0,0,1-9.34-4.87c-1.31-.78-2.63-1.56-3.91-2.38-.66-.44-1.32-.88-2-1.33-.64-.62-.56-.35.27.8l-.76,5.78c-1.82,4.2-2.95,1.07-1,1.47a23.09,23.09,0,0,0,2.88,0,25.69,25.69,0,0,1,6.07,1.19c3.27,1,7.27,2.67,9.23,5.62l8.47-11c-4.91-1-9.43-3.21-14.25-4.54-5.55-1.54-11-3.13-16.5-5l-2,14.73a114,114,0,0,1,16.53-.1c4.56.25,9.86-.24,14.23,1.08l-1.79-13.7c-1.59.69-6.79.54-9.53.34-3.05-.21-7.12-.9-9.15-2.09l1.52,11.78c1.3-1.41,4.17-1.34,6-1.76a23.2,23.2,0,0,0,7.71-3c5.25-3.41,8.52-9.63,10.69-15.32,2.42-6.37,2.22-13,2.09-19.7-.07-3.2.2-6.48-.09-9.66a15.75,15.75,0,0,0-1.5-5.8,28.57,28.57,0,0,1-1.47-2.86L183.6,149c5.51,1.67,9.49,6.94,14,10.28A97.39,97.39,0,0,0,216.31,170c9.53,4.15,23.08,8.45,31.29-.46a20,20,0,0,0,4.82-17.5c-1.24-6.11-5.51-10.15-10.2-13.85a68.72,68.72,0,0,0-17.63-10.59c-4.13-1.6-10.07-2-11.77-6.82-3.2-9-17.7-5.14-14.46,4,1.76,5,4.38,9,8.86,11.94,4,2.61,8.75,3.43,13.1,5.25,3.36,1.4,22.93,11.43,16.48,17.18-2,1.79-6.43,0-8.67-.67a66,66,0,0,1-13.62-6.25,76.48,76.48,0,0,1-12.74-8.93c-4.31-3.79-8.62-7.07-14.18-8.75-5-1.51-9.11,2.55-9.5,7.23-.25,3,.74,5.51,2.2,8.08,1.27,2.23.81,4,.8,6.67,0,5.93,1,12.28-1,18-1.47,4.1-3.36,8-7.77,9-4.94,1.15-9.62,1.82-13.27,5.74A7.6,7.6,0,0,0,160.56,201c9.25,5.41,24.1,6,33.82,1.75,6.25-2.75,3.83-12-1.79-13.71-5.25-1.59-11-1.17-16.39-1.51a122.31,122.31,0,0,0-18.36,0c-8.33.75-10.3,12-2,14.73,5.47,1.83,11,3.42,16.51,5,4.81,1.34,9.33,3.54,14.24,4.54,6,1.22,12.33-5.18,8.47-11-6.95-10.49-22.95-16.58-35.24-13.68-8.18,1.93-11.85,10.35-5.39,16.71,4.94,4.86,12.33,8.55,18.62,11.23s14.75-3.24,10.26-10.26c-5.48-8.56-15.57-13.18-25.57-13.46-5.5-.15-10.33,2.4-15.72,2.63-6.59.28-13.18-2-19.27-4.3-4.88-1.86-9.23-5.32-14.41-6.34-5.38-1-10.49.51-15.39,2.62-8.28,3.56-17.44,10.32-16.87,20.38.47,8.3,12.29,10.36,14.73,2,2.4-8.2,13.61-10.63,10.5-21-.86-2.89-3.95-5.85-7.23-5.51-8.91.93-22.58,2.9-26.72,12.22-3.91,8.78,7.3,15.54,12.95,7.57,1.16-1.64,7-1.54,8.84-1.87,4.12-.76,8.24-2.31,11-5.61,4.31-5.21,1.36-12.17-5.31-12.81-7.78-.75-15.54.13-23.24,1.27-8.38,1.24-6.37,15.09,2,14.73,7.14-.3,14.22-1.19,21.34-1.68,6.65-.45,13.29,1,19.91.18,9.61-1.25,9.65-13.76,0-15-4.89-.62-10.75-.29-15.25-2.63-4-2.09-5.31-7.17-6.29-11.27-2-8.33-1.69-17.86-8.88-23.77-8.2-6.75-21.83-6-29.85.53-8.53,7-13,19-16.08,29.23-2.64,8.56-4.05,18-7.82,26.11-1.2,2.59-1.58,4.08-4.38,3.55-3.6-.68-9.26-2.76-10.72-6.51-2.64-6.71,1.15-16.32,3.05-22.77,2.28-7.74,4.37-15.53,6.8-23.23,5.55-17.65,13.73-39.15,32.42-46.51,3.75-1.47,6.41-5,5.23-9.22-1-3.58-5.42-6.74-9.22-5.24Z"/><path class="cls-1" d="M153.09,80.2c1.51-11,2.78-20.7-.68-31.56-3.94-12.39-12-21.48-22.5-28.76-19-13.16-45.39-13.51-62.31,3.26C51,39.6,51.7,67.22,56.75,88.21c4,16.48,11.18,32,17.84,47.45l-3.53-8.36c5.35,12.85,8.37,26.85,15.77,38.79,8.69,14.06,21.21,26.78,38,30.24,11.21,2.32,22,1.93,32.6-2.54,11-4.65,18.74-13,23.35-23.89,4.29-10.16,4.6-20.7,2.34-31.44-1.24-5.88-3.26-11.52-4.19-17.49l1.26,9.3c-.84-6.79-.06-13.39,0-20.19.15-9.31-2.31-18-4.41-27-1.44-6.14-2.41-12.37-3.76-18.53A117.33,117.33,0,0,0,163,39.08a56.86,56.86,0,0,0-36.61-30.6,64.88,64.88,0,0,0-22-2.18c-4.78.44-9.76.85-14.38,2.32-8,2.54-12.87,6-19.36,11.2S60.34,36.55,60.34,44.57c0,8.58,3.82,18.83,10.25,24.74C77.26,75.44,86,80,95.34,79.57c9.83-.44,17.14-4.12,24.75-10.26l.83-.66-7.09,5.47a11.47,11.47,0,0,1,2-1.09l-8.36,3.53a26.41,26.41,0,0,1,4.87-1.34L103,76.47a40.12,40.12,0,0,1,10.5,0l-9.31-1.25a35.94,35.94,0,0,1,7.21,2L103,73.67A24.77,24.77,0,0,1,107,75.86l-7.09-5.47a23.13,23.13,0,0,1,3.85,3.81l-5.48-7.08a51.31,51.31,0,0,1,5.42,9.82l-3.53-8.36c2.83,7,4.43,14.22,5.84,21.59s3.62,14.72,5.09,22.13l-1.25-9.3c1.09,8.18-.66,16.36.07,24.57a129.39,129.39,0,0,0,2.92,19c.91,3.73,2.31,7.36,2.92,11.16l-1.25-9.31a25.56,25.56,0,0,1,.08,4.79l1.25-9.3a19.05,19.05,0,0,1-.76,3.24l3.53-8.37a14.54,14.54,0,0,1-1.52,2.76l5.47-7.09a9,9,0,0,1-1.47,1.49l7.08-5.48a9.08,9.08,0,0,1-1.85,1.15l8.36-3.53a16.29,16.29,0,0,1-3.55,1l9.3-1.25a30,30,0,0,1-5.61-.09l9.3,1.25a25,25,0,0,1-4.86-1.33l8.37,3.53a24.71,24.71,0,0,1-4.16-2.43l7.08,5.47a34,34,0,0,1-5.33-5.52l5.48,7.08a65.49,65.49,0,0,1-7.26-12.5l3.53,8.36c-2.39-5.83-4.2-11.87-6.35-17.8-3.11-8.59-7.13-16.84-10.72-25.24l3.53,8.36c-4.71-11.37-9-23.5-10.72-35.73l1.25,9.31a55.81,55.81,0,0,1-.16-11.7l-1.25,9.3a40,40,0,0,1,1.78-7.77l-3.53,8.36a16.35,16.35,0,0,1,1.8-3.15l-5.47,7.08a8.3,8.3,0,0,1,1.49-1.41l-7.09,5.47a7.5,7.5,0,0,1,1.69-.92l-8.36,3.52a7.93,7.93,0,0,1,1.86-.47l-9.31,1.25a15.44,15.44,0,0,1,3,0l-9.3-1.25a27,27,0,0,1,5.51,1.55l-8.36-3.52a35.36,35.36,0,0,1,6.84,3.84L88,75.23a25.87,25.87,0,0,1,3.44,3.26L86,71.41a20,20,0,0,1,2.25,3.7l-3.53-8.37A21.82,21.82,0,0,1,85.87,71l-1.25-9.3a35.06,35.06,0,0,1-.08,7.73l1.25-9.31-.2,1.47c-1.34,9.76-1.66,18.1,3.53,27,4.25,7.26,12.57,14.19,20.92,16.09,9,2,19,1.6,27-3.53,7.07-4.56,14.88-12.16,16.08-20.92Z"/><path class="cls-1" d="M61.79,93.42c-2.75-1.34-3.29-8.77-4-11.86-1.41-6.35-4.55-12.47-3.74-19.14.37-3.06,1.93-5.58,2.59-8.53a12.93,12.93,0,0,0-2.76-11.2C49.32,37.18,41.79,36.12,35,36.91c-4,.47-7.94,1.34-12,1.55a23.87,23.87,0,0,1-4.78-.07c-.29,0-2.44-.8-2.56-.72.11-.08,0,4.56.54,4.83a40.87,40.87,0,0,1,3.88-2.38,10.76,10.76,0,0,1,5.16-.69c8.54.35,25.63,2.65,25.91-10.31a13.15,13.15,0,0,0-2.51-7.6c-1.24-1.88-1.37-3.68-2.37-.23-1.06,3.67-1,1.79,1,2.45,3.47,1.16,7.45,1.74,11,2.62,4.11,1,8.23,1.66,12.44.93C84.27,25,96.3,16,110,15.07c12.63-.84,27.72,6.51,37.18,14.51a43.38,43.38,0,0,1,12.2,15.92c2.82,6.66,4.17,13.91,5.94,20.89,2.05,8.1,4.65,16.26,9.28,23.29,4.46,6.78,9,13.52,13.56,20.24a153.27,153.27,0,0,0,15.31,19.75c6.3,6.65,14,11.93,21.24,17.53,3.22,2.51,7.45,3.08,10.6,0,2.62-2.56,3.2-8.12,0-10.6-6.79-5.28-14.11-10.29-20.16-16.42a128.15,128.15,0,0,1-14.49-18.49c-4.38-6.51-8.78-13-13.11-19.58C183,75.19,181,67.23,179,59.27c-3.86-15.73-8.93-30.1-21.79-40.77C145.62,8.87,129.82,1.18,114.63.1,99.26-1,84.8,7.55,70.51,11.92,63,14.21,54.76,9.2,47.07,8.7c-7.28-.48-14.86,4.22-14.61,12.24.08,2.46,1.23,6.51,3.3,8.16.34.27.34.72.65.7,0,0,2-5.35,2.18-5.11,0,0-1.69.13-2.57.16-4.87.13-9.78-.83-14.62-.33A26.13,26.13,0,0,0,5,32.71C.2,38.17,1,46,7.19,50c8.58,5.55,18.81,2.93,28.19,1.86,1.76-.2,3.52,0,5.27-.17a5.54,5.54,0,0,1,1.49.38c-.34-.09.37-1.95-.46-.53C39.48,55.31,38.9,60.72,39,65c.11,8.07,3.28,15.63,5,23.42,1.47,6.65,3.59,14.72,10.26,18,8.64,4.23,16.25-8.7,7.57-13Z"/><path class="cls-1" d="M73.09,123.73c-5.68,0-11.29.42-16.51,2.84-2.91,1.36-.38,5.67,2.52,4.32,4.36-2,9.28-2.14,14-2.16,3.22,0,3.23-5,0-5Z"/><path class="cls-1" d="M174.18,121c5.94,10.45,4.23,23,4.16,34.49,0,3.22,5,3.22,5,0,.08-12.51,1.6-25.68-4.84-37-1.59-2.8-5.91-.28-4.32,2.52Z"/><path class="cls-1" d="M177.09,170a35.31,35.31,0,0,1-1.51,7.11,18.32,18.32,0,0,1-1.59,4c-.52.89-1,1.47-1.4,1.43-3.2-.28-3.18,4.72,0,5,7.1.62,9.06-12.59,9.5-17.5.29-3.2-4.71-3.18-5,0Z"/><path class="cls-2" d="M12.09,47.23c6,.08,11.92.73,17.9.75,4.33,0,9.35-.45,13.33,1.57,5.72,2.91,10.79-5.72,5-8.64C43.47,38.43,38.13,38,32.72,38c-6.89,0-13.74-.66-20.63-.75-6.43-.08-6.44,9.92,0,10Z"/><path class="cls-2" d="M187.27,142.51c2.46,4.62,6.15,7.14,10.89,9.11,5.23,2.19,9.08,6.27,14.16,8.68,5.78,2.74,10.86-5.88,5.05-8.64-4.26-2-7.5-5.52-11.68-7.65-3.86-2-7.6-2.45-9.78-6.55-3-5.69-11.66-.64-8.64,5Z"/><path class="cls-2" d="M85.63,145.45c-14-11.1-35.36-4.15-43.14,11.41-4.19,8.39-5.61,18.73-7.78,27.79-1.13,4.74-2,10.64-5.73,14.08-3,2.72-7,3.18-10.89,3.25-6.43.11-6.45,10.11,0,10,7.2-.12,14.35-1.89,19.24-7.53,6-6.93,6.81-17.15,9.1-25.7,2.19-8.14,2.94-17.09,9.55-23,6-5.35,15.62-8.75,22.58-3.22,5,4,12.11-3.07,7.07-7.07Z"/><path class="cls-2" d="M37.43,20.82c-.81,2.49,1,4.94,2.68,6.55s3.84,3.19,6.07,3.52a2.57,2.57,0,0,0,3.07-1.74,2.52,2.52,0,0,0-1.74-3.08,7.2,7.2,0,0,1-3.37-1.8,9.93,9.93,0,0,1-1.52-1.53,6,6,0,0,1-.35-.55s-.18-.53-.07-.22c0,.14-.09.62,0,.18,1-3.07-3.82-4.38-4.82-1.33Z"/><path class="cls-2" d="M107.58,194.39c9.18,4.12,16.88,15,27.77,8.75,2.8-1.6.28-5.92-2.52-4.32-8.09,4.63-15.83-5.65-22.73-8.75-2.91-1.3-5.45,3-2.52,4.32Z"/><path class="cls-2" d="M135.93,201c7,9,21.89,3.42,28.68-3.24,2.3-2.26-1.24-5.79-3.54-3.54-4,3.93-16.23,10.2-20.82,4.26-1.94-2.51-6.28,0-4.32,2.52Z"/><path class="cls-3" d="M132.08,193c1.3.92,3.57,2.21,3.51,4l3.93-.53c-.28-1.4,1-1.3,2.07-1.22,2.57.19,2.56-3.81,0-4-4-.28-6.75,2.24-5.93,6.28.47,2.28,3.87,1.66,3.93-.53.11-3.49-2.94-5.66-5.49-7.47-2.1-1.5-4.1,2-2,3.45Z"/><path class="cls-4" d="M135.53,135.44c-5.84,3.69-12.33,5.8-17.76,10.21-6.67,5.42-10.88,13.91-8.83,22.6,3,12.75,15.86,18.25,27.57,20.42,13.57,2.51,29.35-.26,30.84-16.85,1.39-15.43-11.08-28.76-26-30.09l12.06,9.18c.54,3.39.22,1,.09-.83-.08-1.05.58-1.6-.09-.5-.13.22-1.49,3.3-.59,2.06l-4.48,4.48-2.06.86h-6.64q-2.88-1.59-.85-.2c5.44,4,14,.9,17.11-4.49,3.71-6.36,1-13.08-4.49-17.1-7.05-5.21-16.65-2.54-20.77,4.89-2.95,5.31-2.27,11.74-1.34,17.48s7,8.72,12.05,9.17a2.33,2.33,0,0,1-1.76-.53c1.22.78,1.39.8.53.07a16.52,16.52,0,0,1,1.78,1.77c-.67-.85-.59-.65.24.59,1,1.85.39-.39.51,1.71-.15-1.3-.21-1.2-.16.3a5.49,5.49,0,0,1,2.05-4.42,6,6,0,0,1,2.73-1.58c-1.34.31-1.15.34.58.07-1,.07-2.06,0-3.09,0-1.46-.14-1.44-.1.05.1-.73-.11-1.46-.24-2.19-.38-1.23-.25-2.46-.54-3.67-.86a41.75,41.75,0,0,1-6-1.92c.48.21-.45-1.18-.26-.3.06.24.69,3.26.65,3.22a2.19,2.19,0,0,0-.1.63q1.69-1.65.9-.78c1.29-.59,2.5-1.48,3.77-2.13,3.44-1.77,7-3.22,10.27-5.29a12.76,12.76,0,0,0,4.49-17.11c-3.33-5.69-11.37-8.1-17.11-4.48Z"/><path class="cls-4" d="M102.59,16c-6.42-.1-12.37,2.05-16.36,7.21a23,23,0,0,0-4.31,15.66,22.35,22.35,0,0,0,23.26,20.09c13.6-.52,23-14.72,19-27.62-2.11-6.75-7.28-11.46-13.72-14S97.3,16.05,91.28,18.94,83.35,30.69,86.8,36c3.91,6.07,10.78,7.52,17.1,4.49-1.62.61-1.79.71-.51.29s1.1-.25-.85.11c1.39,0,1.08,0-1-.23a9.43,9.43,0,0,1,1.49.43q-2.68-1.2-.94-.24c-1.5-1.24-1.77-1.42-.81-.52-1.13-1.61-1.35-1.86-.63-.76q-1-2.84-.42-.93c-.18-2.09-.23-2.44-.17-1,.37-2,.39-2.27.08-.88l.61-1.3c-.75,1.27-.57,1.17.54-.28-.92.91-.56.67,1.08-.7-1.13.63-.7.47,1.29-.46q-1.92.5,1.47-.07a9.26,9.26,0,0,1-1.29,0c4.76.62.79-.2.12-.2,1.94.88,2.34,1,1.18.42s-.77-.43.93.81a7.6,7.6,0,0,1-.71-.68q-1-1.07,1,1.26-.95-1.69.41,1.24c-.33-1.29-.31-.83.07,1.36a11.76,11.76,0,0,1,0-1.57c.13-1.43.07-1.1-.17,1a12.65,12.65,0,0,1,.33-1.35c-.94,2-1.11,2.41-.53,1.31a7.6,7.6,0,0,1-3,2.85q1.62-.93-1.37.51c1.25-.3.84-.27-1.25.09a15.32,15.32,0,0,1,1.66,0c6.54.11,12.8-5.82,12.5-12.5A12.74,12.74,0,0,0,102.59,16Z"/><path class="cls-4" d="M167.15,71.94c-12.5-6.16-33.42.78-33.57,16.78-.09,9.74,7.88,16,16.87,16.87,7.88.81,14.53-3,19.19-9,1.83-2.38,2-6.89,1.26-9.63a12.74,12.74,0,0,0-5.75-7.47c-6.63-3.51-12.82-1.07-17.1,4.48a5.53,5.53,0,0,1,2.1-2.36c1-.73,1.13-.84.35-.35-1.38.88,1.12-.61,1.38-.56a8.75,8.75,0,0,1-.88.23q-1.49.33,1.83-.21a7.51,7.51,0,0,0-1.5,0c-1.48.1,3.23.68,1.35.1,2,1,2.62,1.21,1.76.72-.53-.32-.32-.14.65.53,3.21,2.73,4.65,7.24,2.35,11.11-.26.44-2.24,2.46-.77,1.09,1-.91-2.67,1.57-.88.73.47-.22,2.24-1,.21-.21s-.16.11.34,0a14.59,14.59,0,0,0,1.9-.44c-.6.29-3.23.15-1.16.24,1.2,0,2,.44-1.36-.33,1.18.27,2.3,1-1.19-.66,5.86,2.88,13.8,1.77,17.11-4.49,3-5.64,1.77-14-4.49-17.1Z"/><path class="cls-4" d="M30.92,154.93c-3.19-.44-4.57-.82-7.72-.05a12.52,12.52,0,0,0-3.89,1.57,14.12,14.12,0,0,0-6.59,10.28c-.73,5.4,1.31,10.42,4.84,14.45a15.56,15.56,0,0,0,6,4,16.32,16.32,0,0,0,10.89.81,14.43,14.43,0,0,0,10-17.79,15.91,15.91,0,0,0-2.06-4.56c-2-2.71-4.15-4.83-7.47-5.74a12.77,12.77,0,0,0-9.64,1.26,12.57,12.57,0,0,0-5.74,7.47c-.71,3.1-.67,6.94,1.26,9.63a7.45,7.45,0,0,1,.6,1l-1.26-3a4.45,4.45,0,0,1,.26.88L20,171.84a1.88,1.88,0,0,1,0,.53l.45-3.32a1.89,1.89,0,0,1-.11.47l1.26-3a2.32,2.32,0,0,1-.22.41l1.95-2.53a2.05,2.05,0,0,1-.32.34l2.53-2a3.14,3.14,0,0,1-.64.37l3-1.26a2.47,2.47,0,0,1-.52.13l3.32-.44a4.53,4.53,0,0,1-1.22,0l3.33.45a8.54,8.54,0,0,1-1-.29l3,1.26a6.34,6.34,0,0,1-1.34-.76l2.53,2a5.51,5.51,0,0,1-.67-.7L37.19,166a8.28,8.28,0,0,1-1-1.73l1.26,3a6.72,6.72,0,0,1-.4-1.46l.45,3.32a3.86,3.86,0,0,1,0-.76l-.45,3.32a4.05,4.05,0,0,1,.12-.5l-1.26,3a2,2,0,0,1,.26-.42l-2,2.53a1.37,1.37,0,0,1,.25-.23l-2.53,2a1.17,1.17,0,0,1,.31-.17l-3,1.26a4,4,0,0,1,.6-.15l-3.32.45a5,5,0,0,1,.77,0L24,179l.3,0a9.48,9.48,0,0,0,5,.22,9.35,9.35,0,0,0,4.65-1.48,12.5,12.5,0,0,0,4.49-17.11c-1.63-2.53-4.35-5.31-7.47-5.74Z"/><path class="cls-2" d="M61.32,83.41c-.81.47-2.77,1.44-3,1.71.72-.77,1.63,1.88.52-1.2-1.6-4.46-3.09-9.17-3.23-13.94-.18-6.42-10.18-6.45-10,0a46.91,46.91,0,0,0,2.29,12.58c1,3.09,1.75,6.61,3.76,9.21,4,5.25,9.92,3.08,14.73.28,5.55-3.24.53-11.88-5.05-8.64Z"/><path class="cls-3" d="M92.38,144.65c.49-2.3,2-3.88,2.33-6.39.47-3.44-.14-5.38-1.33-8.57L91,132.86c3.18-.21,7,1.23,10,2.28,3.27,1.16,6.73,1.89,8.88,4.85l.9-3.42c-2.81,1.62-6.3,1.29-9.41,1.81a78.26,78.26,0,0,0-12,3.44l3.08,3.08c.42-1.61,1.92-2.84,2.62-4.33.81-1.71,1-3.55,2-5.2l-4.57-.6a24.93,24.93,0,0,1-.21,5.59c-.18,2.45,3.56,3.43,4.66,1.26.92-1.82,1.29-3.84,2.25-5.63H94.81a37.39,37.39,0,0,1,1.37,4.28,2.52,2.52,0,0,0,4.18,1.1,8,8,0,0,0,2.27-4.47L98.45,138c2.23,2.29,4.76,2.19,7.77,2.23,3.22.05,3.22-4.95,0-5-1.28,0-3.24.26-4.23-.77-1.24-1.27-3.82-.76-4.18,1.11a3.8,3.8,0,0,1-1,2.27l4.18,1.1a45.79,45.79,0,0,0-1.87-5.47c-.79-1.71-3.49-1.55-4.32,0-1,1.81-1.33,3.8-2.25,5.63l4.66,1.26a29.67,29.67,0,0,0,0-6.92c-.34-2.22-3.56-2.29-4.57-.59s-1.39,3.84-2.31,5.71-2.3,3-2.81,5a2.52,2.52,0,0,0,3.07,3.07c4.46-1.5,8.9-3.09,13.6-3.62,3.13-.36,6.21-.51,9-2.13a2.53,2.53,0,0,0,.9-3.42c-2.52-3.47-5.49-4.93-9.46-6.3-4.23-1.45-9.15-3.61-13.7-3.31-1.48.1-3,1.54-2.41,3.16,1,2.58,1.91,5,1,7.77-.52,1.64-1.69,2.81-2,4.53-.67,3.14,4.14,4.48,4.82,1.33Z"/><path class="cls-3" d="M180.5,143c.3-1.26,3.29-2.6,4.31-3.21a9.48,9.48,0,0,1,2.72-1.15,8.56,8.56,0,0,1,2-.29l.74,0c.87.28.82.12-.17-.48l-.25-1.92c.09-.72-.11-.18-.85.21-.41.21-.83.41-1.25.59a19.76,19.76,0,0,1-2.79.91c-2.29.59-5.13,1.2-6.29,3.52a2.54,2.54,0,0,0,2.16,3.76c.93.06,1.82,0,2.75,0,3.21-.1,3.23-5.1,0-5-.93,0-1.82.06-2.75,0l2.16,3.76c.45-.9,2.91-1.11,3.84-1.36a24,24,0,0,0,4-1.52c2.35-1.11,6-4.17,2.61-6.57-2.86-2-7.77-.66-10.54.84-2.53,1.38-6.48,3.53-7.21,6.56s4.07,4.47,4.82,1.33Z"/><path class="cls-3" d="M192.76,136.81a3.21,3.21,0,0,0,1.74,0,2.2,2.2,0,0,1,1.13-.14v-2.41a4.62,4.62,0,0,1-2.58.12l.75,1.84.06-.14c-.21.19-.25.24-.11.16a1.51,1.51,0,0,0,.35-.2c1.37-.84.11-3-1.26-2.16a2.57,2.57,0,0,0-1.2,1.08,1.26,1.26,0,0,0,.74,1.83,7.15,7.15,0,0,0,3.92-.12,1.26,1.26,0,0,0,0-2.41,3.66,3.66,0,0,0-1.83,0,2,2,0,0,1-1.05.14c-1.54-.47-2.2,1.94-.66,2.41Z"/><path class="cls-3" d="M89.72,128.28l-1.12-.75a1.25,1.25,0,1,0-1.26,2.16l1.12.75a1.25,1.25,0,0,0,1.26-2.16Z"/><path class="cls-4" d="M110.26,127.07a22.86,22.86,0,0,1-3.38-1.25c-1.2-.38-2.52-.48-3.75-.75-2.53-.54-5.07-.83-7.62-1.25-3.15-.52-4.5,4.3-1.33,4.82,2.55.42,5.09.71,7.62,1.25a29.64,29.64,0,0,1,4,.85,15.83,15.83,0,0,0,3.15,1.15c3.15.5,4.5-4.31,1.33-4.82Z"/><path class="cls-4" d="M174,135.86a25.86,25.86,0,0,0,6.79-1.17,39,39,0,0,1,8.21-1c3.21-.06,3.22-5.06,0-5a54.18,54.18,0,0,0-7.63.76c-2.47.4-4.85,1.45-7.37,1.37-3.22-.1-3.22,4.9,0,5Z"/><path class="cls-4" d="M94,124.73c-2.45-.32-5.39-.25-7.39,1.37a1.26,1.26,0,0,0,.55,2.09c1.79.28,3.67-.48,5.38.12,1.52.54,2.17-1.87.66-2.41-1.82-.64-3.54.16-5.37-.12l.55,2.09c1.37-1.12,4-.85,5.62-.64s1.57-2.29,0-2.5Z"/><path class="cls-4" d="M188,132.19c1.19.3,2.48-.13,3.59.34,1.47.63,2.71,1.78,4.11,2.53l1-2.28a29.67,29.67,0,0,0-6.33-1.17c-1.61-.05-1.61,2.45,0,2.5a27.43,27.43,0,0,1,5.67,1.08,1.26,1.26,0,0,0,1-2.29c-1.51-.81-2.83-2-4.4-2.69-1.34-.6-2.56-.09-3.9-.43a1.25,1.25,0,0,0-.66,2.41Z"/><path class="cls-4" d="M217.82,159.45l.06.05-2-2.53c.72,1,1.47,2,2.27,3V142.33l-.21.19,2.53-2a2.6,2.6,0,0,1-.36.21l3-1.26a1.14,1.14,0,0,1-.25.06l3.32-.44a.69.69,0,0,1-.25,0l3.32.45-.13,0,3,1.26a1.19,1.19,0,0,1-.25-.13l2.53,2-.11-.1a9.49,9.49,0,0,0-4-2.59,11.37,11.37,0,0,0-9.63,0,9.4,9.4,0,0,0-4,2.59l-2,2.53a12.37,12.37,0,0,0-1.7,6.31l.44,3.32a12.55,12.55,0,0,0,3.22,5.52A11.57,11.57,0,0,0,221,163a5.72,5.72,0,0,0,1.62.67l3.33.44a11.77,11.77,0,0,0,1.91-.22,10.35,10.35,0,0,0,5-1.6,16.18,16.18,0,0,0,3-2.29,9.29,9.29,0,0,0,2.58-4,9.41,9.41,0,0,0,1.08-4.82l-.45-3.32a12.44,12.44,0,0,0-3.21-5.52l-.06-.08,1.95,2.53a11.41,11.41,0,0,0-2.27-3,13.8,13.8,0,0,0-8.84-3.66,13.81,13.81,0,0,0-8.83,3.66l-2,2.53a12.48,12.48,0,0,0-1.71,6.31l.45,3.32a12.55,12.55,0,0,0,3.22,5.52Z"/><path class="cls-5" d="M25.23,211.9a13.27,13.27,0,0,1-2.74-.3A14.38,14.38,0,0,1,12.84,205c-4-6.48-4.17-16.95-.48-31.12,6.32-24.28,21.89-52.71,22-53,6.17-14.36,19.74-24.17,30-29.87a111.83,111.83,0,0,1,21-9l.27,1c-.39.11-38.79,11.26-50.43,38.34-.18.33-15.69,28.65-22,52.81-3.62,13.9-3.5,24.11.36,30.34a13.4,13.4,0,0,0,9,6.17A9.81,9.81,0,0,0,30.88,209c6.51-4.71,11-18.73,13.72-42.86v-.12l.07-.1c.51-.78,12.73-19.08,22.45-20.72s16.88,4.85,17.18,5.13l-.68.73c-.07-.07-7.07-6.43-16.33-4.87-8.95,1.51-20.73,18.71-21.72,20.18-2.76,24.36-7.37,38.56-14.11,43.44A10.39,10.39,0,0,1,25.23,211.9Z"/><path class="cls-5" d="M187.22,128.73a.5.5,0,0,1-.49-.39c-.08-.38-8.12-38.45-18.25-78.11-10-39.29-50-41.73-50.41-41.75S80.78,4,58.23,31.05s-1.72,65-1.51,65.34a.5.5,0,1,1-.87.49c-.22-.39-21.35-38.9,1.61-66.47s60.32-23,60.7-22.92S159.23,10,169.45,50c10.14,39.68,18.18,77.77,18.26,78.15a.51.51,0,0,1-.39.59Z"/><path class="cls-5" d="M198.43,135.15a.53.53,0,0,1-.45-.27c-.24-.44-6.11-10.88-24.1-2.61a.49.49,0,0,1-.66-.25.51.51,0,0,1,.25-.66c9.81-4.51,16.18-3.47,19.79-1.8a12.51,12.51,0,0,1,5.61,4.85.51.51,0,0,1-.21.68A.46.46,0,0,1,198.43,135.15Z"/><path class="cls-5" d="M114.18,138.73a.51.51,0,0,1-.47-.31c-3.67-9.26-28.14-10.51-28.39-10.52a.49.49,0,0,1-.46-.37.48.48,0,0,1,.22-.55c13.46-8.42,26.26.42,26.38.51a.5.5,0,0,1-.57.82c-.12-.09-11.52-7.93-23.88-1.3,5.72.45,24.26,2.54,27.63,11a.5.5,0,0,1-.28.65A.57.57,0,0,1,114.18,138.73Z"/><path class="cls-5" d="M88.78,144.29a.44.44,0,0,1-.22,0,.49.49,0,0,1-.23-.66,18.72,18.72,0,0,0,1.56-6.09c.31-4.35-1.31-7.6-4.8-9.66a.5.5,0,0,1-.18-.68.51.51,0,0,1,.69-.18c9.16,5.4,3.69,16.93,3.63,17A.5.5,0,0,1,88.78,144.29Z"/><path class="cls-5" d="M144.88,205.3a8.76,8.76,0,0,1-2.07-.23,8.62,8.62,0,0,1-5.57-4.35,5.89,5.89,0,0,1-3.75,3.51c-8,2.46-23.54-10.28-25-11.54-1.63-.37-18.33-4.55-24.57-19.26-3.41-8.06-1.72-18.32.29-25.52a84,84,0,0,1,5.23-13.78.5.5,0,0,1,.67-.22.5.5,0,0,1,.22.67c-.12.24-11.82,23.52-5.49,38.46s23.8,18.67,24,18.7a.65.65,0,0,1,.22.11c.16.14,16.46,13.8,24.19,11.42a5.23,5.23,0,0,0,3.5-4,.5.5,0,0,1,.47-.36.52.52,0,0,1,.49.34,8,8,0,0,0,5.4,4.86c4.81,1.11,11.53-2.48,19.44-10.39a.54.54,0,0,1,.27-.14c.17,0,17.79-3.2,24.63-16.52,4.41-8.57,3.48-19.45-2.75-32.35-.22-.45-.72-1.49,12.76-9.59-16.23-5.18-20.9,6.54-21.09,7a.5.5,0,0,1-.65.29.51.51,0,0,1-.29-.64,14.79,14.79,0,0,1,4.9-6.08c3.26-2.37,9.11-4.52,18.49-1.22a.5.5,0,0,1,.33.42.49.49,0,0,1-.24.48c-6.09,3.63-12.59,7.91-13.24,9,6.32,13.14,7.21,24.28,2.67,33.12-6.72,13.06-23.38,16.65-25.19,17C155.9,201.69,149.79,205.3,144.88,205.3Z"/><path class="cls-5" d="M137.18,199.9h-.09a.5.5,0,0,1-.41-.4c-.78-4.09-6.25-8.32-6.31-8.36a.5.5,0,1,1,.61-.79c.22.16,4.92,3.8,6.37,7.84,1.18-1.75,3.92-5.28,7.23-5.94a.5.5,0,1,1,.19,1c-3.89.78-7.13,6.37-7.16,6.43A.52.52,0,0,1,137.18,199.9Z"/><path class="cls-5" d="M128,176a.49.49,0,0,1-.5-.49,7.1,7.1,0,0,0-.78-3.4c-.57-.62-6.55-1.49-11.76-1.92a.5.5,0,0,1,.08-1c3.45.29,11.58,1.09,12.49,2.33a8.22,8.22,0,0,1,1,4,.5.5,0,0,1-.5.5Z"/><path class="cls-5" d="M151.65,178.48l-.17,0a.49.49,0,0,1-.29-.64c.82-2.21,1.59-3.33,2.28-3.33l1,0c6.58-.33,9.43-.26,10.17.26a.5.5,0,0,1,.12.7.52.52,0,0,1-.7.12c-.36-.24-2.31-.45-9.54-.08l-1,0a10.51,10.51,0,0,0-1.35,2.68A.49.49,0,0,1,151.65,178.48Z"/><path class="cls-5" d="M48.43,49.48a.5.5,0,0,1-.5-.44c-.06-.5-1-1-1.77-1.47a5.43,5.43,0,0,1-2.23-1.79c-1.65-.86-20.18-1-31.58-.8a.46.46,0,0,1-.27-.07c-3.7-2.31-5.35-4.7-4.92-7.1.74-4.1,7.58-6.92,12-7.82,6.56-1.33,37.62-.7,38.94-.67a.49.49,0,0,1,.49.51.48.48,0,0,1-.51.49c-.32,0-32.27-.66-38.72.65-4,.81-10.57,3.43-11.22,7-.35,1.93,1.11,3.94,4.34,6,14.42-.19,31.65-.12,32.31,1.29a4.77,4.77,0,0,0,1.86,1.43c1.06.6,2.15,1.22,2.27,2.22a.5.5,0,0,1-.44.56Z"/><path class="cls-5" d="M46.18,29.73h-.1a9.58,9.58,0,0,1-5.7-3.66,7.93,7.93,0,0,1-.94-6.27,5.55,5.55,0,0,1,2.69-3.9c3.64-2,9.6.09,12.14,1,.34.13.62.22.8.28,1.85.56,14.45,1.88,14.57,1.9a.5.5,0,1,1-.1,1c-.52,0-12.82-1.34-14.76-1.93l-.85-.3C51.52,17,45.86,15,42.62,16.77A4.51,4.51,0,0,0,40.41,20a7,7,0,0,0,.8,5.51,8.71,8.71,0,0,0,5.06,3.23.5.5,0,0,1-.09,1Z"/><path class="cls-5" d="M232,166.38a12.65,12.65,0,0,1-7.95-3.29.49.49,0,0,1,0-.7.5.5,0,0,1,.71,0s3.94,3.67,8.61,2.9c3.42-.57,6.44-3.31,9-8.15a8.62,8.62,0,0,0,.4-7.54c-4.43-11-28.62-19.17-28.86-19.25a.57.57,0,0,1-.21-.13c-.67-.74-16.48-18.07-19.24-27.07-2.66-8.74-16.92-19-17.06-19.12a.5.5,0,0,1,.58-.81c.6.43,14.67,10.58,17.44,19.64,2.58,8.45,17.64,25.17,18.93,26.58,2.11.72,24.87,8.66,29.35,19.78a9.63,9.63,0,0,1-.44,8.39c-2.69,5.13-6,8-9.7,8.66A8.8,8.8,0,0,1,232,166.38Z"/><path class="cls-5" d="M222.08,163.46c-1.91,0-4.1-.9-6.54-2.7-9-6.68-25.59-19.5-25.75-19.63a.5.5,0,0,1,.61-.79c.16.13,16.72,12.95,25.74,19.62,3,2.17,5.44,2.94,7.41,2.27,2.46-.84,3.3-3.73,3.31-3.76a.5.5,0,0,1,.62-.34.49.49,0,0,1,.34.61c0,.14-1,3.42-3.94,4.43A5.39,5.39,0,0,1,222.08,163.46Z"/><path class="cls-5" d="M79.84,210.07a.54.54,0,0,1-.21,0,.49.49,0,0,1-.24-.66c10.87-23.76,38.61-18,38.89-18a.5.5,0,0,1,.38.6.5.5,0,0,1-.59.38c-.27-.06-27.24-5.63-37.77,17.38A.51.51,0,0,1,79.84,210.07Z"/><path class="cls-5" d="M75.84,201.07a.52.52,0,0,1-.39-.19.49.49,0,0,1,.08-.7c15.13-12.14,36.76-12,37-12a.5.5,0,0,1,0,1h-.11c-1.65,0-21.94.25-36.24,11.73A.56.56,0,0,1,75.84,201.07Z"/><path class="cls-5" d="M73,191.9a.5.5,0,0,1,0-1c.07,0,7.29-.37,20.91-3.32,13.79-3,22.36-1.08,22.72-1a.5.5,0,1,1-.22,1c-.09,0-8.74-1.93-22.28,1-13.72,3-21,3.35-21.09,3.35Z"/><path class="cls-5" d="M192.55,196.74c-.78,0-7.05-.11-19-3.36-12.21-3.34-19.45.26-19.52.3a.5.5,0,1,1-.46-.89c.3-.16,7.63-3.82,20.24-.38,12.34,3.37,18.71,3.33,18.77,3.33h0a.5.5,0,1,1,0,1Z"/><path class="cls-5" d="M179,209.4a.49.49,0,0,1-.39-.19c-8.11-10.37-26.79-11.63-27-11.65a.49.49,0,0,1-.46-.53.48.48,0,0,1,.53-.46c.78,0,19.32,1.3,27.69,12a.5.5,0,0,1-.08.7A.51.51,0,0,1,179,209.4Z"/><path class="cls-5" d="M192.55,205.44a.52.52,0,0,1-.29-.09c-14.43-10.33-35.46-9.51-35.67-9.5a.48.48,0,0,1-.52-.48.49.49,0,0,1,.47-.52c.21,0,21.59-.85,36.3,9.69a.49.49,0,0,1,.12.69A.49.49,0,0,1,192.55,205.44Z"/>
    </g>
  </g>
</svg>
