<svg xmlns="http://www.w3.org/2000/svg" viewBox="0 0 245.62 264.6">
  <defs>
    <style>.cls-1{fill:#fff;}.cls-2{fill:#f8a16c;}.cls-3{fill:#8aa1c5;}.cls-4{fill:#bbc6dc;}.cls-5{fill:#53618a;}.cls-6{fill:#e580a9;}.cls-7{fill:#a5ada5;}.cls-8{fill:#c2bab2;}.cls-9{fill:#231f20;}</style>
  </defs>
    <title>Cat2</title>
    <g id="Cat">
      <g>
        <path class="cls-1" d="M187.3,5.73c-11.3.92-22.55,0-33.85-.44-9.62-.4-22-2.33-29.91,4.33a17,17,0,0,0-6.13,10.94l-.26,2q-.53,3.92.86-2.4a24.63,24.63,0,0,0-1.63,2.44,36.35,36.35,0,0,0-6,17.9,47.91,47.91,0,0,0,0,6.11c.06,1.32.16,2.65.21,4,0,.41.05,3.81.17,2,.12-1.67-.31,1-.38,1.4l-.2.62q1.05-2.47-.14-.25c0-.35,2.3-2.37.13-.17-.72.72-1.41,1.46-2.15,2.17-6.59,6.31-14.22,12-19.71,19.28A242.84,242.84,0,0,0,72.51,98.74a125.67,125.67,0,0,0-12.06,27.41,80.91,80.91,0,0,0-2.71,14.58c-.17,1.66-.3,3.32-.48,5-.31,2.88,0,.45,0-.11-.29,2.21-.62,4.43-.87,6.65-1.28,11.23.59,23.08,9.28,31.1,4.79,4.42,10.14,6.16,16.35,7.21l.67.1q2.48.73.35-.3l1.34.74a6.85,6.85,0,0,1-3.11-3.43l-.35-.74q-.37-3.18-.38-.56l.17-1.62c-.16.78-.35,1.56-.56,2.34L98.62,176.6l1.68.55,5.38,5.38-.76-1-9,22c2.82-1-.76-.18-1.7-.29a7.18,7.18,0,0,1-4.06-1.88c.71.58,1.4,2-.16-.53.4.64.78,1.33,1.2,2,1.42,2.14,0,.23-.13-.44a14.19,14.19,0,0,0,.73,2.61c.86,1.56,0-3.88-.17-.37,0,1-.29,3.22.1,4.06-1-2.26,9-7.17,4.47-6.53a10.36,10.36,0,0,0-2.4,1.16,21.68,21.68,0,0,0-8,8.57,72.87,72.87,0,0,1-4.54,7.47c-5.31,7.71-10.64,17.27-8.46,27,2.47,11,13.38,16.87,24,13.68,14-4.21,26.06-20.08,32.14-32.52,2.13-4.37,4.07-8.89,6.94-12.85-1.23,1.69.63-.74,1-1.11.82-.92,1.69-1.8,2.59-2.65,2-1.84,4.1-3.43,5.89-5.44s3.44-4.51,5.26-6.68c-1.41,1.69.85-.72,1.1-1.13,1.21-2-2.84,1.31-.08,0,.64-.31,1.4-.72,2-1.08-2.34,1.44-1.27.41-.28.19.13,0,4-.91,1.5-.5-2.07.33,2.68,1,.53,0-3.59-1.66-4.42-2.18-6.16-6.17,1.06,2.43-.44,1.32.05-.68-.75,3,.89,9.27,1.33,12.17,1.36,8.92,5.95,17.61,15.22,20.31,13.1,3.81,23.25-6.19,24.09-18.72a71.44,71.44,0,0,0-.42-9.25c0-.63-.54-3.59-.08-3.9l-.35,2.36c.31-1.12.21-.94-.31.53-1.16,2.34-2.35,4-5.45,4.27-.73.07-4.53-.3-1.5.07-.55-.07-2.7-1.59-.2-.09,1.46.87,2.88,1.74,4.27,2.74-2.78-2,1.6,1.44,2.17,1.94a37.44,37.44,0,0,0,6.7,5.15,16.44,16.44,0,0,0,22-5.67c2.74-4.45,2.92-9.26,4.08-14.17.12-.51,1.33-3.47.48-1.68a30.84,30.84,0,0,1,1.63-2.85c.58-.92,1.2-1.8,1.81-2.7,2.9-4.25-.76.88,1.08-1.45,3.61-4.57,7.55-9,10.63-13.94,6.39-10.29,7.31-23.11,5.73-34.87-.91-6.8-4.38-11.35-9.83-15.29a17.25,17.25,0,0,0-1.51-1c-1.36-1-1.22-.83.44.54,1.48,1.63,1.75,1.6.79-.07-1.39-3.7-4.71-6.64-7.92-8.78-.6-.39-2.51-2.31-2-1.1l.92.68c.5,1.14.58,1.22.26.23.1-2.65-2.58-7.89-3.6-10-.36-.73-3.11-6.43-3.69-6.43.79,0,.51,6.32.93,1.94a20.21,20.21,0,0,0-.82-6.82c-1.2-4.24-3.76-6.66-6.17-10.19,2.08,3-.77-1.76-.13-.41-.05-.1-.93-2.77-1.29-3.71A53.19,53.19,0,0,0,206.3,64c-.29-.58-2-4-1.58-3,.71,1.83-.68-2.74-.6-2.43-.14-.54-.88-4.7-.49-1.94-1.76-12.44-1.12-24.23-7-35.76-3.7-7.21-13.8-9.31-20.52-5.38C168.74,19.73,167,28.74,170.68,36q1.2,2.41.29.49c.33.93.61,1.88.85,2.85s.45,1.94.62,2.93c-.15-1.49-.13-1.32.07.53.4,4.09.54,8.21,1,12.3a73.49,73.49,0,0,0,2.09,12.87c1.22,4.2,3.87,8.74,4.88,11.49,1.95,5.33,3.83,9.61,7.42,14,1.1,1.29,1.15,1.32.15.11-.83-3.84-1.21-4.46-1.14-1.84-.7,3.14,1.32,7.61,2.6,10.37a32,32,0,0,0,2.87,5.15c1.86,2.58,0-1.2,1,2,1.7,5.4,3.15,10.36,6.89,14.79,1.64,1.94,3.74,4.58,6.22,5.35q3.16,2.07-1-1.79c.41.82.8,1.66,1.16,2.51,2.28,4.15,5.86,7.06,9.78,9.58,1.36.93,1,.61-1.2-1a10.73,10.73,0,0,1-2.5-4.14q-.36-3.48-.12-.44c.05,1.16.09,2.32.12,3.49,0,1.69,0,3.38-.07,5.08-.16,1.89-.18,2.2-.05.91a29.17,29.17,0,0,1-.8,3.19c.6-1,.44-.58-.48,1.09-.55.93-1.13,1.85-1.74,2.75s-1.23,1.76-1.88,2.62c.7-.92.48-.67-.64.76-2.86,3.47-5.71,7-8.31,10.65a44.41,44.41,0,0,0-6.76,13.6c-.59,2.15-.75,4.37-1.19,6.54-.18.86-.38,1.72-.61,2.58q-1.35,4.15,2.51-4l6.62-3.85-.48.09h8c.85.19,5.3,3.58,2.39.93-.77-.7-1.57-1.38-2.37-2a80.56,80.56,0,0,0-8-6c-6.5-4.16-14.51-6.45-22.16-4.5a23.78,23.78,0,0,0-16.46,15.67c-1.45,5-.76,10-.46,15,0,.86.08,1.72.12,2.57.06,1.63-.88,3.5.24-.47,2.7-9.56,15-10.46,19.86-3.35-1.43-2.1.47,3.38.32.63a14.89,14.89,0,0,0-.58-2.63c-.88-3.19.21,3.56,0,.22-.06-1.24-.22-2.49-.33-3.73-.43-4.79-.71-9.59-3.05-13.9-4-7.38-12-11.4-20.16-11.69a37,37,0,0,0-17.81,4.33,31.47,31.47,0,0,0-7.45,5.26,37.26,37.26,0,0,0-3,3.51l-3.29,4.26q1.14-1.5-.57.6c-4.54,4.71-9.24,8.69-13.2,14-4.24,5.7-6.69,12.27-10.08,18.45-.66,1.2-1.34,2.37-2.09,3.51-.59.91-2.9,3.73-.31.63-.82,1-1.64,1.94-2.5,2.89-1.26,1.38-2.55,2.73-3.9,4-.73.71-1.48,1.41-2.25,2.08-.51.45-1,.89-1.55,1.32,1.74-1.3,2-1.5.7-.57-.21.11-2.07,1.53-2.27,1.39s3.82-1.14,1.47-.64a11.65,11.65,0,0,1,12.76,5.58c.25.45,2.57,6.62,1.12,6.82-.31,0,2.07-4.75-.07-.39.52-1,1-2.08,1.61-3.1,1.27-2.24,2.71-4.39,4.19-6.5.94-1.36,2-2.68,2.85-4.13l.57-1.25q1.8-3.36-2.22.91c1.33.28,6.2-3.92,6.49-4.19,7-6.8,7.07-17.55,5.56-26.52-2.51-14.9-17-29.74-33-23.88-8.15,3-15.19,13.61-9,22a23.16,23.16,0,0,0,11.63,8.89c7.51,2.82,16.58-3.17,18.46-10.48,2.28-8.9,2.21-18.75-4.56-25.8a27.46,27.46,0,0,0-11.87-7.05,33.71,33.71,0,0,0-4.67-.88c-.67-.1-1.34-.19-2-.34-3.53-.75-.64,0,.91,1.15-2.05-1.58.31,1.2-.88-.93,1.89,3.38-.39-2.35,0-.37.27,1.53,0-2.32,0-3.22,0-1.8.24-3.59.43-5.37,0-.23.29-2.46.07-.66-.33,2.79.5-3.75.44-3.32.2-1.47.4-2.93.55-4.41.08-.74.57-4.87.09-1.87.27-1.67.62-3.32,1-5,3.23-13,9.85-24.17,18.46-36,2.12-2.92,3.83-6.34,6.2-9.06-1,1.2,2-1.61,2.48-2.07,1.59-1.4,3.26-2.72,4.8-4.18,4.65-4.42,9.64-8.65,13.54-13.77,6.27-8.23,6.5-17,6.22-26.89,0-.76,0-1.52,0-2.28,0-.56.51-3.6.06-1.34.34-1.74.33-1.31,1.53-3.08a33.6,33.6,0,0,0,3.49-6.18,20.09,20.09,0,0,0,1-2.95,31.74,31.74,0,0,0,.58-4.66c0-1.17.08-.89.13.82l-6.9,9q3-2.06-3.43.57,1.29-.09,2.58-.06c1.54,0,3.08.16,4.62.21,4.73.13,9.45.21,14.18.45,9.72.49,19.42,1,29.15.21,7.8-.63,15.38-6.44,15-15-.34-7.58-6.63-15.68-15-15Z"/><path class="cls-1" d="M58.66,166.76l6.76,1.69,1,3.79.08-.18c1.66-5.65-3.8-10.54-9.23-9.23-10.45,2.53-21.45,1.47-32,3.6-7,1.41-16.37,3.62-18.46,11.6-4.38,16.68,30.61,22.88,27.05,3l-5.23,9.23c.68-.27-1.13-.33.35-.06a22.17,22.17,0,0,0,2.94.09c2.27.13,4.53.34,6.79.48a115.63,115.63,0,0,0,15.68-.49c15-1.11,30-2.61,44.91-4.42,4-.49,7.5-3.1,7.5-7.5,0-3.68-3.45-8-7.5-7.5-15.42,1.87-31.14,3.61-46.64,4.53a121.38,121.38,0,0,1-15.61.27c-3.78-.27-8.75-1.3-12.41.13-4.05,1.59-6,4.87-5.24,9.23-1.42-7.89,4.26-5.77,3.47-6.4-.31-.25-.09.06-.93-.26.13,0-1.64-.58-1.43-.65s.47.63.45.66q1.41,3-.45,4.78-1,1,.45-.06a6.88,6.88,0,0,0,1.21-.5,36.72,36.72,0,0,1,5.77-1.48c11-2.26,22.39-1.21,33.35-3.85l-9.22-9.23c-3.37,11.46,9.36,16.53,17.2,9.3,7.11-6.56-3.52-17.15-10.61-10.61Z"/><path class="cls-1" d="M191.49,198.18c2,3.82,4.46,8.07,7.72,10.94a24.39,24.39,0,0,0,5.45,3.34,11,11,0,0,0,2.35,1.18,6.93,6.93,0,0,1,.75.43q1.52,1-.88-2.68c-.88.63-.41,4.75-.15,5.67a10.44,10.44,0,0,0,4.37,5.55,8,8,0,0,0,4,1.15c3.72,0,.2-.84-.1-.13a24.42,24.42,0,0,1,4.36,1.74c4.12,3.62,11,2.43,12.53-3.31,2.67-10.12-8.37-17.27-12.09-25.45-1.68-3.71-7-4.54-10.26-2.69-3.81,2.17-4.35,6.6-2.69,10.26,1.45,3.2,3.84,5.94,5.93,8.73,1.09,1.44,2.18,2.88,3.15,4.39a13,13,0,0,0,1.36,2.28c.56.55-.76,1.9.14-1.51l12.53-3.31c-4-3.55-11.31-7.25-16.85-5.74l5.77.76.42,0,2.2,5.31c-.07-1.33.56-4.92-.27-7.33-1-3-3.44-5.13-6.06-6.74-1.91-1.18-4.51-1.75-6.21-3.24-1.92-1.69-3.33-4.94-4.49-7.15-4.49-8.55-17.44-1-12.95,7.57Z"/>
        <path class="cls-1" d="M185.72,91.37c4.58-12.23,3.32-26.61,0-38.94-3.85-14.28-18.57-26.38-33.75-25.7s-30.12,10.32-33.75,25.7a68.65,68.65,0,0,1-2.85,9.18l3.53-8.36c-2.75,6.48-6.64,12.25-10.55,18.08-4.2,6.26-7.49,12.91-11.11,19.5a83.84,83.84,0,0,1-5.82,9.2,57.69,57.69,0,0,0-8.2,15.73A47.36,47.36,0,0,0,80,132.4c.07,8.84,3.62,15,7.11,22.66l-3.53-8.36a27.93,27.93,0,0,1,.64,3.52l-1.25-9.31a48.23,48.23,0,0,1,.26,10.26l1.25-9.3a12.56,12.56,0,0,1-.75,3l3.53-8.36-.29.5L92.41,130l-.35.37,7.09-5.47-.4.24,8.36-3.53-.45.08c-7.84,1.41-17.26,9.17-20.92,16.08a36.11,36.11,0,0,0-4.15,22.32c2.25,16.73,16.86,30.76,34.38,30.35a99.13,99.13,0,0,1,14.51.81l-9.3-1.25c11.91,1.62,23.67,4.15,35.67,5.21,6.88.6,14.47.6,21.15-1.14,8.85-2.3,15.11-6.42,22-12.13a54.35,54.35,0,0,0,19.57-38.69c.6-13.54-5.65-23.59-11.19-35.19l3.53,8.37-.54-1.3c-3.66-8.8-7.51-15.9-16.08-20.91-7.51-4.39-18.56-6.25-27-3.53s-16.64,8-20.92,16.08c-4.08,7.73-7,18.5-3.53,27,2.81,6.77,6.11,12.71,9.18,19.23l-3.53-8.36a24.55,24.55,0,0,1,1.2,3.76L149.48,139a18.94,18.94,0,0,1,.1,4.19l1.25-9.31a19.39,19.39,0,0,1-1,3.69l3.53-8.36a29.11,29.11,0,0,1-3.4,5.5l5.47-7.08a35,35,0,0,1-4.9,4.76l7.09-5.48a24.44,24.44,0,0,1-4.38,2.51l8.36-3.53a11.89,11.89,0,0,1-2.19.62l9.31-1.25c-5.68.64-11.51,0-17.14-.72l9.3,1.25c-14.9-2.11-29.77-5.76-44.89-5.41l9.3,68.75c5.92-1.07,12-5.36,16.29-9.32,4.57-4.18,8-10.72,9.77-16.63a55.88,55.88,0,0,0,2-16.09,105.67,105.67,0,0,0-1.81-16.38c-.9-5.32-3.82-9.87-6.08-14.64l3.53,8.36-.3-1.36L150,132.4l.1-1.1-1.25,9.3a52.6,52.6,0,0,1,1.9-6.23l-3.53,8.36c2.65-5.65,7-10.36,10.07-15.82,3.23-5.79,6-11.82,9.62-17.4,7.91-12.23,15.41-24,18.84-38.47h-67.5a63.48,63.48,0,0,1,1.48,7l-1.25-9.3a35,35,0,0,1-.08,8.49l1.25-9.3a31.4,31.4,0,0,1-1.4,4.86c-3,8.06-.67,19.81,3.52,27s12.58,14.19,20.92,16.09c9,2,19,1.59,27-3.53s12.73-12,16.09-20.92Z"/>
        <path class="cls-1" d="M147.63,2.4a140.83,140.83,0,0,1-16.54-1.27c-3.57-.46-7.38-1.38-11-1.06-8.1.71-10,8.2-7.22,14.75,1.23,2.84,3.27,5.69,2.76,8.93s-3,6.09-4.37,9c-1.6,3.49-2.75,7.5-2.27,11.39.07.59-.33,1.9.33,1.31-.33.3-2.12,0-2.55,0-2-.08-4.09-.35-6.14-.41-5.38-.18-6.23,6.61-2.52,9.31a23.69,23.69,0,0,0,4.7,2.34c1,.42,1.93,1,2.91,1.34l.9.48q2.14,1.83.81-2.63c-.18-.07-4.49,3.62-4.94,3.94-1.85,1.29-3.66,2.58-5.39,4C92,68.09,86.83,72.49,82.61,77.65c-4.09,5-7.19,10.79-10.83,16.13-7,10.19-14.41,20.64-16.94,33a90,90,0,0,0-1.71,20.12,36.11,36.11,0,0,0,1.35,9.87,12.62,12.62,0,0,0,1.39,3.32,6,6,0,0,1,.44,1q3.9-4.94.64-3.47c-4.5.17-9.29,1.61-13.86,2.06-3.55.35-7.11.65-10.65,1.1-8,1-16.55,2.23-23.79,6.11C2.66,170-1.55,176,.55,183c3,10.09,14.57,19.56,25.42,17.82,2.66-.43,4.84-1.6,7.24-2.68,3.46-1.55,6.89-.82,10.58-.76,8.13.12,16-2.61,24.21-2.68,1.58,0,3.16,0,4.73.07.55,0,4,.65,4.37.45-.61.35-2.2-2.7-.81-.23a23.87,23.87,0,0,0,3.38,4.19c4.72,5.1,9.88,6.78,16.3,8.74l-3.67-4.82c0-1.06-1,.05-1.91.75a14.3,14.3,0,0,0-2.72,2.72c-2.17,2.77-3.09,6.16-4.85,9.16-3.76,6.41-8.61,11.8-11.6,18.72-4.53,10.48-1.31,25.07,10.5,29.19,9.19,3.2,19.21-1.94,26.53-7.23,7.83-5.65,15.54-12.75,20.45-21.18,4.36-7.52,6.12-16.41,11.42-23.4,5-6.62,11.87-11.51,18.7-16.08l-7.34-3c.66,2.92-1.95,6.59-2.5,9.47a14.78,14.78,0,0,0,1.72,10.16c3.26,5.87,9.59,10.35,16,12,6.05,1.59,12.69.76,17.32-3.7a22.2,22.2,0,0,0,5.83-9.34c1.21-4.14.43-8.45,1.24-12.63l-8.36,2.2c9.36,8.11,17.46,17.52,28,24.27,4.62,3,10.47,6,16.14,4.86,6.71-1.37,10-8.23,9.39-14.64-1-9.73-8.67-16.89-12.93-25.2-2.26-4.42,3.7-9,6.12-12.41a94.61,94.61,0,0,0,8.7-15.29c4.48-9.71,7.93-20.47,7.42-31.3-.47-9.77-5.23-16-12.86-21.58-4.65-3.42-8.16-5.77-9.59-11.68-1.33-5.44-1.89-10.83-4.15-16a89.15,89.15,0,0,0-9.69-16.34,70.21,70.21,0,0,0-5-6.9c.72.77-.92-2.42-1.22-1,.08-.37,3-1.67,3.44-2,4-2.77,2.61-9.15-2.52-9.32-3-.1-2.06-13.74-1.44-16.08,2-7.75,5.83-16.65-.89-23.32-5.76-5.72-15.3-4-22.46-2.68a43.61,43.61,0,0,1-14.37.8c-5.09-.68-10.05-2-15.18-2.39-6.41-.51-6.38,9.49,0,10,10.18.81,19.15,3.8,29.46,1.79,4-.79,8.25-1.86,12.38-1.43,4.62.47,4.41,3.91,3.46,7.7-1.86,7.44-3.49,13.54-2.65,21.3.77,7,3.66,14,11.69,14.31l-2.53-9.32c-2.72,1.86-5.76,2.78-7.12,6.08-1.69,4.11.08,8.9,2.46,12.34,6,8.69,13,16.77,15.19,27.41,1.94,9.35,3.47,16.42,11.51,22.36,3,2.24,6.39,4.24,8.88,7.12,3.32,3.85,3.48,8.78,3.15,13.64-.74,11-5.46,21.55-11,30.88-4.57,7.75-14.47,15.41-11.23,25.35,2.71,8.32,11.17,14.43,12.89,23.19,1.18,6-2.45,5.33-6.44,3.42-11.8-5.66-20.21-16.6-29.92-25-2.6-2.25-7.59-1.76-8.35,2.21-1.09,5.65.41,12.06-3.68,16.71-2.82,3.22-7.12,2.73-10.75,1.16-4-1.72-9-5.53-8.15-10.35s3.4-8.29,2.22-13.52a5,5,0,0,0-7.35-3c-6.82,4.57-13.68,9.41-19.1,15.65-5.58,6.4-8.37,13.8-11.7,21.5C118.33,235,109.71,243.85,99.83,250c-3.83,2.39-9,5.4-13.77,4.45-6.33-1.28-8.11-9.53-6.24-14.79,2.82-7.94,9.19-13.66,12.8-21.09,1.7-3.5,2.51-5.72,5.74-7.92a8.61,8.61,0,0,0,3.94-7.6,5.12,5.12,0,0,0-3.67-4.83c-5.85-1.77-9.91-3.19-13.71-8.33-2.67-3.62-5-4.78-9.71-5.11a87.78,87.78,0,0,0-17.6.68c-3.5.47-7,1.4-10.45,1.8-3.9.44-7.84-.5-11.75-.12-5.16.5-9.5,5-14.76,3.4-3.91-1.23-10.52-6.39-10.66-11s9.46-6.39,13-7.2c7-1.62,14.16-2.12,21.31-2.88,6.27-.66,24.38-.46,21.67-11.13-.52-2.07-1.76-3.83-2.24-5.94a36.26,36.26,0,0,1-.55-9.13c.21-7.2.88-14.49,3.48-21.25,4.44-11.5,12.78-21.1,19.2-31.5,4.26-6.9,9.6-12.14,15.72-17.39,3.7-3.17,8-5.63,11.57-8.87s5.41-8,1.65-12c-3.19-3.4-8-3.91-11.62-6.55l-2.53,9.32c6.73.22,16.09,1.82,18.14-6.93.88-3.75-.25-7.18,1.38-10.88,1.41-3.2,3.61-6,4.71-9.33A17.18,17.18,0,0,0,125,17.67,37,37,0,0,0,123,13.08c-.43-.9-1.61-4.48-2.14-3.56s1.9.54,3,.66c2.08.22,4.15.56,6.23.83a143.65,143.65,0,0,0,17.45,1.39c6.44.07,6.44-9.93,0-10Z"/>
        <path class="cls-2" d="M176.92,14.39a40.64,40.64,0,0,0,4.65-.78c1.4-.42,2.79-.81,4.23-1.1,2.65-.53,9.12-1.84,9.21,2.1.07,3.21,5.07,3.22,5,0-.11-4.52-2.39-6.73-6.9-7.42a24.41,24.41,0,0,0-8.64.5c-3,.63-5.87,1.29-8.88,1.88s-1.82,5.45,1.33,4.82Z"/><path class="cls-2" d="M120.22,8.39c2.42.44,4.68,1.39,7.08,1.89a25.81,25.81,0,0,1,5.9,1.5c2.09,1,4.9,2.69,7.07.92,1.95-1.6,1-4.06-1-4.94a18,18,0,0,0-6.37-.9c-3.22-.08-3.22,4.92,0,5,.77,0,1.55.07,2.32.15a6.43,6.43,0,0,0,1.29.17c1.54-.16.84,1.48,0-1l.25-1.92c.77-1.19,1.46-.2.4-1.12a9.27,9.27,0,0,0-1.73-.85,15,15,0,0,0-3.07-1.18c-3.55-.85-7.2-1.9-10.78-2.55-3.15-.57-4.5,4.25-1.33,4.82Z"/><path class="cls-3" d="M165.71,34.91l-.1-.15-.19,1.51A16.3,16.3,0,0,1,167.76,35a1.26,1.26,0,0,0-1-2.29l-.67.15.63,2.33c2.09-.94,3.67-2.89,6.16-2,.58.21,1.3.56,1.39,1.27.13,1-.87,1.42-1.69,1.69a6.6,6.6,0,0,1-3.58.12,14.38,14.38,0,0,1-1.4-.47c-.55-.46-.65-.48-.29-.07A.43.43,0,0,0,168,36c.75.09,1.31-.56,1.9-.89a8.14,8.14,0,0,1,1.48-.52c.76-.27.8-.07.54,0a12.3,12.3,0,0,1-2.91.12l.88,2.14c.74-.72,2.19-.56,3.14-.81a1.25,1.25,0,0,0-.67-2.41c-1.54.41-3,.27-4.24,1.45a1.26,1.26,0,0,0,.89,2.13c1.75,0,4.52.33,5.36-1.69a2.49,2.49,0,0,0-2-3.52,6.87,6.87,0,0,0-3.36.69,13.57,13.57,0,0,1-1.5.82,15.53,15.53,0,0,0-1.57.31c-1.95.85-1.53,2.82,0,3.89,3.06,2.16,11.47,1.74,10.82-3.46-.28-2.21-2.19-3.36-4.23-3.69-3-.48-4.53,1.32-7.06,2.45a1.26,1.26,0,0,0,.63,2.33,7.4,7.4,0,0,0,1.33-.23l-1-2.29a14.9,14.9,0,0,0-2.85,1.67,1.26,1.26,0,0,0-.2,1.51l.1.16c.87,1.34,3,.09,2.16-1.27Z"/>
        <path class="cls-3" d="M163.06,36.62A15.25,15.25,0,0,0,171,38.48a1.25,1.25,0,0,0,0-2.5,12.72,12.72,0,0,1-6.69-1.51,1.25,1.25,0,0,0-1.26,2.15Z"/>
        <path class="cls-3" d="M133.82,28.67c-3.78,0-3.53,4.78-1.2,6.56,1.59,1.22,3.72,1.26,5.64,1.3,1.56,0,3.87-.15,4.52-1.88,1.07-2.86-3.09-4.77-5.17-5.42-1.3-.4-3-.76-4.21-.05a2.87,2.87,0,0,0-1.18,3.33c.91,3,5,2.18,7.35,2.22a1.26,1.26,0,0,0,1.25-1.25c-.17-2.39-3.7-2.76-5.56-2.68-1.61.06-1.62,2.56,0,2.5a7.78,7.78,0,0,1,1.67.12c.32.06.66.2,1,.23.58.05.46.51.41-.17l1.25-1.25c-1.35,0-3.15.46-4.43-.11-.36-.16-.8-.42-.42-.8s2.12.29,2.56.44a8.21,8.21,0,0,1,2,.91,2.94,2.94,0,0,1,.87.78c.36.31.29.47-.22.47a5.54,5.54,0,0,1-1.15.12,9.58,9.58,0,0,1-4.13-.47c-.51-.25-2.23-2.41-.83-2.4a1.25,1.25,0,0,0,0-2.5Z"/><path class="cls-4" d="M162.76,36.2c.94,1.4,3,1.85,4.58,2.2A11.61,11.61,0,0,0,175,38c1.46-.61.82-3-.67-2.41a9.23,9.23,0,0,1-6,.49c-.67-.14-3-.45-3.44-1.12-.89-1.34-3.06-.09-2.16,1.26Z"/>
        <path class="cls-4" d="M131,33.91c.7.68.93,1.39,1.81,2A8,8,0,0,0,135.92,37a9.25,9.25,0,0,0,6.51-1.22c1.31-.91.07-3.08-1.26-2.16a6.72,6.72,0,0,1-4.66,1,5,5,0,0,1-2.64-.94c-.45-.42-.66-1-1.1-1.44-1.15-1.13-2.92.64-1.77,1.77Z"/><path class="cls-5" d="M135.51,29.11c-.47,1.26-.69,3.87,1.14,4.11s2.38-2.71,1.73-4a1.25,1.25,0,1,0-2.16,1.26c-.16-.31-.09-.19-.05-.06-.09-.3,0-.11,0,0s0,.56,0,.28c0,.1,0,.2-.06.3,0,.26-.1.08,0,0l0,.07c-.08.13,0,.09.12-.09a.86.86,0,0,1,1.15-.16.64.64,0,0,1,.35.39c.14.05,0,.05,0-.09-.05.25,0,.06,0-.06s0-.22,0-.33,0-.34,0-.17,0-.12,0-.15a2.5,2.5,0,0,1,.05-.29c0-.14.07-.27.12-.41a1.25,1.25,0,0,0-.87-1.53,1.27,1.27,0,0,0-1.54.87Z"/>
        <path class="cls-5" d="M169.26,31.11c-.32,1-.4,2.63.53,3.38a1.27,1.27,0,0,0,2-.25,3.86,3.86,0,0,0,.42-3.21,1.29,1.29,0,0,0-1.54-.88,1.27,1.27,0,0,0-.87,1.54,1.45,1.45,0,0,1-.17,1.29l2-.26c-.16-.12.11.36,0,0s0,.19,0,0,0-.2,0-.3.06-.48,0-.23a3.63,3.63,0,0,1,.1-.45c.48-1.54-1.93-2.19-2.41-.66Z"/><path class="cls-5" d="M174.86,37.12c-3.15,1.74-7.48,1.46-10.66-.09-.44-.21-.82.44-.38.65,3.44,1.67,8,2,11.42.08.42-.23,0-.88-.38-.64Z"/>
        <path class="cls-5" d="M131.39,34.42c1.92,3.62,6.71,3.28,10.18,2.42.46-.11.26-.84-.2-.72-3.08.76-7.6,1.18-9.33-2.08-.23-.42-.87,0-.65.38Z"/><path class="cls-6" d="M144.17,42.5c2.51.38,3,2.11,4.22,4a1.9,1.9,0,0,0,3.24,0c.84-1.39,3.22-1.78,4.67-1.9,2.39-.2,2.41-3.95,0-3.75-2.93.25-6.29,1.07-7.91,3.76h3.24c-1.8-2.89-2.86-5.23-6.46-5.78-2.36-.35-3.38,3.26-1,3.62Z"/>
        <path class="cls-7" d="M148.36,52c0,.15,0,.12,0,.06s-.11.12,0,0a4.13,4.13,0,0,1-.58.33,1.26,1.26,0,0,0,.3,2.28c.78.13,1.55,0,2.33.11a1.26,1.26,0,0,0,1.25-1.25,1.27,1.27,0,0,0-1.25-1.25c-.54,0-1.16.06-1.66,0l.29,2.28a2.79,2.79,0,0,0,1.7-1.93,1.28,1.28,0,0,0-.87-1.54,1.27,1.27,0,0,0-1.54.88Z"/><path class="cls-6" d="M179.22,15.91a7.92,7.92,0,0,0,2.64,2.54,16.53,16.53,0,0,1,4.49,5.13c2.08,3.32,3.91,7,6.12,10.16a2.54,2.54,0,0,0,4.57-.59c1.76-5.52,3.94-11.82,3.81-17.68-.11-5.11-3.72-6.73-8.36-6.8-3.17-.05-10.61,1.25-10,5.65.26,2,2.18,3.44,3.39,4.93,2.08,2.56,2.83,5.67,4.92,8.17a2.53,2.53,0,0,0,3.93-.51c1.18-2.11,1.23-4.88,2.08-7.17.6-1.59,1.4-3.19,1-4.95-.95-3.81-5.29-2.84-8-1.8a2.54,2.54,0,0,0-1.83,2.41A6.88,6.88,0,0,0,190,19.75c2.13,2.42,5.66-1.13,3.53-3.54l-.59-.81-1.84,2.41c.56-.21,1.25-.09,1.76-.43,1.28-.12,1.28-.53,0-1.22a6.42,6.42,0,0,1-.61,1.54c-1.38,2.11-.72,4.72-1.82,6.69l3.93-.51c-1.14-1.36-1.39-3.18-2.24-4.69a24.41,24.41,0,0,0-2.68-3.48c-.7-.84-1.29-2.39-1.84-.82.43-1.24,5-1.55,6.24-1.16,2.31.74,2.17,1.88,1.92,4.21a31.73,31.73,0,0,1-.8,4.33c-.79,3.17-1.71,6.44-2.7,9.55l4.57-.6c-2.21-3.19-4-6.84-6.13-10.16a29.27,29.27,0,0,0-3.16-4.49c-1-1.08-3.29-2-4-3.18-1.58-2.81-5.9-.29-4.32,2.52Z"/><path class="cls-6" d="M131.28,11.3a35.33,35.33,0,0,1-4.8,3.91c-1.3.93-2.5,2.47-4,3L125.54,20c-.94-2.37-1.7-4.85-2.74-7.17-.22-.52-.79-2.34-1.23-2.6-.1-.59-.37-.52-.81.22-.79.34-1,.55-.49.61a7.27,7.27,0,0,0,1.29.44c1.61.64,3.27,1.19,4.87,1.86a9.91,9.91,0,0,0,1.51.78c.66-1,.71-1.31.14-1a5.22,5.22,0,0,1-.54.24c-.9.23-1.66,1.11-2.56,1.24l1.93.25c-.5-.28-.66-1-.87-1.56l-2.41,3.16,1.34.08c3.14.65,4.48-4.17,1.33-4.82a9.65,9.65,0,0,0-2.67-.26c-1.48.06-3,1.57-2.41,3.17.79,2.08,1.81,4.75,4.43,4.89,1.65.09,4-1.5,5.46-2.33,5.08-3,.13-7.35-3.36-8.69-2.77-1.07-8-4.21-10.5-1.33-1.52,1.73-.71,4.05.14,5.89,1.24,2.69,2.23,5.47,3.33,8.23.47,1.17,1.7,2.26,3.08,1.75,2.08-.78,3.42-2.16,5.16-3.48a52.2,52.2,0,0,0,5.86-4.75c2.26-2.29-1.28-5.83-3.54-3.53Z"/>
        <path class="cls-2" d="M158.2,24.91A24.68,24.68,0,0,0,154,16.32c-2.16-3.12-4.63-4.32-7.35-6.72l-3.31,12.53c2.75-.56,6.07.29,8.9.23l8.2-.16c3.57-.07,8.6-.93,11.62,1.34V10.59c-3.25,1.76-7.44,1.64-11,2.46a21.45,21.45,0,0,0-11.67,6.55c-6.31,7.25,4.25,17.9,10.6,10.6,2.25-2.58,5.53-2.82,8.76-3.35a33.54,33.54,0,0,0,10.89-3.31c5.42-2.93,4.24-9.77,0-12.95-5-3.72-12.1-3.53-18-3.42-3.41.07-6.83.2-10.24.21-4.11,0-7.94-.55-12,.29-5.4,1.1-7.39,8.91-3.3,12.53,3.05,2.71,6.8,4.36,7.73,8.69,2,9.44,16.49,5.44,14.47-4Z"/>
        <path class="cls-2" d="M167.63,191c-4.06-.62-7.95.31-10.24,4a11.59,11.59,0,0,0-1.58,6.56c.22,4.67,2.15,10,6.37,12.47,5.9,3.46,13.57,1.15,15.48-5.69,1.36-4.87-.28-10-3.39-13.75-2.51-3-8.05-2.79-10.61,0-3,3.23-2.67,7.36,0,10.6-.84-1.15-1-1.41-.64-.78.11.18.21.37.31.57-.85-.57-.53-1.74-.28-.53.06.22.12.44.16.67.14.77.1.45-.12-1a3.65,3.65,0,0,0,0,1c.08,1.22.51-2.13,0-.51l.53-1.29c1-1.13,1.2-1.44.7-.92a5.66,5.66,0,0,1,4.51-1.58c.79.13.89.14.31,0s-.51-.16.59.25c-1-.47,1.54,1.33.78.54,1.58,1.63.82,1,.35.24-.63-1,.45,1.68.23.5a10.94,10.94,0,0,0-.37-1.39c-.4-1.16,0,1.76.07.59.07-.81.35-2-.19.41.17-.77.67-1.08-.41.79-1.37,2.36-4,3.09-6.57,2.69,3.86.6,8.25-1,9.22-5.23.82-3.58-1.09-8.59-5.23-9.23Z"/><path class="cls-2" d="M102.13,138.4c-8.53.75-14.9,7.73-13.3,16.46A17.92,17.92,0,0,0,101.41,169c6.08,1.64,13.34,0,16-6.29a13.87,13.87,0,0,0,0-9.75,14.7,14.7,0,0,0-2.94-5.39,9.9,9.9,0,0,0-1.89-1.64,4.24,4.24,0,0,0-1.54-.82q-2-.9.39.33l1.93,3.31c0,.83,0,.74-.06-.28a13.19,13.19,0,0,0-.44-2.72c-2.22-9.39-16.68-5.42-14.46,4-.3-1.27.21,1.47.19,1.37a8.19,8.19,0,0,0,3.65,6.16c.37.27,3.19,1.48,3.23,1.66l-2.41-1.67c-.16-.45-.16-.42,0,.08a6.65,6.65,0,0,1,.23.76q.21.93,0-.36c-.36.46,2.63-4.48,3.34-3.11,0-.05-1.18,0-1.3,0,1.6.12-.2-.14-.55-.27.67.24-.25-.16-.42-.29.77.6-.5-.82-.21-.39a12,12,0,0,1-.71-1.78c.15,0-.61,1.55-.66,1.62.63-1,1.32-.27-.66-.09,4-.36,7.5-3.19,7.5-7.5,0-3.78-3.44-7.86-7.5-7.5Z"/><path class="cls-8" d="M118.56,145.65c-1.17,4.45.08,10.71-3.46,14s.1,10.11,4.86,8.35c6.69-2.46,12.9-2.14,19.85-1.08,5.13.77,10,1.35,13,6,2.8,4.36,8.89,2.35,9.32-2.53.25-2.85-.94-5.85.06-8.44s2.2-3.92,2.19-6.81c0-3.46-4.37-6.66-7.52-4.31-3.43,2.55-8.78,2.16-12.77,1.68-3.49-.42-10-1.36-12.14-4.64-3.55-5.33-12.22-.33-8.64,5,4,6,11.44,8.26,18.21,9.26,6.41.94,14.87,1.38,20.38-2.72l-7.52-4.32c0,2-2.24,4.24-2.57,6.42-.44,3,.58,5.85.32,8.83l9.32-2.52c-4.2-6.56-10.17-9.25-17.65-10.44-9.06-1.43-17.68-2.36-26.5.89l4.87,8.36c5.72-5.39,4.23-11.59,6-18.46,1.64-6.23-8-8.88-9.64-2.66Z"/><path class="cls-8" d="M113.55,179.31l.12-.5-2.28.3.08.13a1.26,1.26,0,0,0,2.28-.3c.59-1.75,1.2-3.54,1.67-5.33.53-2,.6-4,1-6l-2.09.55a5.74,5.74,0,0,0,5.26,1l-.66-2.41a4.84,4.84,0,0,0-2.85,2.15,23.62,23.62,0,0,0-2.94,4.05,1.25,1.25,0,0,0,2,1.51,5.35,5.35,0,0,0,1.4-1.71c.74-1.43-1.42-2.7-2.16-1.26a3,3,0,0,1-1,1.2l2,1.52c.57-1.23,2.91-4.74,4.3-5,1.57-.36.9-2.74-.66-2.41a3.17,3.17,0,0,1-2.83-.35c-.67-.52-1.89-.47-2.09.55-.4,2-.48,4-1,6-.47,1.78-1.08,3.6-1.67,5.34l2.29-.3-.09-.13a1.26,1.26,0,0,0-2.28.3l-.12.5a1.25,1.25,0,0,0,2.41.66Z"/><path class="cls-8" d="M155.3,174.23a4.28,4.28,0,0,0,.76,1.56,11.11,11.11,0,0,1,1.3,4.9,50.12,50.12,0,0,1-.06,7.75c-.13,1.61,2.34,1.58,2.5,0,.23-2.37,1-4.64,1.24-7s0-4.92,0-7.35a1.25,1.25,0,0,0-2.5,0,69.72,69.72,0,0,1,0,7.65c-.26,2.27-1,4.44-1.19,6.72h2.5a48.25,48.25,0,0,0,0-8.75,15.89,15.89,0,0,0-.75-3.33c-.3-.89-1.22-1.92-1.38-2.79-.29-1.58-2.7-.91-2.41.66Z"/>
        <path class="cls-8" d="M192.76,164.36c.1,6-5.51,10.16-7.49,15.5-1.13,3.06-2.39,9.74-1,12.77.61,1.35,1.84,1.73,3,2.51a20.92,20.92,0,0,1,7.7,9.2c2.05,5,5.75,7.62,10.05,10.68,2.63,1.86,5.13-2.47,2.53-4.32-2.06-1.46-4.47-2.81-6.07-4.8-1.84-2.28-2.28-5.32-4-7.68a38.15,38.15,0,0,0-4.46-5c-1.1-1-3.62-2.23-4-3.28-.57-1.69.19-5.93.66-7.58.62-2.22,2.11-4.18,3.36-6.07,2.48-3.73,4.8-7.35,4.73-12-.06-3.22-5.06-3.23-5,0Z"/><path class="cls-8" d="M192.63,166c0,4.43-1.39,7.84-2.94,11.85a18.52,18.52,0,0,0-1.49,8.8c.76,7.12,5.77,12.83,8.4,19.27,1.2,2.94,6,1.65,4.82-1.33-2.4-5.87-7.21-11.44-8.2-17.79-.64-4.15,1.49-7.69,2.95-11.41a25.11,25.11,0,0,0,1.46-9.39c0-3.22-5-3.22-5,0Z"/><path class="cls-8" d="M189.15,79.23c.63,3.67-.22,7.69-.42,11.38-.24,4.48-.79,8.79-1.32,13.24-1.06,9,2.24,17.74,1.62,26.63-.2,2.86-1.51,5.11-2.85,7.58-2.25,4.17-4.53,8.33-6.63,12.58A83.09,83.09,0,0,0,174,164c-1.31,4.48-1.67,9.19-2.62,13.75l12.53-3.31c-5.26-5.06-2-16.25-.29-22,2.94-10.19,2.7-21.23-4.45-29.61-6.19-7.25-15.91-9.57-22.28-16.59a53.69,53.69,0,0,1-8.39-11.35,23.27,23.27,0,0,0-4.17-6.12c-1.33-1.33-3.27-2.19-4.24-3.82l-4.48,11c2.76-.56,6.68,1.35,9.4,1.94a163.36,163.36,0,0,0,16.45,2.68c10.28,1.14,20.28-1,29.69-5.12L183.6,82.51c-8.12,6.08-17.78,11.91-28.22,12-8.13,0-10.61,13.48-2,14.73,13.36,2,35.17,9.61,42-7.23,2.46-6.09-5.85-11.89-11-8.47-6.63,4.38-12.74,10.58-21.22,9.47v15c4.64-.12,9.24-.73,13.89-.64,1,0,2.69,0,3.34.14-.19,0,1.41.32,1.47.31,1.23-.19,0,0,0,0s-.4-9.57.05-9.36c.12.06-1.36.11-.76.21-1.4-.24-3.4.36-4.78.65-7.73,1.62-6.51,12.23,0,14.46,2.22.77,1.92.65,2.45,2.51s1.08,7.05-.26,8.71c-2.57,3.17-3.05,7.49,0,10.61,2.6,2.66,8.06,3.14,10.6,0,5.4-6.67,5.84-14.74,4.19-23-1.44-7.17-6.36-11-13-13.32v14.46c.68-.13.66-.14-.07,0,.59-.06,1.19-.13,1.78-.22a26.56,26.56,0,0,0,3.83-.62,11.92,11.92,0,0,0,7.17-5c3.42-5.74-.24-12-6-14.11-7.61-2.77-16.13-1-24-.79-9.94.27-9.3,13.79,0,15,11.39,1.49,19.91-5.65,28.79-11.52L180.9,98c.71-1.76,0-.66-1.43-.49a36.1,36.1,0,0,1-8.5-.25c-4.58-.57-9-1.83-13.59-2.5l-2,14.73c13.11-.07,25.5-6.31,35.79-14,7.77-5.83,1.33-16.81-7.57-12.95s-18,3.79-27.41,2.23c-7.94-1.31-16.48-4.88-24.55-3.24-4.78,1-6.82,7.08-4.48,11,2.19,3.7,6.16,5.52,8.09,9.28a68.18,68.18,0,0,0,8.83,12.49,46.84,46.84,0,0,0,12,10.62c3.85,2.28,8.4,4,11.48,7.38,7.08,7.75-.41,19.36-1.11,28.09-.67,8.24.63,18.66,6.87,24.66,3.84,3.69,11.34,2.4,12.53-3.31,1-4.84,1.38-9.85,2.88-14.57a80.59,80.59,0,0,1,5.84-13c3.95-7.54,9.16-14.9,9.45-23.68.32-9.43-2.77-18.53-1.37-28,1.29-8.74,2.46-18.48,1-27.24-1.63-9.5-16.08-5.47-14.46,4Z"/><path class="cls-8" d="M185.67,186c5.82-2.81,8-10.18,9.92-15.81,2.15-6.27,5.36-12.68,7.54-19.81,2.69-8.8,4.79-17.89,4.87-27.14.08-9.63-2.75-18.5-5.14-27.71s-16.89-5.38-14.46,4c1.88,7.26,4.41,14.32,4.59,21.89.19,8-1.56,15.68-3.82,23.31-1.89,6.37-4.71,12.23-7,18.43-.78,2.11-1.4,4.29-2.23,6.39a18.88,18.88,0,0,1-1.06,2.39c-.83,1.48.23.62-.79,1.12-8.7,4.18-1.1,17.12,7.57,13Z"/><path class="cls-8" d="M167.65,161.74a28,28,0,0,0,1.72,14.57c1.6,4.39,2.13,9.06,3.78,13.42,1.43,3.78,5.06,6.38,9.23,5.23,3.63-1,6.67-5.41,5.23-9.22-1.3-3.44-1.71-7.08-2.78-10.58-.86-2.8-3.16-6.41-2.72-9.43.59-4-1-8.06-5.23-9.23-3.54-1-8.64,1.21-9.23,5.24Z"/><path class="cls-8" d="M157.63,91c11.19-.28,27.22.45,34.16-10.24,1.36-2.09-1.34-4.73-3.42-3.42a101.89,101.89,0,0,1-21.15,9.75c-3,1.06-1.72,5.89,1.33,4.82a107.78,107.78,0,0,0,22.34-10.25l-3.42-3.42C181.8,87,166.68,85.76,157.63,86c-3.21.08-3.22,5.08,0,5Z"/>
        <path class="cls-8" d="M192.8,78.64c6.62-2.13,9.49-10.34,10.08-16.66l-4.66,1.26c3,6.8,2.11,16.52-.75,23.23-1.24,2.93,3.06,5.48,4.32,2.52,3.65-8.56,4.61-19.62.75-28.27-1.12-2.5-4.45-.91-4.66,1.26-.36,3.89-2.25,10.5-6.41,11.84-3.05,1-1.75,5.81,1.33,4.82Z"/><path class="cls-8" d="M205.46,125.9c0,2.28,1,5.71-.32,7.74-1.77,2.7,2.54,5.19,4.32,2.52,1.38-2.08,2.39-4.36,3.66-6.5,1.65-2.77-2.67-5.29-4.31-2.52-1.28,2.14-2.29,4.42-3.67,6.5l4.32,2.52c2-3,1-6.91,1-10.26s-5-3.22-5,0Z"/>
        <path class="cls-8" d="M199.63,79.61c.07,8.36,1,16.66,1,25,0,8.15.31,16.11,3,23.89,1,3,5.86,1.73,4.82-1.33-2.72-8-2.77-16-2.79-24.36,0-7.76-.93-15.46-1-23.22,0-3.22-5-3.23-5,0Z"/><path class="cls-8" d="M205.76,120.9c0,4.72,4.09,8.07,8.7,6.27a15.85,15.85,0,0,0,6.26-5.22c2.06-2.6,4.59-5.37,5.95-8.4.33-.73-.75-1.37-1.08-.63-1.37,3.06-4.26,6.44-6.45,9a15.83,15.83,0,0,1-4.09,3.56c-3.9,2.21-8-.17-8-4.59a.63.63,0,0,0-1.25,0Z"/><path class="cls-8" d="M221.34,119.35c-1.87,3.1-4,6-5.73,9.18-1.85,3.5-3.05,8.15-5.8,11.07-.55.59.34,1.47.89.89,2.52-2.69,3.68-6.71,5.3-10,1.85-3.72,4.29-7,6.42-10.54.42-.69-.66-1.32-1.08-.64Z"/>
        <path class="cls-8" d="M215.55,125.6a2.4,2.4,0,0,1-.84.81,5.75,5.75,0,0,0-1.41.88,1.45,1.45,0,0,0-.24,1.72c.07.13.37.53.27.38s0,.07.06.11c-.08-.23,0,.16,0,.19l.87-1.54-.14,0h.66l-.36-.09c-1.54-.48-2.19,1.93-.66,2.41a2.18,2.18,0,0,0,1.16.06,1.27,1.27,0,0,0,.88-1.53,3.12,3.12,0,0,0-.37-.93c-.09-.14-.21-.26-.3-.39l.09.11c-.12-.19-.08,0,.11.45l-.17.63c0-.08-.46.28-.15.17a3.42,3.42,0,0,0,.46-.26,7.44,7.44,0,0,0,.78-.44,5.68,5.68,0,0,0,1.42-1.51,1.26,1.26,0,0,0-.45-1.71,1.29,1.29,0,0,0-1.71.45Z"/>
        <path class="cls-8" d="M200.63,103.15c-.14,2.87,1,5.4,1.51,8.16a61.49,61.49,0,0,0,2.36,8.83c1.89,5.3,3.88,7,9.47,7.75,3.14.45,4.5-4.37,1.33-4.82-2.2-.31-4.11-.34-5.38-2.56a29,29,0,0,1-1.89-5.34c-.58-1.9-.78-3.86-1.2-5.8-.45-2.13-1.31-4-1.2-6.22.16-3.22-4.84-3.21-5,0Z"/><path class="cls-8" d="M210.47,128.65c-.56,6.69-5.43,12.89-8.85,18.46-3.15,5.14-6.69,9.95-8.65,15.71-1,3.05,3.79,4.36,4.82,1.33,4.24-12.46,16.55-21.94,17.68-35.5.26-3.21-4.74-3.19-5,0Z"/><path class="cls-8" d="M205.39,133.9c-.11-.57-.16,0,0-.3a5.69,5.69,0,0,0-.18.84,15.53,15.53,0,0,1-.54,1.76,17.73,17.73,0,0,1-1.18,2.77c-1.53,2.83,2.78,5.36,4.32,2.52,1.35-2.48,3-6,2.42-8.92a2.5,2.5,0,1,0-4.82,1.33Z"/><path class="cls-8" d="M219.15,121.92c-1.23,2-4.8,1.25-6.57.87-.79-.17-1.12,1-.33,1.2,2.45.54,6.37,1.11,8-1.44.43-.68-.65-1.31-1.08-.63Z"/><path class="cls-8" d="M224,115.42c-2.36,3.5-7.44,4.5-11.32,3.45-4.6-1.23-5.74-5.68-6.21-10-.08-.79-1.33-.8-1.25,0,.28,2.55.73,5.9,1.92,8.16,1,1.86,3.32,2.46,5.2,3,4.47,1.27,10.07-.07,12.74-4,.45-.67-.64-1.3-1.08-.63Z"/><path class="cls-8" d="M205.76,123.42c4.22-.1,8.13,2.06,12.41,1,3.13-.76,1.8-5.58-1.33-4.83-3.6.87-7.45-1.3-11.08-1.21-3.22.08-3.23,5.08,0,5Z"/><path class="cls-8" d="M218.9,122.13a18.62,18.62,0,0,0,2.36-1.19,1.25,1.25,0,1,0-1.26-2.16,15.87,15.87,0,0,1-1.76.93,1.26,1.26,0,0,0,.66,2.42Z"/>
        <path class="cls-8" d="M218.3,109.84a7,7,0,0,1,2.48-.65,4.52,4.52,0,0,1,2.77,1.3c1.42,1.39.95,3.27.42,5-.25.77,1,1.1,1.2.33.67-2.13,1-4.45-.74-6.17a6.22,6.22,0,0,0-3-1.59c-1.32-.28-2.29.25-3.51.62a.63.63,0,0,0,.33,1.21Z"/><path class="cls-6" d="M20.47,182.48a8.6,8.6,0,0,1,.86.15l.43.11s.62.22.34.11.18.1.23.12a4.11,4.11,0,0,1,.39.24c.33.19-.22-.23.06,0s.28.28.42.43a2.51,2.51,0,0,0,3.53,0,2.55,2.55,0,0,0,0-3.54,8.14,8.14,0,0,0-4.93-2.47,2.58,2.58,0,0,0-3.08,1.74c-.27,1.18.36,2.89,1.75,3.08Z"/>
        <path class="cls-6" d="M14.47,185.77a4.22,4.22,0,0,1,.93.23,6.36,6.36,0,0,1,1.07.73,1.93,1.93,0,0,0,2.65,0,1.89,1.89,0,0,0,0-2.66,7.55,7.55,0,0,0-4.65-2,1.88,1.88,0,1,0,0,3.75Z"/><path class="cls-6" d="M13.13,190.11a1.88,1.88,0,0,0,0-3.75,1.88,1.88,0,0,0,0,3.75Z"/><path class="cls-6" d="M204,211a11,11,0,0,0,8,0,2.59,2.59,0,0,0,1.75-3.08,2.5,2.5,0,0,0-3.08-1.74,6.94,6.94,0,0,1-5.33,0,2.52,2.52,0,0,0-3.08,1.74A2.58,2.58,0,0,0,204,211Z"/><path class="cls-6" d="M215.3,219.23a27.25,27.25,0,0,1,3.5,0,2.52,2.52,0,0,0,2.5-2.5,2.55,2.55,0,0,0-2.5-2.5,27.25,27.25,0,0,0-3.5,0,2.56,2.56,0,0,0-2.5,2.5c0,1.22,1.11,2.67,2.5,2.5Z"/>
        <path class="cls-6" d="M220,224.57c3.21,0,3.22-5,0-5s-3.23,5,0,5Z"/>
        <path class="cls-9" d="M89.39,257.46a18,18,0,0,1-9.52-2.8A10,10,0,0,1,75,247.19c-2.26-16.05,24.38-45.31,25.51-46.55a.55.55,0,0,1,.28-.15c.23-.1,3-1.64,11.64-20.71,3.85-8.51,8.29-13.48,13.21-14.78a9.05,9.05,0,0,1,7.12,1c9.53-.85,16.56,1.12,20.89,5.86,6.37,7,4.55,17.31,4.47,17.74a.48.48,0,0,1-.23.34c-.13.08-12.58,7.71-26.34,29.09C119.59,237.58,104.56,257.46,89.39,257.46Zm11.78-56C99.49,203.27,73.85,231.9,76,247.05a9.08,9.08,0,0,0,4.4,6.76c17.54,10.71,36.11-13.26,50.32-35.35,12.94-20.11,24.79-28.2,26.46-29.28.22-1.5,1.29-10.6-4.27-16.68C148.77,168,142,166.12,132.68,167a.52.52,0,0,1-.34-.09,8.11,8.11,0,0,0-6.47-.91c-4.54,1.2-8.87,6.12-12.53,14.21C105.33,197.88,102.21,201,101.17,201.41Z"/><path class="cls-9" d="M97.61,203.28c-6,0-8.34-3-9-4.2a2.1,2.1,0,0,1-.91.08c-1.52-.17-3.43-1.68-5.52-4.37-3.36-4.33,2.2-13.7,4-16.77a14.61,14.61,0,0,0,1.7-7c0-.22.06-1,.2-2.66.62-7.42,2.25-27.12.81-34.74a153.66,153.66,0,0,1-2-21.09.51.51,0,0,1,.49-.51h0a.5.5,0,0,1,.5.49,153,153,0,0,0,2,20.92c1.47,7.76-.17,27.56-.79,35-.12,1.39-.2,2.39-.2,2.58a15.61,15.61,0,0,1-1.82,7.51c-4.69,7.9-6.07,13.17-4.12,15.69,2.65,3.41,4.26,3.92,4.84,4a.91.91,0,0,0,.7-.16.52.52,0,0,1,.45-.09.51.51,0,0,1,.34.3c.07.19,1.83,4.56,9.66,4a.51.51,0,0,1,.53.47.5.5,0,0,1-.46.53C98.52,203.27,98.05,203.28,97.61,203.28Z"/><path class="cls-9" d="M111.22,182.9h-.09a.5.5,0,0,1-.41-.57c.21-1.22,5-29.74,7.68-36.23l3-16a.5.5,0,0,1,.58-.4.5.5,0,0,1,.4.58l-3,16.08a.17.17,0,0,1,0,.1c-2.61,6.3-7.58,35.77-7.63,36.06A.5.5,0,0,1,111.22,182.9Z"/><path class="cls-9" d="M150.27,153.1a38.31,38.31,0,0,1-23.81-8.67.5.5,0,1,1,.68-.73c.13.12,13.86,12.41,32.69,7.05a.51.51,0,0,1,.62.35.5.5,0,0,1-.35.61A35.56,35.56,0,0,1,150.27,153.1Z"/>
        <path class="cls-9" d="M174.09,218a11.19,11.19,0,0,1-5.61-1.87c-1-.06-6.95-.61-10.19-5.52-2.85-4.32-2.68-10.66.51-18.83.11-1.87,2.15-34.84,8.55-48.52a.5.5,0,0,1,.9.42c-6.47,13.84-8.43,47.9-8.45,48.24a.83.83,0,0,1,0,.15c-3.09,7.89-3.3,13.94-.63,18,3.18,4.82,9.46,5.08,9.52,5.08a.51.51,0,0,1,.24.07c5.58,3.37,7.68,1,7.77.86a.48.48,0,0,1,.4-.18,7.16,7.16,0,0,0,6.33-2.92c3.26-4.5,2.33-12.8,1.1-16.25-1.85-5.23.39-16.77.49-17.26a.5.5,0,0,1,.08-.2c9.35-12.47,21-42.91,21.1-43.22a.51.51,0,0,1,.65-.28.49.49,0,0,1,.29.64c-.12.31-11.74,30.73-21.16,43.36-.23,1.21-2.18,11.91-.5,16.63,1.28,3.62,2.24,12.37-1.24,17.17a8,8,0,0,1-6.88,3.33h-.06A4.54,4.54,0,0,1,174.09,218Z"/><path class="cls-9" d="M176.26,83.36a.5.5,0,0,1-.17-1c10.69-3.68,17.92-9.72,21.5-18,6.34-14.59-1-31.3-1-31.46a.52.52,0,0,1,.1-.56.47.47,0,0,1,.24-.13c.26-.3,1.48-2.33,2.87-15.57.36-3.41-.45-5.9-2.39-7.39-5.88-4.5-20.29,1-20.43,1a.5.5,0,0,1-.32,0C161,6,140.27,8.45,140.07,8.48a.49.49,0,0,1-.21,0c-16.19-5-20.77-3-22.06-1.36s-.21,4.57,1,6.63c5.11,8.56,1.63,13.47,1.47,13.67a.27.27,0,0,1-.07.08C102,43.61,122.94,71,123.15,71.3a.5.5,0,1,1-.79.61c-.22-.28-21.66-28.39-2.85-45.14.32-.48,3-4.87-1.56-12.53C115.44,10,116.06,7.7,117,6.48c2.53-3.22,10.49-2.88,23,1,1.64-.18,21.5-2.27,36.68,1.86,1.69-.63,15.2-5.47,21.25-.83,2.24,1.71,3.17,4.5,2.77,8.28-.69,6.59-1.78,14.52-3.13,16.13,1.07,2.62,6.86,18.14.89,31.89-3.7,8.52-11.13,14.76-22.09,18.53A.45.45,0,0,1,176.26,83.36ZM197.2,32.27Z"/>
        <path class="cls-9" d="M25,193.4a24.17,24.17,0,0,1-5.51-.76c-7-1.71-10-4.81-11.35-7.11A8.45,8.45,0,0,1,7.23,179c0-.16.1-.33.15-.52.54-2.05,1.44-5.48,8.81-8.66,8.6-3.71,24-6.17,45.84-7.32-.54-3-2.64-17,1.61-35.2,4.42-18.85,16.75-46.16,50.46-69.24a.49.49,0,0,1,.69.13.5.5,0,0,1-.13.7c-33.44,22.89-45.67,50-50,68.63-4.73,20.22-1.53,35.2-1.5,35.34a.52.52,0,0,1-.09.42.54.54,0,0,1-.37.19c-51,2.61-53.32,11.48-54.32,15.27q-.08.28-.15.54A7.45,7.45,0,0,0,9,185c1.22,2.13,4.08,5,10.72,6.63,5.6,1.37,8.33.56,9.62-.37a3.23,3.23,0,0,0,1.43-2.18.49.49,0,0,1,.2-.36.5.5,0,0,1,.39-.09c12,2.21,50.06-1.47,50.44-1.51a.52.52,0,0,1,.55.45.5.5,0,0,1-.45.55c-1.55.15-37.6,3.64-50.24,1.57a4.49,4.49,0,0,1-1.7,2.36A8.31,8.31,0,0,1,25,193.4Z"/><path class="cls-9" d="M180.38,14.73a.5.5,0,0,1-.3-.9c.34-.25,8.43-6.29,14.95-4.9a8.13,8.13,0,0,1,5.54,4.31.51.51,0,0,1-.2.68.5.5,0,0,1-.68-.2,7.16,7.16,0,0,0-4.87-3.81c-6.07-1.3-14.06,4.66-14.14,4.72A.47.47,0,0,1,180.38,14.73Z"/>
        <path class="cls-9" d="M134.88,12.73a.48.48,0,0,1-.28-.08c-.11-.08-11.42-7.62-15.88-5.75a2.67,2.67,0,0,0-1.6,2.17.49.49,0,0,1-.58.4.5.5,0,0,1-.4-.58A3.64,3.64,0,0,1,118.33,6c5-2.08,16.35,5.51,16.83,5.84a.5.5,0,0,1-.28.91Z"/><path class="cls-9" d="M159.38,190.61l-.17,0-1.75-.63a.5.5,0,0,1,.34-.94l1.75.63a.5.5,0,0,1-.17,1Z"/><path class="cls-9" d="M224.94,226.18a18.78,18.78,0,0,1-7.66-2c-3.83,1.23-8.23-1.9-10.17-4.58-.93-1.29-1.17-2.34-.68-3a.37.37,0,0,0,.06-.31c-.17-1-2.43-2.82-3.82-3.71-.16-.06-6-2.57-10.42-11.19-4.06-8-7.4-6.84-7.44-6.83a.5.5,0,0,1-.64-.28.51.51,0,0,1,.27-.65c.17-.07,4.17-1.57,8.7,7.3,4.23,8.28,9.94,10.74,10,10.77.48.3,4,2.63,4.34,4.42a1.37,1.37,0,0,1-.27,1.1c-.09.12,0,.72.71,1.75,1.74,2.4,5.87,5.38,9.23,4.16a.49.49,0,0,1,.41,0c.09.05,9.31,5,12.83-.82s-6.31-19.81-6.41-19.95-3.87-7.4-8.18-11.3a.49.49,0,0,1-.07-.66c.29-.41,29.57-41.14,22.73-63.89-1.8-6-6-10.28-12.5-12.72a.51.51,0,0,1-.33-.44c0-.18-.32-4.33-5.71-5.25a.49.49,0,0,1-.4-.4c-.05-.24-5-25-15.16-35.07a.5.5,0,0,1-.14-.35c0-.08-.06-7.48-4.39-12.77a.49.49,0,0,1,.07-.7.49.49,0,0,1,.7.07c4.2,5.12,4.58,11.88,4.61,13.18,9.78,9.8,14.58,32,15.22,35.12,5,1,6,4.65,6.16,5.78,6.64,2.57,11,7,12.83,13.26,6.71,22.33-19.51,60-22.62,64.41,4.3,4.06,7.87,10.91,8,11.21.38.53,10.36,14.47,6.42,21A6.92,6.92,0,0,1,224.94,226.18Z"/><path class="cls-9" d="M149.8,51.07a.5.5,0,0,1-.49-.4,4.41,4.41,0,0,1,0-1.44c-.46-4.84-6.06-7.43-6.12-7.46a.49.49,0,0,1-.25-.66.5.5,0,0,1,.66-.25c.24.11,4.87,2.26,6.32,6.44,1-1.89,3.22-4.13,8.52-5.47a.5.5,0,0,1,.24,1c-6.61,1.67-8.08,4.73-8.36,6.44a9,9,0,0,1,0,1.37.52.52,0,0,1-.48.46Z"/><path class="cls-9" d="M142.39,58.15h0a.5.5,0,0,1-.46-.54.47.47,0,0,1,.51-.46c.07,0,1.11-.18,3.46-2.68.56-.59,1-1.14,1.42-1.62,1-1.14,1.57-1.9,2.44-1.83.66,0,1.24.59,2,1.87a11.47,11.47,0,0,0,3.8,4.07.5.5,0,0,1,.21.67.49.49,0,0,1-.67.21,12,12,0,0,1-4.2-4.43c-.68-1.13-1.05-1.38-1.24-1.39-.36,0-.92.67-1.59,1.47-.41.49-.88,1.06-1.46,1.67C144,57.94,142.7,58.15,142.39,58.15Z"/>
        <path class="cls-9" d="M175,37.82a.52.52,0,0,1-.42-.22.51.51,0,0,1,.14-.7c1.31-.89,1.95-2.08,1.71-3.19-.31-1.39-1.9-2.44-4.26-2.82-4.88-.76-9,5.07-9,5.13a.51.51,0,0,1-.7.12.5.5,0,0,1-.13-.69c.18-.26,4.51-6.42,10-5.54,2.78.44,4.68,1.78,5.08,3.58.34,1.53-.45,3.11-2.13,4.24A.46.46,0,0,1,175,37.82Z"/><path class="cls-9" d="M143.22,35.07a.49.49,0,0,1-.48-.36c-.08-.24-1.85-5.84-7.84-5.64-1.78.06-2.89.51-3.31,1.32-.65,1.25.53,3.14.54,3.15a.5.5,0,1,1-.83.55c-.07-.1-1.53-2.38-.6-4.16.59-1.15,2-1.78,4.16-1.86,6.68-.28,8.81,6.28,8.83,6.35a.49.49,0,0,1-.33.62Z"/>
        <path class="cls-9" d="M194.13,55.31a34.73,34.73,0,0,1-11.51-1.69c-6.27-2.36-15.91-2.8-16-2.8a.52.52,0,0,1-.48-.53.46.46,0,0,1,.52-.47c.41,0,9.91.44,16.32,2.86,6.26,2.36,17.91,2,22.37-.07a.5.5,0,0,1,.66.25.49.49,0,0,1-.24.66C203.28,54.65,198.79,55.31,194.13,55.31Z"/><path class="cls-9" d="M194.3,74.9a.49.49,0,0,1-.4-.2c-10.63-14.46-29.83-21.43-30-21.5a.49.49,0,0,1-.3-.64.5.5,0,0,1,.64-.3c.19.07,19.68,7.14,30.48,21.84a.5.5,0,0,1-.11.7A.45.45,0,0,1,194.3,74.9Z"/><path class="cls-9" d="M184.3,84.82a.51.51,0,0,1-.47-.33c-3.68-9.88-18.59-27.26-18.74-27.43a.5.5,0,1,1,.75-.65c.62.71,15.19,17.68,18.93,27.73a.5.5,0,0,1-.3.64A.33.33,0,0,1,184.3,84.82Z"/><path class="cls-9" d="M137.05,32.65h0a.5.5,0,0,1-.49-.51l.08-3.25a.51.51,0,0,1,.52-.49.5.5,0,0,1,.48.51l-.08,3.25A.51.51,0,0,1,137.05,32.65Z"/><path class="cls-9" d="M170.63,34a.5.5,0,0,1-.5-.5V30.73a.51.51,0,0,1,.5-.5.5.5,0,0,1,.5.5v2.75A.5.5,0,0,1,170.63,34Z"/>
        <path class="cls-9" d="M105.85,51.05a38.18,38.18,0,0,1-4.7-.24.5.5,0,0,1-.43-.56.5.5,0,0,1,.56-.43,50.2,50.2,0,0,0,16.15-1.07c8.86-2.07,21-2.68,21.09-2.68a.48.48,0,0,1,.53.47.51.51,0,0,1-.48.53c-.12,0-12.14.6-20.91,2.65A52.5,52.5,0,0,1,105.85,51.05Z"/><path class="cls-9" d="M110.13,58.48a.5.5,0,0,1-.29-.91c6.26-4.42,25.3-8.57,26.1-8.74a.5.5,0,0,1,.6.38.49.49,0,0,1-.39.59c-.19.05-19.63,4.28-25.73,8.59A.52.52,0,0,1,110.13,58.48Z"/>
        <path class="cls-9" d="M114.13,67.23a.57.57,0,0,1-.28-.08.5.5,0,0,1-.13-.7c6.35-9.27,24.15-15.91,24.91-16.19a.51.51,0,0,1,.64.3.5.5,0,0,1-.3.64c-.18.07-18.25,6.8-24.43,15.82A.48.48,0,0,1,114.13,67.23Z"/><path class="cls-9" d="M20.13,179.11a.48.48,0,0,1-.37-.17c-2.14-2.44-3.1-4.69-2.85-6.7a4.48,4.48,0,0,1,1.69-3,.5.5,0,0,1,.69.12.51.51,0,0,1-.12.7,3.47,3.47,0,0,0-1.27,2.36c-.2,1.71.68,3.7,2.61,5.9a.49.49,0,0,1-.05.7A.46.46,0,0,1,20.13,179.11Z"/>
        <path class="cls-9" d="M13.63,185.36a.39.39,0,0,1-.18,0c-6.56-2.49-5.7-7.75-5.69-7.8a.5.5,0,0,1,.58-.4.49.49,0,0,1,.41.57c0,.19-.7,4.51,5.06,6.7a.5.5,0,0,1-.18,1Z"/><path class="cls-9" d="M31.3,189.65a.45.45,0,0,1-.2,0,.5.5,0,0,1-.26-.66,5.84,5.84,0,0,0-.25-5.32.5.5,0,1,1,.83-.55,6.79,6.79,0,0,1,.34,6.27A.51.51,0,0,1,31.3,189.65Z"/><path class="cls-9" d="M222.26,217.36a.5.5,0,0,1-.5-.48.49.49,0,0,1,.47-.52c3.36-.18,5.58-1,6.43-2.42a3.17,3.17,0,0,0,.14-2.75.51.51,0,0,1,.25-.66.49.49,0,0,1,.66.24,4.16,4.16,0,0,1-.19,3.68c-1,1.73-3.48,2.71-7.24,2.91Z"/>
        <path class="cls-9" d="M213.43,207.47a14.62,14.62,0,0,1-2.77-.25.48.48,0,0,1-.39-.58.49.49,0,0,1,.58-.4c.07,0,6.63,1.25,8.2-2.33a.5.5,0,1,1,.91.4C218.81,206.94,215.73,207.47,213.43,207.47Z"/>
      </g>
    </g>
</svg>
