<svg xmlns="http://www.w3.org/2000/svg" viewBox="0 0 355.68 347.69">
  <defs>
    <style>.cls-1{fill:#fff;}.cls-2{fill:#a49f8d;}.cls-3{fill:#f8a16c;}.cls-4{fill:#e580a9;}.cls-5{fill:#aa182c;}.cls-6{fill:#c2bab2;}.cls-7{fill:#231f20;}
    </style>
  </defs>
  <title>Cat1</title>
  <g id="Cat">
    <g>
      <path class="cls-1" d="M224.54,52.89c-21.72-35.73-66.09-23.8-97.11-9.92-15.35,6.88-31.78,18.48-39.06,34a77.46,77.46,0,0,0-7.16,32.12c-.14,6.71.4,13.38-.4,20.07l1.25-9.3A55.61,55.61,0,0,1,78.37,133l3.53-8.36c-4.89,11.29-10.82,22.1-16.54,33-6.08,11.54-11.24,22.77-19.26,33.17l5.47-7.09c-6.5,8.31-13.11,16.52-19.42,25l5.47-7.08C26.69,215.67,15.67,229,16.14,248A37.72,37.72,0,0,0,39.35,282.3c6.91,2.91,14,3.34,21.47,3.76l-9.31-1.25a59.46,59.46,0,0,1,14.8,4.2L58,285.48c8.87,3.89,17.2,8.9,25.91,13.13a194.66,194.66,0,0,0,19.21,8.23c4.86,1.75,10,2.58,14.75,4.53l-8.36-3.53c7.51,3.34,14.94,7.84,23,9.47,11.27,2.25,21.32.84,30.51-6.27a34.51,34.51,0,0,0,13.8-27.48,51.37,51.37,0,0,1,.36-5.41l-1.25,9.3a30.75,30.75,0,0,1,1.46-5.58l-3.53,8.36a21.56,21.56,0,0,1,2.47-4.36L170.86,293a21.13,21.13,0,0,1,2.66-2.69l-7.08,5.47a22.67,22.67,0,0,1,4.11-2.43l-8.36,3.53a30.9,30.9,0,0,1,7.07-1.89L160,296.2a63.14,63.14,0,0,1,15.78.23l-9.31-1.25a85.69,85.69,0,0,1,19.26,6l-8.36-3.52a19.83,19.83,0,0,1,3.38,2l-7.08-5.47a15.65,15.65,0,0,1,1.75,1.8l-5.47-7.08c2,2.82,3.23,6.17,4.69,9.31,2.26,4.89,8,9.89,12.55,12.56a34.63,34.63,0,0,0,22.32,4.15c12.88-1.73,26.37-11.58,29.1-25.07,2.13-10.54,1.7-18.42,0-28.95-.76-4.66-1.95-9.23-2.7-13.89l1.25,9.31c-.14-.92-.24-1.85-.3-2.77l-25.7,33.75c11.78-2.71,22.76-10.48,31.06-19,8.5-8.7,16.35-19.68,20-31.44,3.05-9.83,3.4-22.12,3.42-32.52a48.42,48.42,0,0,0-5.92-23.26c-1.67-3.08-3.92-5.79-5.53-8.92l3.53,8.36a25.6,25.6,0,0,1-1.82-6.59l1.25,9.3a32.89,32.89,0,0,1,.08-4.76L256,187.8c1.17-7.82,4.32-16.18,7.28-23.49l-3.53,8.36c2.95-6.73,7-12.86,10.13-19.5,5.43-11.56,8.43-22.3,8.72-35.2.41-18.83-5.33-40.08-16-55.66-11.65-17-27.48-28.1-47-34.4-18.32-5.92-42.2-5.74-58.36,5.92-7.59,5.48-13.51,11.59-16.08,20.92-2.31,8.38-1.27,19.54,3.53,27s12,14,20.91,16.09c8.67,2,19.45,1.9,27-3.53a26.77,26.77,0,0,1,5.21-3l-8.36,3.53a32.56,32.56,0,0,1,7.14-1.76l-9.3,1.25a44.76,44.76,0,0,1,10.41.26l-9.31-1.25a61.74,61.74,0,0,1,13.14,3.71l-8.36-3.53a61.65,61.65,0,0,1,12.62,7.16l-7.08-5.47a42.74,42.74,0,0,1,6.86,6.65L200,94.79a63.76,63.76,0,0,1,8.07,13.94l-3.53-8.36a75.8,75.8,0,0,1,4.78,17.83l-1.25-9.31a63.27,63.27,0,0,1,0,14.94l1.25-9.3a44.32,44.32,0,0,1-2.86,10.23L210,116.4c-2.75,6.23-6.51,11.91-9.45,18-4.08,8.49-7,17.3-10,26.18-3.77,11.2-4.78,23.7-1.64,35.19a55.78,55.78,0,0,0,7.26,15.91,36.54,36.54,0,0,1,3.52,5.81l-3.53-8.37a13.69,13.69,0,0,1,.56,2.44l-1.25-9.3c.49,6.76-.21,14.46-1.07,21.17l1.25-9.31a23.06,23.06,0,0,1-1,4.11l3.52-8.36a50.85,50.85,0,0,1-6.7,11.11l5.47-7.08a61.16,61.16,0,0,1-10.11,10l7.08-5.47a35,35,0,0,1-6.59,3.85l8.37-3.53a24.37,24.37,0,0,1-3.22,1c-13.83,3.17-27,19.09-25.69,33.75.81,9.35,3.17,18.28,4.47,27.52l-1.25-9.3a32.31,32.31,0,0,1,.05,7.42l1.25-9.31-.27,1.36,64-8.36a70.52,70.52,0,0,0-4.69-9.31c-6.66-10.2-15.45-15.88-26.6-20.14-12.25-4.68-24.64-7.78-37.91-7.65-15.56.15-30.06,4.6-41.82,15-12.11,10.7-17,27.11-17.2,42.79l44.3-33.75a32.3,32.3,0,0,1-5.69-1.76l8.36,3.52c-7-3.1-13.89-6.92-21.28-9.14-5.27-1.59-10.43-2.81-15.54-5l8.36,3.53c-9.89-4.35-19.11-10-28.88-14.55-6.79-3.18-13.94-6.51-21.29-8.25-6.67-1.59-13.52-1.87-20.31-2.44L64.16,217a9.87,9.87,0,0,1-2-.46l8.36,3.53-.51-.28,7.08,5.47-.43-.35L82.11,232a2.6,2.6,0,0,1-.59-1l3.53,8.36-.16-.67L86.14,248a13.13,13.13,0,0,1,.1-2.8L85,254.51a27,27,0,0,1,1.1-4.13l-3.53,8.36a46,46,0,0,1,6-9.62l-5.47,7.09c4.59-5.82,9.06-11.73,13.57-17.62l-5.47,7.09c9-11.5,19.28-22.5,26.1-35.46,5.86-11.15,11.52-22.51,17.19-33.77s12.21-22.82,14.64-35.1a111.57,111.57,0,0,0,2.19-23.2,114.9,114.9,0,0,1,.48-16.49L150.52,111a38.83,38.83,0,0,1,1.82-7l-3.53,8.36a28.73,28.73,0,0,1,2.8-5l-5.47,7.09a48.14,48.14,0,0,1,7.05-6.71l-7.08,5.47a83.73,83.73,0,0,1,18.13-10.42l-8.36,3.53a117,117,0,0,1,27.63-8.16L174.2,99.4a41,41,0,0,1,9.52-.24l-9.3-1.25a21.67,21.67,0,0,1,5.24,1.44l-8.36-3.53a17.65,17.65,0,0,1,2.64,1.65L166.85,92a11,11,0,0,1,1.49,1.48l-5.47-7.08a12.62,12.62,0,0,1,1.23,1.82c9.5,15.64,31.8,22.92,47.88,12.56,15.71-10.13,22.73-31.15,12.56-47.89Z"/><path class="cls-1" d="M130.6,121.72a9,9,0,0,1,1,1.92L128,115.28a11,11,0,0,1,.51,2.13l-1.25-9.31a22,22,0,0,1-.06,4.73l1.25-9.31c-1.72,10.54-7.19,20.88-10.6,31-4.63,13.7-9.17,27.43-14.8,40.77l3.53-8.36c-3.65,8.49-7.21,17.2-11.39,25.45-2.2,4.33-4.63,8.25-6.52,12.74-4.92,11.66-4,24.18,2,35.35,6.46,11.94,20.38,20.94,33.45,23.67a80.09,80.09,0,0,0,35-.17c22.16-5.05,36.8-24.54,46.69-43.69,8.88-17.19,16.74-35,22.23-53.6a280.27,280.27,0,0,0,11.2-68.09c.71-18.32-16.61-35.83-35-35-19.57.87-34.24,15.37-35,35-.28,7.22-.94,14.4-1.9,21.56l1.25-9.31a249.9,249.9,0,0,1-16.5,61.05l3.52-8.37c-5.55,13-11.79,26.67-20.45,37.95l5.48-7.08a56.59,56.59,0,0,1-7.15,7.45l7.08-5.48a19.71,19.71,0,0,1-4.18,2.34l8.36-3.52a36.82,36.82,0,0,1-7.76,1.9l9.31-1.25a46.9,46.9,0,0,1-9.91,0l9.31,1.25a34.16,34.16,0,0,1-8-2l8.36,3.53a23.6,23.6,0,0,1-3.68-2l7.08,5.47a22.26,22.26,0,0,1-3.58-3.55l5.48,7.08-.59-1L154.4,213l-.32-1,1.26,9.31-.09-.92L154,229.7a5.44,5.44,0,0,1,.43-1.82l-3.53,8.36c2.14-4.51,4.92-8.68,7-13.25,2.37-5.23,4.48-10.56,6.91-15.76a417.65,417.65,0,0,0,16.66-42.52c3.48-10.23,6.81-20.48,10.84-30.51,6.22-15.45,7.35-32.94-1.26-47.81-9.18-15.85-32-22.77-47.89-12.56s-22.38,30.93-12.55,47.89Z"/><path class="cls-1" d="M214.32,308.56c3,0-4.89-.75-4.48-.64.24.07-6.41-3.19-4-1.61.21.14-5.37-4.59-3.26-2.45s-2.38-3-2.3-3.15c-.06.1,1.65,2.81,1.82,3.08,1.69,2.73-1.78-3.34-1.41-3.4a15.45,15.45,0,0,1,.75,2.24c.35,1.16.47,2.45.86,3.59.72,2.09-.44-6.15-.53-4.06,0,.52.06,1.1.09,1.62.34,4.56.59-3.06.62-3.19-.28,1.13-1.06,2.83.82-1.72q1.6-5.69,7.9-7.76,11.25-6.15,6.46-5.16c-12.88,2.42-21.38,18.64-17.46,30.75,4.45,13.77,16.95,20.06,30.75,17.46,20.19-3.79,23.29-27.79,19-43.92-4.48-16.7-17.18-31.51-35.6-31.68-13.08-.13-25.6,11.58-25,25,.61,13.65,11,24.86,25,25Z"/><path class="cls-1" d="M116.61,62.25l.92,5.83q-.5,1.31.06.06a16.93,16.93,0,0,0,1.46-3.33,21.15,21.15,0,0,0,1.79-8.74c-.13-5.63-3.4-10.47-4.56-15.4-.46-1.9.13,2.84-.11-.7,0-.78-.13-1.56-.15-2.34,0-1,0-1.89,0-2.84,0-1.65-.64,1.54,0,.16s-1.37,1.68,0-.16a7.85,7.85,0,0,1-1.78,2,2.94,2.94,0,0,1-1.52.67c-.72.13-.63.16.27.1,0,0,1.62.15,1.86.21,7.72,1.78,14.72,7.72,23.1,9.15,3.71.63,9.9,1.21,12.17,1.5-1.26-.16,1.07.17,1.29.21.91.16,1.81.36,2.72.53.66.13,1.28.38,1.93.54-1.46-.69-1.8-.83-1-.41s.48.21-1.13-.89l2.53-19.63C145.19,34.53,131.14,33.15,119,36c-6.57,1.54-10.47,9-8.73,15.38a12.72,12.72,0,0,0,15.38,8.73c6.8-1.6,13.74-2,20.65-2.93a69.17,69.17,0,0,0,22.84-6.83c7.14-3.64,8.07-14.29,2.53-19.63-3.87-3.73-8.9-5.47-14.1-6.31-3.11-.49-6.24-.86-9.36-1.21l-3.58-.4c2.76.33-.59-.1-1-.17-4.71-.94-8.43-3.45-13.34-5.64-7.18-3.21-14.66-5.42-22.58-3.93C94.35,15.59,90,29.07,91.3,41.13a39.29,39.29,0,0,0,1.93,9.69c.65,1.74,1.54,3.39,2.21,5.13.39.74.46.93.23.56q.6,2.77.37.18c1-2.09.12-1.64-.61,0A37,37,0,0,0,93.26,62c-1.13,4.33-.81,9.12,1.76,12.9,3.8,5.56,11,8.06,17.11,4.48,5.52-3.23,8.3-11.5,4.48-17.1Z"/><path class="cls-1" d="M236.64,66.61a116.41,116.41,0,0,0,14.55-4.49c3.64-1.24,8.13-2.95,11.3-2.51l-8.73-15.38c-.37,2.62.79-2.33.15.05,1-1.22,1.11-1.49.45-.82s-.45.45.57-.38a33.69,33.69,0,0,1-6,3.23c2-.83-1,.31-1.43.47-1.06.38-2.13.74-3.21,1.09-1.76.57-3.53,1.09-5.3,1.63-15.34,4.69-8.8,28.82,6.65,24.11,11.41-3.48,30.2-8.55,32.23-22.73.86-6-1.4-14.36-8.73-15.38A48.71,48.71,0,0,0,247.58,37c-5.89,1.8-11.53,4.25-17.59,5.48-6.62,1.35-10.43,9.19-8.73,15.38,1.9,6.88,8.74,10.08,15.38,8.73Z"/><path class="cls-1" d="M256.49,65.82c4.72,8.62,10.28,16.82,13.75,26.07,1.12,3,5.95,1.69,4.82-1.33-3.63-9.67-9.32-18.25-14.25-27.27-1.55-2.82-5.87-.3-4.32,2.53Z"/><path class="cls-1" d="M169.83,13.59c2.66-.37-2.52,0-2.45,0-1.07,0-2.13-.08-3.21-.09a26.58,26.58,0,0,1-5.59-.88,163.06,163.06,0,0,1-17.46-5.25C130.53,3.76,118.91-.5,107.54.05c-9.68.47-19.1,4.34-24.18,13-3.88,6.63-4.72,14.63-4.1,22.16C79.9,43,81.5,50.7,82.72,58.41c.15,1,.35,1.94.44,2.91,0-.28-.36-3.74-.18-1.15.1,1.5.28,3,.33,4.49,0,1-.44,3.25-.11,4.11-1-2.49.87-3.31.13-1.39-1.16,3,2-3-.1.59-1,1.83-2.12,3.58-3.3,5.33,1.86-2.77-.89,1.08-1.59,1.93-3,3.7-6.1,7.38-8.14,11.71-5.72,12.13-4.1,24.76-.2,37.18.81,2.57,1.66,5.13,2.28,7.75a28.83,28.83,0,0,1,.64,3.07c-.34-2.9-.16,2-.17,2.1.06-.59.3-2.42-.19.34-.61,3.53,1.33-1.64-.53,1.59-.49.84-.94,1.69-1.46,2.52-.09.13-2.63,3.72-1.24,1.9-3.16,4.13-6.95,7.79-10.4,11.66-4.36,4.89-7.5,9.27-11.72,14.32-13.48,16.13-27.69,32.73-38,51.21C4.15,229.77-.07,240.22,0,250.91c.08,11.52,5.33,21,13.33,29a53,53,0,0,0,27.63,15c3.11.57,6.25,1,9.39,1.29,1,.11,2,.22,2.94.27,4.54.23-2.21-.72,2.34.23a37.69,37.69,0,0,1,7.12,2.15c-.69-.29-2.06-1.1.34.26,1.24.71,2.54,1.33,3.79,2,5.93,3.32,11.62,6.84,18,9.41,5.63,2.29,11.32,3.27,17.29,4.19a57.81,57.81,0,0,1,9.06,1.77c-3.05-1,1.25.79,1.55.95a52.2,52.2,0,0,0,6.6,3.09,38.62,38.62,0,0,0,19.94,1.05c1.67-.37-3.74-.87-.39-.05,1.21.29,2.44.52,3.65.8,2.65.59,5.27,1.17,7.95,1.58,7.4,1.14,14.69,1.19,21.43-2.66,6.37-3.63,10.23-9.5,12.59-16.3a70.23,70.23,0,0,0,1.87-7c.19-.77.36-1.54.56-2.31.27-1,2.19-5.31.34-1.53l-20.52,5.38a11.63,11.63,0,0,1-1.84-1.73c-1.64-1.54-.06.32,0,.35-.48-.32-1-3.09-.28-.26.14.59.36,1.18.55,1.75a39.33,39.33,0,0,0,4.21,9.51,27.83,27.83,0,0,0,10.27,8.93,68,68,0,0,0,6.57,2.82l1.82.7c2.15.84-2.15-.83,0,0a14,14,0,0,1,1.71.91c-.23-.13-1.65-1.6-.42-.36.49.5.94,1,1.41,1.54-.38-.41-1.61-2.2.07.1s3.12,4.33,4.73,6.46c4.15,5.47,8.58,10.66,14.91,13.72,14.34,6.94,33.83,4.65,42.05-10.29,5.9-10.74,6.27-25.61,3.56-37.36-1.34-5.79-3.63-11.32-5.32-17-.37-1.24-.73-2.48-1-3.74-.38-1.58-.39-3.37-.31-.67,0-.66,0-1.45-.11-2.12-.1-.88.54-1.63-.1.07a25,25,0,0,1-.91,2.73c-.55,1.08-1.45,1.31-.15.15.48-.42,1-.86,1.43-1.31,1.64-1.59-1.71,1.29.13-.15s3.49-2.62,5.18-4a31.86,31.86,0,0,0,7.67-9.22c3.82-6.92,6.1-14.6,8.69-22,5.54-15.88,7.26-33.29,4-49.82-.65-3.28-1.5-6.52-2.16-9.8-.22-1.07-.48-2.2-.6-3.29.05.41.15,1.54.07-.19,0-.84-.13-4.57-.19-3.85.31-4,1.79-8.16,3-11.92.43-1.28.93-2.54,1.37-3.82.84-2.39-1,1.83.55-1.25.66-1.34,1.31-2.67,2.07-4,.27-.45.58-.89.83-1.35.94-1.72.08.09-.61.66a8.74,8.74,0,0,0,.91-1c1.58-1.82.16,0-.85.54-1.86,1.08-2.67,1.35-5.43,1-.11,0-3.16-.81-3-1a13.49,13.49,0,0,1,1.81,1c2.18,1.18.2.17-.26-.25.62.55,1.24,1.09,1.85,1.66,4,3.78,7.35,8.27,11.38,12,2.76,2.59,5.75,4.9,8.42,7.59.59.59,3.79,4.22,2.83,2.94.46.62.88,1.28,1.29,1.94.22.35,1.73,3.24.87,1.16,3.08,7.49,10,12.81,18.45,10.48a15.19,15.19,0,0,0,10.48-18.45c-3.87-13.47-12.72-23.37-24.24-30.95-4.54-3-9.37-5.49-14.12-8.11-2.19-1.21-4.38-2.43-6.51-3.74-1.06-.65-2.1-1.32-3.13-2q-1-.69-2-1.41,2.12,1.7.15.1L271.8,149c1.42-.46,2.83-.81,4.26-1.17,3.2-.82-1.26-.24,1.78-.19a81.18,81.18,0,0,1,8.82.34c-2.83-.35,1.43.28,2,.39,1.51.28,3,.61,4.51.94,3.29.74,6.56,1.57,9.84,2.38,13.81,3.39,27.76,5.8,41.81,2.31,7.26-1.8,11.71-9.31,10.75-16.46-.89-6.63-7.32-13.93-14.73-13a175.18,175.18,0,0,1-32.13,1.2,54.7,54.7,0,0,1-12-1.56q-3.18-.7-6.28-1.7c-1-.32-2-.65-3-1,1.56.7,1.87.8.91.31s-.7-.3.77.8c-1.69-2-.06.22.32.48l.66,1.33c-.33-1.61-.35-1.77-.06-.49-.09-2,0-3.93,0-5.9-.15-6.77-2.1-12.92-3.8-19.39-1.59-6.05-2.86-12.19-4.47-18.24-.65-2.42-1.34-4.83-2.12-7.21-.49-1.46-1-2.89-1.53-4.34-.6-1.77-.49-5.21-.67-1a13.52,13.52,0,0,1-3.17,7.7c-3,3-2.17,1.44-1.15,1a26.71,26.71,0,0,0,4.86-3c5.21-3.63,9.95-7.71,12.75-13.53,5.83-12.12,1.9-26.89-10-33.64-8-4.53-17.42-5.58-26.44-5.76-4.54-.09-9.05.15-13.59-.18a122.68,122.68,0,0,1-15.33-2.31c-23.41-4.42-48.9-12.08-72.47-4.5C145.12,16.07,140.14,24,142.35,32c2.08,7.58,10.71,13,18.45,10.48a49.49,49.49,0,0,1,7.08-1.76c-2.43.41.06,0,.51,0,1.28-.07,2.56-.17,3.85-.21a112.09,112.09,0,0,1,14.83.77c8,1,19,3.57,28.19,5.33,12,2.31,23.84,4,36.06,3.93,3.18,0,6.35.13,9.51.39,2.81.23-.07,0-.54-.08.93.2,1.87.35,2.8.58s1.78.62,2.67.78c-3.16-.59-1-.09.19.27-1.37-.43-2.09-1.64-.76-.51L264,50.44c.61,1.12.62,1.1.05,0a11.94,11.94,0,0,1-.41-3.32c-.14-1.32,2-.94-.23.22,2.76-1.45-1.79.84,0-.18s-2,1.38-1.81,1.26c-1.46.95-3,1.75-4.45,2.71-4.47,2.93-7.91,6.7-9.24,12-1.6,6.35.73,12.14,2.69,18,1.86,5.64,3.2,11.43,4.57,17.2,1.3,5.49,3.71,12.76,4.61,17,.67,3.17.24,10.45.94,14.86a23.86,23.86,0,0,0,9.47,15.41c9.6,7.22,23.58,8.87,35.16,9.87a170.13,170.13,0,0,0,35.45-1l-4-29.47c-.49.12-4.55.92-1.93.57a37.14,37.14,0,0,1-4.48.25c-1.5,0-3-.06-4.5-.17-.44,0-4.6-.61-2.06-.2-6.4-1-12.66-2.73-19-4.25-13.45-3.25-27.58-5.55-41.07-1.2-9.78,3.16-15.89,17.49-6.62,25.07,8.53,7,18,11.7,27.46,17.25,2.14,1.26,4.19,2.64,6.26,4,2.6,1.7-1.63-1.66.83.64.88.82,1.81,1.6,2.66,2.46s1.67,1.76,2.44,2.7c-1.33-1.62-.56-.79.14.45.21.37,2.08,3.78,1.31,2.14s.89,2.72,1,3.24l28.93-8a58.93,58.93,0,0,0-14.42-20.95c-4.07-3.84-8.15-7.34-11.91-11.5-9.24-10.26-22.34-21.8-36.85-13.94-10.64,5.75-15.81,19.22-19.23,30.07a83.92,83.92,0,0,0-3,14.1c-1.18,8.8.77,17.46,2.69,26a41.41,41.41,0,0,1,1.31,8.61,82.4,82.4,0,0,1-.45,12.37c-.2,1.78-.08.63,0,.25-.17,1.12-.39,2.25-.61,3.35q-.51,2.52-1.16,5c-1,3.94-2.44,7.76-3.75,11.62-.61,1.79-1.19,3.59-1.83,5.37-.28.77-.55,1.55-.86,2.31.14-.34.63-1.38-.08.19-.3.66-2.52,4.91-1.13,3a12.36,12.36,0,0,1-1.33,1.38c-.18.19-2.19,2-1,1s-.5.39-.63.48c-1.36,1.07-2.76,2.09-4.11,3.18a31.43,31.43,0,0,0-3,2.57,26.67,26.67,0,0,0-6.79,11.42c-3.43,12.94,3.87,25.56,6.86,37.77.44,1.79.35,3,.28.38,0,1.27.15,2.54.17,3.82.06,2.81-.17,5.57-.27,8.37-.06,1.74.08-.89.13-1.05-.22.73-.3,1.53-.49,2.27-.46,1.77-1.3,2.51,0,.56-1,1.53-1.57,2,.05.38-1.84,1.82.33-.26.69-.44,1-.5,2.45-.54.62-.28.3,0,3-.1.84-.09-1.25,0-2.51.05-3.77.05,2.65,0-.55-.38-1.65-.51-1.54-.19.67.16,1,.4-.07-.06-3.07-2-1.22-.63,1.52,1.15-1.23-1.28-1.71-1.8s-1-1.17-1.48-1.71c.82.87,1.2,1.63.2.25q-1.26-1.76-2.53-3.49c-2.41-3.32-4.75-6.95-7.79-9.73-4-3.65-8.44-5.59-13.42-7.55l-1.82-.7c-2.13-.85,2.15.74,0,0-.13-.05-1.73-1-1.73-1,.29-.42,2.25,2.88,1.3,1.32-.85-1.4.26.67.31.86-.23-.78-.51-1.55-.76-2.33a65.88,65.88,0,0,0-2.65-7,23.6,23.6,0,0,0-9.35-10.45c-6.54-4-17-1.79-20.53,5.39A60.84,60.84,0,0,0,157,291.76c-.43,1.75-1,3.46-1.45,5.2.67-2.59.55-1.38.1-.45-1.19,2.43.9-.8,1.6-1.43-2.33,2.09,1-1.45,2.26-.4a20.1,20.1,0,0,0-2.47,0c-2.67.09-.68,0,.05.08-1.12-.17-2.23-.41-3.34-.65-4.76-1-9.61-2.43-14.51-2.55a53.22,53.22,0,0,0-6.56.53c-1,.1-2,.2-2.93.21-3.3.05-1-.25-.47,0-5.19-2.2-9.64-4.91-15.3-5.85-4.88-.81-9.87-1.33-14.66-2.59s-7.57-3-12.32-5.75c-9.72-5.64-19.25-10.19-30.56-11.39-2-.22-4.08-.36-6.12-.54-4.48-.39,2.74.74-1.41-.22-.83-.19-1.68-.32-2.51-.52s-1.6-.4-2.39-.64c-.06,0-3.8-1.33-1.62-.46s-1.41-.73-1.49-.77c-1.09-.59-2.11-1.28-3.16-1.95-2.33-1.47-.55-.44-.09,0-.89-.77-1.76-1.56-2.61-2.38-.68-.66-4.71-5.09-2.86-2.68-.51-.66-.85-1.41-1.35-2.07-2-2.64.32,2.44-.37-.72a18.47,18.47,0,0,0-.57-2.22c1,2.72.09,1.05.08-.59,0-.79.08-1.56.09-2.34-.05,3.33-.2.9.08-.17.46-1.82.9-3.63,1.52-5.41,0,.06,1.52-3.85.67-1.84s1-1.93.9-1.83c1-2,2.11-4,3.26-6,9.46-16.08,21.3-30,33.08-44.17q2.91-3.49,5.72-7.08a64.88,64.88,0,0,1,4.33-5.27c3.44-3.89,7.11-7.59,10.4-11.61,7.53-9.2,13.58-19.6,12.63-32a76.82,76.82,0,0,0-3.75-17.1c-.65-2.07-1.32-4.14-1.86-6.25.12.46-1-4.66-.68-2.7.15.89-.13-2.76-.12-3.44,0-1,.65-3.79-.08-.75.19-.78.44-1.57.61-2.36.66-3-1.08.94,0-.07a13.12,13.12,0,0,0,1.4-2.36c.4-.61.86-1.18,1.26-1.78-1.81,2.69-.81,1-.3.44,2-2.43,4-4.94,5.93-7.49a38.83,38.83,0,0,0,8.19-23c.12-7-1.32-14-2.51-20.88-.29-1.67-.58-3.33-.86-5-.13-.83-.25-1.66-.39-2.48-.59-3.51.08,1.48,0,.08-.2-3.17-.23-6.35-.41-9.5-.16-2.76-1,2.6-.19,1.19.09-.17.64-2.56.64-2.56s-1.77,3.61-.67,1.61c.59-1.08,2.1-2.76-.77.77,2.18-2.68-2.7,1.45.44-.18-3.88,2-1.74.67-.43.5-2.21.3-2.48.18-.09.12,4.16-.12,7.59.78,13.23,2.42s11.06,3.62,16.59,5.45c13.2,4.36,26.06,6.58,39.91,4.62,8-1.14,12.43-11.36,10.48-18.45-2.37-8.63-10.4-11.62-18.45-10.48Z"/><path class="cls-2" d="M206.8,183.81c-2.65-7.66,4.61-15.2,8.61-21.13,4.61-6.85,9.56-14.08,16.94-18.15,8.46-4.66.9-17.62-7.57-12.95-10.14,5.6-16.77,15.4-23.14,24.75s-13.37,19.72-9.31,31.47c3.14,9.07,17.63,5.17,14.47-4Z"/><path class="cls-2" d="M230.07,133.45a10.93,10.93,0,0,0,2.8.15c1.68,0,3.45.44,5.13.63,3,.36,6.16.76,9.07-.36l-.61-1.05c-4.53,3.54-9.53,6.54-14.17,10-.64.47,0,1.55.63,1.08,4.73-3.48,9.8-6.54,14.42-10.14.49-.38,0-1.27-.61-1.05-2.79,1.08-5.83.67-8.73.32-1.26-.15-2.51-.4-3.77-.51a23.19,23.19,0,0,1-3.83-.22.62.62,0,0,0-.33,1.2Z"/><path class="cls-2" d="M233.9,135.6a51.57,51.57,0,0,1,5.56.21,17.45,17.45,0,0,0,2.15.33c.56,0,1.07-.36,1.62-.33l-.88-2.14c-.72.83-2.07,1-2.9,1.88a10.25,10.25,0,0,1-4.34,2.59l1.58,1.21a23.81,23.81,0,0,0-.46-4l-1.2,1.58c1.56.1,2.56.44,4.12,0l-1.41-1.84c-.36.5-1.33.75-1.81,1.21-1.16,1.12.61,2.88,1.77,1.76.74-.7,1.58-.83,2.2-1.71s-.43-2.08-1.41-1.83a10.58,10.58,0,0,1-3.46-.13,1.27,1.27,0,0,0-1.21,1.58,20.21,20.21,0,0,1,.37,3.38,1.26,1.26,0,0,0,1.58,1.2,13.16,13.16,0,0,0,4.65-2.45,9,9,0,0,1,2.09-1.61,4.58,4.58,0,0,0,1.61-1.05,1.27,1.27,0,0,0-.89-2.13,8.52,8.52,0,0,0-1.52.3,10.45,10.45,0,0,1-2.06-.3c-1.9-.2-3.84-.2-5.75-.21a1.25,1.25,0,0,0,0,2.5Z"/><path class="cls-3" d="M243.07,50.56c3.06-.24,5.57,4.76,7.19,6.88A21.59,21.59,0,0,1,254,63.6c.6,1.79,1.88,6.14.88,7.89l2.16-1.24c.13,0-2.61-2.88-3-3.29-1.37-1.44-2.63-3-3.9-4.53-2.74-3.29-6-7.23-5.73-11.75l-2.5,2.5c1.29.14,3.3,4.48,4.13,5.59a19.35,19.35,0,0,0,5.48,5.07c2.75,1.69,5.27-2.63,2.53-4.32-4.72-2.9-6.2-10.71-12.14-11.34-1.39-.15-2.43,1.27-2.5,2.5-.36,6.54,4.37,12,8.35,16.65,1.87,2.2,8.07,11.28,11.44,6.68s-.85-14-3.74-17.91-6.69-11-12.42-10.54c-3.19.24-3.22,5.24,0,5Z"/><path class="cls-3" d="M143.89,60.89c1.21-5.4,3-12.65,1.76-18.14s-5.38-11.21-9.92-14.5c-5-3.64-11.26-6.09-17-8.23s-13.46-4.1-19.27-.91c-4.44,2.44-2.32,9.25,2.52,9.32,2.24,0,4.88.23,6.9-.93.94-.55,1.59-2.09,2.43-2.48-1.12.52,1.6.38,1.7.39,3.06.13,6.14-.06,9.16.62,2.84.63,4.26,2,6.4,3.84,4,3.34,10.81,5.91,15.84,7.18,6,1.53,12.42,1.72,18.49,3.08L161.67,31c-2.79,1.35-6.12,1.47-9.14,1.9-1.33.2-2.63.48-3.94.72-.89.15-3.27,0-2.36.79-4.94-4.06-12,3-7.07,7.07,4,3.25,7.88,2.62,12.61,1.66,5.13-1,10.15-1.18,14.95-3.51,3.83-1.86,2.87-8.23-1.2-9.14-6.08-1.35-12.45-1.56-18.5-3.07a46.46,46.46,0,0,1-9.65-3.87c-2.65-1.35-4.39-3.6-7-5.06-5.07-2.87-11.75-3.26-17.43-3.07-2.37.08-5.14.11-7.26,1.27a5.37,5.37,0,0,0-2.38,2.07c-.72.84-.46.74.8-.3-.73,0-1.46,0-2.19,0l2.53,9.32c3.19-1.76,10.08,1.29,13.12,2.53,4,1.63,8.25,3.24,11.81,5.7,3.16,2.18,6.25,6.33,6.48,10.19s-.79,8.3-1.63,12.06c-1.41,6.27,8.23,8.94,9.64,2.66Z"/><path class="cls-3" d="M246.65,59c-.68-.11-2.6-3.34-3-4-1.91-3.19-1.31-2.62.69-5.08,3.27-4,2.65-7.71-.85-11.23L241.27,47c4.5-.92,9.46-2.13,14-2.19,5.13-.07,8.88,1.55,13.35,3.81,5.73,2.91,10.79-5.72,5.05-8.63-5.56-2.81-10.46-5-16.85-5.16-6-.19-12.36,1.32-18.26,2.53-3.76.77-4.72,5.83-2.2,8.36.92,1,1.07,1.1.46.42l.5-3.86c-1,2.42-3.51,3.82-4.44,6.44-1,2.88-.34,6,.82,8.74,1.65,3.94,5.66,10.38,10.24,11.17,6.29,1.07,9-8.56,2.66-9.65Z"/><path class="cls-3" d="M193,258.76c-18.71,9.08-24.07,42.86-.24,49,21.5,5.57,27.88-24.05,28-39.23l-24.56,3.32c1.47,8.79.44,17.85-2,26.35-1.94,6.77,2.38,13.23,8.73,15.38,13.85,4.7,27.71-2.1,32-16.14,3.68-12,.25-25.37-7.83-34.75-4.41-5.12-13.16-4.53-17.68,0-5.08,5.07-4.42,12.54,0,17.67,1.88,2.19-.81-1.43,0,.05.37.68.76,1.37,1.15,2.05-.78-1.38-.43-1.32,0,.13.21.76.37,1.6.64,2.33.5,1.39.13.59,0-.45.08.8.14,1.59.16,2.39s-.07,1.58-.06,2.37c0,2.34.45-1.47,0-.15-.23.65-.44,1.47-.6,2.13.36-1.51,1.13-1,.25-.65-.2.36-.41.71-.64,1.05q-.57.84.24-.3c.66-.83.63-.87-.09-.09l1.3-1c-2.1.82,2-.63.45-.06-1.22.46-2-.22.32,0-1.47-.16-.52,0,.37.2a25.41,25.41,0,0,1-3.31-.93l8.73,15.38a89.3,89.3,0,0,0,2-39.65c-1-6.05-8.15-9.79-13.71-9a12.52,12.52,0,0,0-10.84,12.28c0,1.75-.22,3.48-.33,5.23-.17,1.39-.14,1.23.08-.47q-.15,1-.33,2-.27,1.55-.63,3.09c-.31,1.37-.67,2.73-1.1,4.06-.23.72-1.53,3.38-.17.75-.26.56-.54,1.11-.85,1.65-.63.95-.62,1,0,.16-.23-.25,1.79-1.16.73-.64a8.06,8.06,0,0,1,7.3-.11c-1.28-.77-1.3-.72-.06.17.9,1.35,1,1.45.3.29.35.83.62,3.86.72,1.88.08-1.41,0-1.26-.14.44.14-.65.31-1.3.51-1.94.59-2.62-1.11,1.49.35-.81.33-.53,2.81-4,.83-1.68.6-.71,1.32-1.33,1.91-2,1.36-1.65-2.11,1.1.67-.25,6.07-3,7.7-11.6,4.48-17.1-3.63-6.21-11-7.44-17.1-4.49Z"/><path class="cls-3" d="M132.19,70.2c7,11.7,22.57,13.44,35,12.74,13.22-.74,28.71-3.64,36.84-15.32,5.78-8.31,4.35-20.28-5-25.37-5.86-3.21-13.45-3.31-20-3.88-13.68-1.2-29.5-.68-38.15,11.54-3.91,5.52-1,13.91,4.48,17.11,6.26,3.66,13.19,1,17.1-4.49-.48.69-3.09,2.5-1.35,1.59,2-1.07-1.41.27.13-.08.84-.2,1.74-.45,2.57-.68,2.27-.64-.88,0,.61-.14a78.15,78.15,0,0,1,12.43,0c3.38.23,6.79.55,10.14,1.07.93.11.75.1-.53,0l1.06.22,1,.29Q181.08,61,182.9,55.3c-.14.61.27-2.26.79-2,0,0-3.13,2-3.35,2.09-.43.26-2.24.94-.34.22,2.05-.78-.27.05-.72.17-1.51.41-3,.84-4.54,1.16-1,.21-2.05.38-3.08.57-2.41.43,1-.07-.52.06-1.91.17-3.8.35-5.72.41-2.09.07-4.19,0-6.27-.08-.34,0-3.38-.33-1.6-.1s-1.09-.22-1.43-.29c-.93-.2-1.89-.59-2.82-.75-2.07-.35.57-.17.5.27-.14.86-3.56-3.67-.16.22-1.55-1.77,1.41,2.4.14.29-8.27-13.78-29.9-1.22-21.59,12.62Z"/><path class="cls-3" d="M210.26,53.55C216.2,68,229,81.88,245,84.94c6.63,1.27,13.49-1.85,15.38-8.73,1.68-6.11-2.07-14.1-8.73-15.37a19.62,19.62,0,0,1-10.11-5.13,41.55,41.55,0,0,1-4.61-4.8s-1.16-1.75-1.47-2.27c-.21-.35-1.85-3.63-1.08-1.74-2.56-6.24-8.31-10.67-15.38-8.73-5.91,1.62-11.3,9.09-8.73,15.38Z"/><path class="cls-3" d="M229,33.5c-14.13-3.19-28.28-4.24-42.68-5.12-12.87-.79-27.86-1.29-38.62,7-10.58,8.15-17.16,24.39-7.06,35.62,9,10,24.5,8.77,36.72,8.43,7.69-.21,14.6-.18,21.72-3.64,7.38-3.58,13.81-10.69,15.32-18.91,1.22-6.63-1.82-13.48-8.73-15.38-6.07-1.67-14.15,2.06-15.38,8.73-.4,2.19.86,0-.42,1.73,1.13-1.5-1.08,1.08-1.44,1.35,1.37-1-1.65.77-2,.89,1.67-.65-1.67.32-2,.36,2.25-.27-1-.2-1.49-.2-1.21,0-2.41,0-3.61,0-2.76,0-5.53.18-8.29.23s-5.72,0-8.58-.15c-3.74-.15,1.53.54-1.86-.23a14.91,14.91,0,0,1-1.72-.43c-.89-.29-.75-.19.44.3-1.24.39-1-1.33.42.93.09.15,1.58,4.06.54,4.06-.62,0,1.82-3.82.16-.93.18-.32,2.12-3,.53-1.12a20.5,20.5,0,0,1,2.32-2.34c-1.56,1.34-.06.09.84-.31-2.22,1,.71-.17,1.43-.37a30,30,0,0,1,4-.83c-1.9.26,2.59-.11,2.41-.1,1.51-.08,3-.1,4.52-.09,3,0,6.09.15,9.13.33,12.45.73,24.56,1.52,36.78,4.28,6.58,1.49,13.53-2,15.37-8.73C239.43,42.59,235.59,35,229,33.5Z"/><path class="cls-4" d="M208.19,84.06c5.09.41,8.82,6,10.22,10.41.6,1.92,3.56,2.61,4.57.6l.25-.5-4.57-1.93-.25,1L223,95.6c.83-4.6,4.81-7,9.25-8,3.14-.69,1.81-5.51-1.33-4.82-3.44.76-6.08,2.43-8.94,4.41s-3.22,3.82-3.8,7.09c-.46,2.55,3.38,4.73,4.57,1.92a11,11,0,0,0,.75-2.22c.5-2.61-3.22-4.62-4.57-1.93l-.25.5,4.57.6c-2.14-6.81-7.53-13.48-15-14.08-3.21-.26-3.19,4.74,0,5Z"/><path class="cls-4" d="M208.06,83.21c2.07,1.09,4.39,1.65,6.43,2.77,1.64.91,3,2.44,4.83,3,3.72,1.11,7.41-1.47,11-1.91,3.15-.39,3.19-5.4,0-5-3,.37-7.13,2.81-10.09,1.81-1.53-.51-2.83-2.1-4.32-2.81-1.75-.83-3.59-1.26-5.33-2.16-2.85-1.49-5.38,2.82-2.52,4.31Z"/><path class="cls-5" d="M179.82,156.39a27,27,0,0,1-.56-3.76,12.6,12.6,0,0,1,2.11-6.56c2.28-3.66,8.58-5.27,7.95-10.51l-5,5c6.86-.65,13.13,1.81,20-.52,5.6-1.89,4.17-9.15-1.33-9.82-3.54-.43-7,.21-10.5.5-6.48.54-6.36,9.31,0,10,3.77.42,6.61-.55,10.08-1.84a12.69,12.69,0,0,0,2.95-1.17c1.55-1.05,1.82-2.58,3-3.78-2.31,2.4,2-.53,2.43-.86,1-.71,1.69-1.67,2.63-2.36,2.42-1.81,5-2.5,6.59-5.3H211.5a16.74,16.74,0,0,1,1.16,3.48c.33.82.7,1.64,1.1,2.43l-.15-1.33c-.52,3.35-3.25,7.28-5.1,10-2,3-4.08,6.05-6.18,9-1.53,2.17-2.86,4.81-5.51,5.72a5.15,5.15,0,0,0-3.67,4.83,8.38,8.38,0,0,0,.35,2.33l3.49-6.16a7,7,0,0,1,5.19,3.79c.12-.51.26-1,.42-1.53.37-.82.57-1.75.88-2.6.72-2,1.61-3.94,2.32-5.94a20.42,20.42,0,0,1,2.17-5.11c1.43-2.09,4-6,6.2-7.13,5.72-3,.67-11.6-5-8.64-4,2.09-7.69,7.36-10.13,11.13-1.91,3-2.7,6.7-4,10-1.21,3.07-2.93,6.65-2.87,10,.07,3.85,3.53,7.24,7.51,5.68,2.41-.95,4.42-3.37,3.49-6.15v.33l-3.67,4.82c8.66-3,13.41-12.85,18.18-20.07,2.33-3.53,5.08-8.3,5.74-12.54.52-3.4-1.49-8.57-3.27-11.4a5,5,0,0,0-8.63,0c-.55,1-3.24,1.84-4.21,2.59-1.84,1.43-3.65,2.44-5.5,3.78a8.13,8.13,0,0,0-2,2.19c-1.6,2.36-.68.58.13.3-2.73.94-4.44,1.82-7.42,1.49v10c3.54-.29,7-.93,10.5-.5l-1.33-9.82c-5.87,2-11.43-.4-17.33.16-2.44.22-5.35,2.11-5,5-.2-1.63,1.35-1.72-.73-.65a14.45,14.45,0,0,0-2.34,1.73,19.36,19.36,0,0,0-3.52,4.38,23.33,23.33,0,0,0-3.43,10.58c-.41,7.07,2.76,14.25,10.52,14.79,6.42.45,6.39-9.56,0-10Z"/><path class="cls-5" d="M212.82,122.47c2.45-.2,3-2.14,4-4a8.37,8.37,0,0,1,2.21-2.27,5.88,5.88,0,0,0,1.79-3.1c.33-1.34-1.6-2.25-2.29-1a8.81,8.81,0,0,0-.79,5.8c.06.28.4,1.7.64,1.81l.88-.62a1.73,1.73,0,0,1-.35-.41c-.12-.3-.4-.61-.55-.91-.75-1.43-2.91-.17-2.16,1.26s2.88,3.89,4.39,1.79c.61-.84.21-1.75-.12-2.62a6.13,6.13,0,0,1,.22-4.84l-2.28-1c-.48,1.91-2.08,2.39-3.17,3.86-.63.84-1.28,3.62-2.46,3.72-1.59.14-1.61,2.64,0,2.5Z"/><path class="cls-5" d="M178.6,134.51c.08-.07.23-.12,0-.07a2.46,2.46,0,0,0-.38.14,2,2,0,0,0-.82.59,1.28,1.28,0,0,0,.89,2.14,2.17,2.17,0,0,0,1.83-.51,7.46,7.46,0,0,0,.75-1.11,1.25,1.25,0,0,0-2.16-1.26,2.68,2.68,0,0,0-.41.69c0,.06.1-.12.15-.16s.28-.16.18-.11.18,0,0,0-.24,0-.36,0l.88,2.13c.15-.18.09-.11,0-.06a2.29,2.29,0,0,1,.28-.08,2.79,2.79,0,0,0,.91-.53,1.25,1.25,0,1,0-1.77-1.76Z"/><path class="cls-5" d="M202.9,163.85a11.13,11.13,0,0,1,2.71-2.21,1.29,1.29,0,0,0,.45-1.71,1.25,1.25,0,0,0-1.71-.45,14.94,14.94,0,0,0-3.61,3.11,1.25,1.25,0,1,0,2.16,1.26Z"/><path class="cls-5" d="M222.48,131.14a1.25,1.25,0,0,0,0-2.5,1.25,1.25,0,0,0,0,2.5Z"/><path class="cls-4" d="M164.19,169.93c-.67,10.44,16.42,13.51,23.84,14.26,3.47.35,8.79.82,11-2.56,1.06-1.63.91-3.17.78-5-.27-3.62-1.27-8.13,0-11.63h-2.41c.58,1.75.24,3.52.15,5.3-.09,1.6,2.41,1.6,2.5,0,.1-2,.41-4-.24-6a1.26,1.26,0,0,0-2.41,0c-1.11,3.07-.65,6.75-.48,10,.14,2.74,1.91,5.28-1.77,7.18-1.3.67-3.85.37-5.29.3-6.13-.3-23.74-3.31-23.19-11.88.1-1.61-2.4-1.6-2.5,0Z"/><path class="cls-4" d="M167.65,170.45A46.9,46.9,0,0,1,175,158.17c2.47-3,4.71-5.07,6.48-8.73a31.11,31.11,0,0,0,2.91-9.21c.22-1.58-.28-4.41.3-5.74,1-2.39,3.9-1.33,6-1.18,1.61.11,1.6-2.39,0-2.5-2.31-.17-6.91-1.57-8.5,1-.65,1,.06,3.14.06,4.2a25.42,25.42,0,0,1-1.54,8.81c-3.42,9.44-12.08,15.45-15.47,25-.54,1.51,1.87,2.17,2.41.66Z"/><path class="cls-4" d="M190.32,133.31c3.59-.19,8.35-.91,11.38-3l-1.88-1.08c.34,12.35-1.83,24.24-2.44,36.5-.08,1.61,2.42,1.61,2.5,0,.61-12.26,2.78-24.14,2.44-36.5a1.26,1.26,0,0,0-1.88-1.08c-2.5,1.72-7.16,2.49-10.12,2.65-1.6.08-1.61,2.58,0,2.5Z"/><path class="cls-4" d="M185.08,143.65l-.08.5,13.71-1.8c-.61-.82-.4-2.35-.71-3.47a13.18,13.18,0,0,0-3.13-5.21l-5.3,12.8c2.94-.15,5.19-.15,8-1.52l-11-4.48a52.86,52.86,0,0,1,.1,11.73c-.28,3.58-2.37,6.69-2.5,10.4-.1,3.08.37,6.09.15,9.21-.25,3.6.2,6.25,2.51,9.13l5.31-12.8c-3.9.27-7.67-2.59-11.74-2.77l3.78,1c-3.93-2.48-8.86-3.9-12.59-.09-2.52,2.57-2.6,6-1.17,9.08.3.69.27.58-.1-.33l9.23-9.23c.06,0-.87-.81-.9-.85l1.93,7.29q-2.61,3.45.31.76a5.22,5.22,0,0,0,1.55-1.59c.69-.89,2.86-4.77.56-1.87-2.67,3.37,1.8-1,2.32-1.62a23.36,23.36,0,0,0,2.63-4c3.18-5.55,8.94-10.55,10.09-17.09,1.66-9.44-12.8-13.49-14.47-4-.38,2.18-1.73,3.18-3,5s-2.33,3.69-3.68,5.48c-1.19,1.56-1.83,3.61-3.12,5-1.76,1.95-3.14,2.65-4.23,5.29-.77,1.87,1.17-1.74,1.11-1.78-.21-.15-2.16,1.75-2.43,2a9.35,9.35,0,0,0-2.27,7.35c.55,4.64,5.58,7.6,9.58,9,5.49,2,10.68-4,9.23-9.23a22.36,22.36,0,0,0-1.42-3.25l-1.17,9.09.22-.22L177,178.87l.94.1-3.78-1c5.3,2.41,11.71,5.61,17.87,5.19,6.85-.47,9.41-7.7,5.3-12.8,2.89,3.59,1.67,4.2,2,.64a36.89,36.89,0,0,0,.23-3.79c0-1.25-.61-2.85-.53-4.05.12-1.71,1.31-3.41,1.78-5,1-3.63.59-7.11.58-10.79s.22-7.12-.43-10.83c-.9-5.09-7.09-6.44-11-4.48l-.86.43,3.78-1c-1.11.07-2.19,0-3.3.07a7.61,7.61,0,0,0-5.31,12.81c-1.63-1.84-.89-1.12-.33,1.4a10.66,10.66,0,0,0,1.83,4.25c3.36,4.5,12.53,5.29,13.71-1.8l.08-.5c1.57-9.44-12.89-13.5-14.47-4Z"/><path class="cls-4" d="M197.34,141.46a10.48,10.48,0,0,0,4-4.05,5.17,5.17,0,0,0,.51-3.85,5.11,5.11,0,0,0-2.3-3,5,5,0,0,0-3.85-.5,5.21,5.21,0,0,0-3,2.3,9.65,9.65,0,0,1-.59.88l.78-1a5.6,5.6,0,0,1-.91.91l1-.78a5.19,5.19,0,0,1-.75.46,5,5,0,0,0,1.2,9.14,5.43,5.43,0,0,0,3.85-.5Z"/><path class="cls-4" d="M114.64,34.73c-1.93-5.79-6.69-15.63-14.46-13.17-8.09,2.57-5.71,13.6-5,19.8.58,5.18,2.48,9.53,4,14.45,1,3.37,2.5,6.09,6.64,5.62,4.55-.51,8.16-5,12.22-6.81,5.27-2.4,9.8-6.08,15-8.58a5,5,0,0,0,2.29-5.65c-2.64-7.43-9.72-13.28-16.89-16.2-7.77-3.17-15.89-6.29-23.13-.5-5,4,2.09,11.05,7.07,7.07,2.68-2.14,10.57,1.82,13.23,3.06,3.73,1.73,8.64,5.18,10.08,9.23l2.3-5.64c-4.46,2.12-8.31,5.2-12.67,7.5-2.06,1.08-4.36,1.74-6.33,3-.81.51-3.51,3.65-4.46,3.54l4.32,2.48c-.84-1.14-1.86-5.56-2.52-7.54a52,52,0,0,1-1.89-11.66c-.08-.9,0-1.85-.15-2.74a5.05,5.05,0,0,1,.19-1.69q-4.33-.29-2.77.93c0,.46,1.7,2.4,2,2.94A23.25,23.25,0,0,1,105,37.39c2,6.07,11.68,3.47,9.64-2.66Z"/><path class="cls-4" d="M101.48,35.22c-.53,5.33-2.07,16,6.42,15.86,2.34,0,4.92-1.75,6.45-2.29,1.34-.48,4.38-1,6.31-1.67,2.36-.79,4.89-1.89,6.23-4.13a7.21,7.21,0,0,0-1-8.33C122.57,31,117,31,112.48,31.06c-6.43,0-6.44,10,0,10,1,0,2,0,3,0a24.61,24.61,0,0,0,3.08.45.5.5,0,0,1-.08-.12q-1.11-1.77.27-4.14c-.1,0,1.22-.09-.39.09a32.18,32.18,0,0,0-3.63,1c-2.09.53-5.69,1.07-7.26,2.66-.45.46-2.2-.56,1.42.91,3.2,1.29,1.51,1.1,1.84-.18a47.42,47.42,0,0,0,.74-6.54c.27-2.71-2.49-5-5-5-2.92,0-4.73,2.33-5,5Z"/><path class="cls-4" d="M260.82,46.39l3,1.86.5,3.85c-.71,1-.72,1.15,0,.41.18,0,.12,0-.17,0-1.75-.19-2.44-.78-2.08-1.76.36-1.33.91-1.85,1.66-1.55-.07-.07-2.25-.15-1.91-.37a1.26,1.26,0,0,1,.18.66c-.51,1.4-.56,1.71-.14.94.28.7-1.05.27.47,0,.28-.05,2-.49,2.69-.53.35,0,1.85,0,1.69,0s1.57.3.93.16c.51.11.58.1.36.1-1.05,0,.68-1.62-1.39.15-.4.35-1.64,1.81-2.27,1.77.37,0-1-1.51-1.21-1.92a13.94,13.94,0,0,0-2-3.38c-.52-.55-3.61-3.35-2-1-3.58-5.31-12.24-.31-8.63,5a11.51,11.51,0,0,0,2.9,2.64,7,7,0,0,1,1.34,2.12,13,13,0,0,0,6.35,5.66c5.59,2.25,11.5-1.74,14.76-6.22a9.13,9.13,0,0,0-1.08-12.21C272,40.42,268,39.7,264.39,40c-7.21.51-16.08,6.38-10.89,14.45,5.33,8.31,21,5.25,18.13-6-1.53-5.94-8-7.41-12.82-4.2-5.59,3.75-5.58,11.37,2,12.17,2.7.29,5-2.5,5-5,0-2.94-2.33-4.72-5-5Z"/><path class="cls-4" d="M94.73,21.39v1.5a1.27,1.27,0,0,0,2.14.88c.19-.22.61-1.08.84-1.19s1.23.27,1.51.32c1.47.24,3-.16,4.43.2s2.23-2,.67-2.42a11,11,0,0,0-3-.23,14.11,14.11,0,0,1-2.9-.27c-1.82-.29-2.32.6-3.35,1.83l2.13.88v-1.5a1.25,1.25,0,0,0-2.5,0Z"/><path class="cls-4" d="M98.78,57.06c-.42,1.73.36,3.19.26,4.9a8.28,8.28,0,0,1-2.27,5.13l2,1.51c.59-1.11,1.84-1.69,2.54-2.78a18.87,18.87,0,0,0,1.67-4.26l-2.46-.34c.07.87.08,1.72.09,2.59a1.26,1.26,0,0,0,2.33.63,5.15,5.15,0,0,1,2.25-2c1.47-.6.82-3-.67-2.41a8.05,8.05,0,0,0-3.74,3.16l2.33.63c0-.87,0-1.72-.09-2.59a1.25,1.25,0,0,0-2.45-.33c-.48,1.36-.7,2.93-1.68,4.06-.76.89-1.7,1.3-2.28,2.39a1.26,1.26,0,0,0,2,1.52,10.69,10.69,0,0,0,2.67-5,6.43,6.43,0,0,0,.31-2.65c-.12-1.16-.6-2.33-.32-3.5.38-1.56-2-2.23-2.41-.66Z"/><path class="cls-4" d="M273.57,43.56c1.24.06,2.77,2,2.37,3.25-.5,1.53,1.91,2.19,2.41.66.93-2.81-2-6.27-4.78-6.41-1.61-.09-1.61,2.41,0,2.5Z"/><path class="cls-4" d="M257.27,41.14c-1.83.78-3.92,1-5.67,2a21.59,21.59,0,0,1-5.2,2.46,1.27,1.27,0,0,0-.55,2.09,42.4,42.4,0,0,0,3.6,3.06A26.58,26.58,0,0,1,253.26,55c2.29,3.2,6.91,6.25,7.52,10.45l2.41-.66c-.08-.23-.76-2.31-1-2.13l-1.52-.2c.74.87,0,1.72,1.19,2.37,2,1.12,4.25-1.44,6.16-1.84a1.25,1.25,0,0,0-.33-2.45c-1.14,0-4.18.26-4.75.12-1.57-.35-2.24,2.06-.67,2.42,2,.45,3.4,0,5.42,0l-.33-2.46c-.41.09-5.06,1.88-4.05,2.32a19.55,19.55,0,0,0-.87-2.2,1.25,1.25,0,0,0-1.52-.2c-2,1.3-.71,3.14-.1,4.95a1.25,1.25,0,0,0,2.41-.66c-.68-4.69-5.41-7.39-7.77-11.05a17.17,17.17,0,0,0-3.47-4c-1.25-1.16-3.26-2.6-4.33-3.84L247.07,48a18.91,18.91,0,0,0,4.9-2.09c2.06-1.17,4.37-1.69,6.56-2.62,1.48-.62.2-2.78-1.26-2.16Z"/><path class="cls-4" d="M249.23,48.72a1.25,1.25,0,0,0,0-2.5,1.25,1.25,0,0,0,0,2.5Z"/><path class="cls-3" d="M176.52,30.69c.93-2.12,8.46-2.06,10.35-2.13a83,83,0,0,1,15.27.87c4.86.7,10.32.92,14.55,3.64,1.45.94,2.57,2.5,4.48,1.73a1.3,1.3,0,0,0,.87-1.54c-.44-2.42-6-3.08-7.66-3.29-4-.49-7.94-.37-11.9-1a71.54,71.54,0,0,0-10.41-1.3,1.25,1.25,0,0,0,0,2.5c5.14.05,10.13,1.5,15.25,1.86,2,.13,12,.07,12.31,1.89l.87-1.54c-.29.12-4.12-2.49-4.73-2.77A30.22,30.22,0,0,0,208,27.83a117.62,117.62,0,0,0-15.18-1.76c-3.57-.09-16.48-1.2-18.48,3.36-.64,1.45,1.52,2.73,2.16,1.26Z"/><path class="cls-6" d="M176.37,192.51c3.63,1.55,6.49,1.51,10.37,1,3.26-.46,6.3-1,9.59-.35a19.16,19.16,0,0,0,5.86.26l-.88-2.14c-2.21,2.49-7.21.09-10.17.1-3.78,0-7.09,1.2-10.93.21a1.25,1.25,0,0,0-.66,2.41c5,1.28,9.73-.4,14.72.24,3,.38,6.56,1.34,8.81-1.19.64-.72.27-2.26-.89-2.13-3.81.41-7.33-.9-11.17-.51-4.63.46-8.9,1.91-13.39,0-1.46-.63-2.73,1.53-1.26,2.16Z"/><path class="cls-6" d="M202.07,192.37a1.46,1.46,0,0,0,1.16-.63c.23-.33.34-.73.56-1.06.46-.66-.62-1.29-1.08-.63-.14.21-.38,1-.64,1.07-.8,0-.81,1.3,0,1.25Z"/><path class="cls-6" d="M192.07,191.18a21.1,21.1,0,0,1,2.75.13c.79.09.79-1.16,0-1.25a21.1,21.1,0,0,0-2.75-.13.63.63,0,0,0,0,1.25Z"/><path class="cls-6" d="M177.51,191.24c-1.21-1.46-1.56-3.4-2.65-4.94-.47-.65-1.55,0-1.08.63,1.15,1.63,1.56,3.64,2.84,5.19.52.62,1.4-.26.89-.88Z"/><path class="cls-5" d="M173.5,182.06a10.58,10.58,0,0,0,.84,3.27,6.16,6.16,0,0,0,.79,1.17,5,5,0,0,1,.91,1.88,1,1,0,0,0,1.93,0,9.61,9.61,0,0,1,1.95-2.9c.55-.67,1.06-1.57.37-2.33-1.1-1.24-3.35-.94-4.72-1.58-1.16-.55-2.17,1.18-1,1.72a9.41,9.41,0,0,0,1.94.58,13.78,13.78,0,0,0,2.22.6l.12.06c.27.17.2-.05-.21-.65,0,0-.26.35-.29.38a10.52,10.52,0,0,0-.85.92,8.45,8.45,0,0,0-1.45,2.67H178a6.93,6.93,0,0,0-1.16-2.49,6.07,6.07,0,0,1-1.31-3.3c-.16-1.26-2.16-1.28-2,0Z"/><path class="cls-5" d="M180,185.06c4.8.59,9.6,1.47,14.48,1.39a7.12,7.12,0,0,0,6.58-3.7l-1.83-.24a9.43,9.43,0,0,0,1.16,2.49l.36-1.37c-1.74,1-3.08,2.27-4.73,3.31-1.2.76-.64.33-2,.53-4,.59-8.73.44-12.5,1.62l1.27,1a15.17,15.17,0,0,0-.23-5.08c-.3-1.25-2.22-.72-1.93.53a12.92,12.92,0,0,1,.16,4.55,1,1,0,0,0,1.26,1c2.08-.65,5.22-.56,7.35-.85,1.79-.24,3.59-.39,5.32-.5,2.68-.17,4.56-2.93,7-4.31a1,1,0,0,0,.36-1.37,15.41,15.41,0,0,1-1-2,1,1,0,0,0-1.83-.24c-3,5.12-14.65,1.89-19.33,1.32-1.27-.16-1.26,1.84,0,2Z"/><path class="cls-5" d="M175.8,185.58a2.79,2.79,0,0,0,2,.07,1,1,0,0,0,.7-1.23,1,1,0,0,0-1.23-.7,1.15,1.15,0,0,1-1-.07,1,1,0,0,0-.53,1.93Z"/><path class="cls-5" d="M196.25,185.51c-1.78.83-5.45.57-7.25.23a21.42,21.42,0,0,0-2.37-.43c-.9-.07-2.15.31-2.92-.34a1,1,0,0,0-1.67.45,11.11,11.11,0,0,0-.22,2.76,1,1,0,0,0,1,1,55.21,55.21,0,0,1,7.93.13c1.28.16,1.26-1.84,0-2a55.21,55.21,0,0,0-7.93-.13l1,1A8.79,8.79,0,0,1,184,186l-1.67.44a3.69,3.69,0,0,0,2.38.93c1.71.15,3.35.34,5.06.58,2.2.3,5.46.29,7.52-.67,1.16-.54.15-2.27-1-1.72Z"/><path class="cls-1" d="M200.78,186.12c-1,1.46-2.79,2.16-4,3.45a.64.64,0,0,0,0,.89,2.77,2.77,0,0,0,2.09.54,12.14,12.14,0,0,0,2.7-.3,1.7,1.7,0,0,0,1.09-1.26c.26-.93-.23-1.54-.27-2.42a.63.63,0,0,0-1.23-.17c-.43,1.22-1.89,1.61-3,1.9a.63.63,0,0,0,0,1.2,5.82,5.82,0,0,0,4.36,0,.63.63,0,0,0,0-1.08,1.92,1.92,0,0,0-.57-.24c-.21-.05-.49-.17-.5,0a.63.63,0,0,0-1.25,0c0,1.19,1,.83,1.69,1.29v-1.08a4.81,4.81,0,0,1-3.4-.1V190c1.63-.41,3.29-1.07,3.9-2.77l-1.23-.16c0,.79.92,2.23-.21,2.54a10.41,10.41,0,0,1-1.58.12c-.51.07-1.24.25-1.68-.11v.89c1.28-1.39,3.07-2.13,4.18-3.71.46-.66-.62-1.29-1.08-.63Z"/><path class="cls-2" d="M228.27,131.18c-1.12-.05-2.21-.9-3.35-.8-.87.08-1.13,1-1.44,1.69s.75,1.37,1.08.64a5,5,0,0,1,.36-.81c.23-.33.41-.21.77-.12a11.22,11.22,0,0,0,2.58.65c.81,0,.81-1.21,0-1.25Z"/><path class="cls-2" d="M162.15,206.8c1.91.51,3.28,2.84,4.91,3.92a25.17,25.17,0,0,0,6.59,2.66A52.24,52.24,0,0,0,189.6,216c8.75-.16,15.84-4.11,22-10.08,2.31-2.25-1.23-5.78-3.54-3.54-6.37,6.19-13.59,9.36-22.61,8.49-4.61-.44-10.29-1.55-14.43-3.7-2.86-1.47-4.32-4.32-7.53-5.18s-4.44,4-1.33,4.82Z"/><path class="cls-2" d="M163.86,202.31a2.22,2.22,0,0,0,0-.45.27.27,0,0,1-.16.1s0,0,.08,0,.36.25.47.37a9.31,9.31,0,0,1,1.37,2.18c.39.7,1.47.07,1.08-.63-.58-1.06-1.15-2.39-2.27-3a1.34,1.34,0,0,0-1.26-.08,1.44,1.44,0,0,0-.55,1.47c.07.79,1.32.8,1.25,0Z"/><path class="cls-2" d="M207.47,205.74c7.67,7.91,18.91,4.51,27.11-.63,9.07-5.68,15.1-14.74,22-22.62,2.11-2.41-1.42-6-3.54-3.53-4.94,5.63-9.55,11.46-14.75,16.91-6.15,6.45-19.54,14.33-27.3,6.34-2.24-2.32-5.78,1.22-3.53,3.53Z"/><path class="cls-2" d="M254.36,179.47a2.52,2.52,0,0,1,1.27-2.12l-.92-.38c.23.57.36,1.18.59,1.75l.6-.79a1.15,1.15,0,0,1-.52-.25c-.67-.44-1.3.64-.63,1.08a2.3,2.3,0,0,0,1.15.42.62.62,0,0,0,.6-.79c-.23-.57-.35-1.18-.58-1.75a.63.63,0,0,0-.92-.37,3.75,3.75,0,0,0-1.89,3.2c0,.8,1.29.81,1.25,0Z"/><path class="cls-2" d="M142.48,303.89c.47,5.61,6.7,8.06,11.63,8.58,7.55.8,11.81-4.6,15.53-10.32,1.76-2.7-2.56-5.21-4.32-2.52-2.33,3.58-4.76,7.79-9.54,8-2.09.07-8.08-1-8.3-3.7-.26-3.18-5.26-3.21-5,0Z"/><path class="cls-2" d="M199.32,313.15c2.15,4.78,3,7.83,8.81,8.65a22.65,22.65,0,0,0,15.45-3.25c2.78-1.62.27-5.94-2.53-4.32-3.42,2-6.55,3.12-10.57,2.83-2.49-.18-4.34-.54-5.52-2.9-.54-1.09-.81-2.4-1.32-3.53-1.32-2.93-5.63-.39-4.32,2.52Z"/><path class="cls-2" d="M216.07,320.55c2.86,7.37,13.13,14.72,21,11.33,2.95-1.27.4-5.57-2.53-4.32-4.48,1.93-12.1-4.34-13.66-8.33-1.15-3-6-1.68-4.82,1.32Z"/><path class="cls-2" d="M111.55,298.82c7.1,8.86,22.59,12,32,5.73,2.67-1.77.17-6.1-2.53-4.32-7.57,5-20.26,2.17-26-4.94-2-2.51-5.53,1-3.53,3.53Z"/><path class="cls-2" d="M111.38,296.46c-1.5,1.83-5.87,1.51-8,1.4a28.72,28.72,0,0,1-12.12-3.46c-2.83-1.55-5.36,2.77-2.53,4.32a33.78,33.78,0,0,0,15.53,4.16c3.37,0,8.33,0,10.67-2.89,2-2.47-1.5-6-3.54-3.53Z"/><path class="cls-2" d="M185.15,305.13c-.17,0,.36.45.56.73.33.45.62.94.95,1.39a8.63,8.63,0,0,0,2.72,2.59c2.8,1.54,6.59,1.05,9.6.63,3.17-.44,1.82-5.26-1.33-4.82-2.6.36-5.52.72-7.16-1.62-1.09-1.55-2-3.24-4-3.72-3.13-.74-4.46,4.08-1.33,4.82Z"/><path class="cls-2" d="M218,210.22c6.33-.05,13-.88,17.12,4.93,3.35,4.72,5.58,10.91,7.11,16.42,1.88,6.75,1.36,12.67-1.06,19.19-2,5.39-3.91,11.57-8.27,15.53-2.39,2.16,1.16,5.69,3.54,3.53,5.14-4.66,7.61-12.18,9.87-18.58a34.1,34.1,0,0,0,.25-22.67c-2-6.27-4.63-13.87-9.31-18.7-5.14-5.3-12.42-4.7-19.25-4.65-3.21,0-3.22,5,0,5Z"/><path class="cls-2" d="M252.65,182.89c-.33,3.43,1.63,7.18,2.2,10.54s1.45,6.92,2,10.43a84.38,84.38,0,0,1-.63,24.83,42.89,42.89,0,0,1-7.66,19.21c-4,5.86-6.85,12.45-12.46,17-2.49,2.05,1.07,5.57,3.54,3.54,5.54-4.55,8.6-11,12.44-16.86,4.36-6.69,7.42-12,8.72-20,1.35-8.29,2.27-16.67,1.4-25.06-.37-3.54-1-7.05-1.69-10.53-.43-2.17-.7-4.35-1.1-6.51s-1.92-4.46-1.71-6.63c.31-3.2-4.7-3.18-5,0Z"/><path class="cls-2" d="M237.79,267.6a17.49,17.49,0,0,0-1.77,1.88,6.93,6.93,0,0,1-.93.75c-.56.37-.64.27-1.16-.16s-1.5-1.09-1.54-1.64c-.06-.79,1.53-1.25,2.08-1.54s.07-1.46-.64-1.08c-.88.47-2.52,1-2.75,2.11s.85,2.07,1.54,2.68,1.61,1.57,2.6,1.1c1.37-.67,2-2.16,3.2-3,.64-.47,0-1.56-.63-1.08Z"/><path class="cls-2" d="M240.51,203.36c2.75,3.33,1.47,11.17,2.37,15.17,1,4.28,4.39,10.82,2.46,15.24-1.64,3.74-1.07,8,2.69,10.26,3.16,1.9,8.64,1,10.26-2.69,3.84-8.76,1.61-16.79-.66-25.61-2.14-8.34-.59-15.82-6.51-23-6.15-7.45-16.71,3.22-10.61,10.61Z"/><path class="cls-2" d="M259.82,216.81a85.13,85.13,0,0,0-1-12.77c-.93-4.72-2.14-9.15-2.47-14-.44-6.39-10.45-6.44-10,0,.62,9.07,3.11,17.64,3.5,26.75.27,6.41,10.27,6.44,10,0Z"/><path class="cls-2" d="M249.07,217.56c1.32.05,1,.82.23-.82a15.77,15.77,0,0,1-.65-1.86,51.65,51.65,0,0,0-1.92-5.53,13.21,13.21,0,0,0-4.12-5.54,11.22,11.22,0,0,0-1.92-1.2c-5.06-2.55,2.84,2.43-.34,5,5-4-2.1-11.07-7.07-7.07-3.23,2.6-3.57,7.25.06,9.7,2.5,1.69,3.68,1.18,4.8,4.33,2,5.74,3.5,12.69,10.93,13,6.43.27,6.42-9.73,0-10Z"/><path class="cls-2" d="M245.82,238.56c0,.78,0,1.55-.08,2.33,0,.31-.1.75,0,.19-.07.4-.17.78-.27,1.17,0,.09-.33.95-.15.52s-.23.42-.28.5a10.47,10.47,0,0,1-1,1.5c-1.71,2.08-2,5,0,7.07,1.77,1.77,5.35,2.1,7.07,0a19.58,19.58,0,0,0,4.72-13.28c0-6.44-10-6.45-10,0Z"/><path class="cls-2" d="M146.23,256.89A76.07,76.07,0,0,0,194.65,259l-1.22-2.09c-4.48,3.81-9.59,6.94-13.61,11.32-3.15,3.44-4.23,8.2-7,11.94-1,1.3,1.22,2.55,2.16,1.26,2.89-4,4-8.85,7.56-12.38,3.88-3.87,8.46-6.84,12.62-10.37,1-.83-.07-2.42-1.22-2.09a73.82,73.82,0,0,1-47.08-2.12c-1.5-.6-2.15,1.82-.67,2.41Z"/><path class="cls-2" d="M152.12,259.81c1.52,1.53,3.43,2.52,5,4s3.46,2.74,5.19,4.16c4,3.28,7,8.22,10,12.36.93,1.3,3.1.05,2.16-1.26a102.06,102.06,0,0,0-9.2-11.79c-1.76-1.83-4-3-5.91-4.77-1.7-1.59-3.93-2.91-5.52-4.5a1.25,1.25,0,0,0-1.77,1.76Z"/><path class="cls-2" d="M177.88,271.62c-.5-4.19-2.8-6.58-5.84-9.22l-2.21,8.35c1.07-.18,2.73.14,4,.06,1.47-.1,3.11-.59,4.31-.57,6.44.13,6.44-9.87,0-10-1.71,0-3.58.54-5,.59a43.12,43.12,0,0,0-6,.28c-3.62.63-4.9,6-2.2,8.36.73.63,1.49,1.23,2.19,1.89l.94,1c-.23.1-.22-.7-.22-.72.32,2.68,2.07,5,5,5,2.45,0,5.32-2.3,5-5Z"/><path class="cls-2" d="M176,278.66c1.14-6.25,7.07-12.12,12.72-14.7,2.46-1.11,1-4.49-1.26-4.65-4.14-.31-8.1,1.74-12.32,1.81-5.23.1-10.43-.24-15.23-2.47L158,263.22c2.84.55,4.22,4.54,6.66,6.12,2.7,1.76,5.21-2.57,2.52-4.32-3.2-2.08-3.63-5.81-7.85-6.62-2.58-.5-4.66,3.29-1.92,4.56a35.28,35.28,0,0,0,14.4,3.12,45.1,45.1,0,0,0,7.88-.28c2.6-.38,5.16-1.69,7.79-1.49l-1.26-4.66c-7,3.16-13.62,10-15,17.68-.58,3.14,4.24,4.49,4.82,1.33Z"/><path class="cls-7" d="M148.59,207.86c-8.2,0-17.22-4.34-26.86-12.93-14.41-12.85-24.56-34.27-30.54-50a245.45,245.45,0,0,1-9.61-31.29c-.13-.38-3.54-10.74,3-25.65,10.91-24.79,40.83-42.18,64-52.41S206,17.74,237,39.62a91.63,91.63,0,0,1,27.29,31c.27.47,28.78,51-2.29,96.25-18,26.21-31.69,39.21-41.85,39.76-4,.21-7.5-1.5-10.69-5.22a.49.49,0,0,1,.05-.7.51.51,0,0,1,.71,0c3,3.52,6.15,5.07,9.88,4.87,9.83-.53,23.26-13.39,41.07-39.33,30.71-44.71,2.52-94.71,2.23-95.21a90.5,90.5,0,0,0-27-30.65C219.49,28.5,190.63,18.15,149,36.51c-23,10.16-52.71,27.41-63.5,51.9-6.41,14.56-3,24.88-3,25a247.58,247.58,0,0,0,9.59,31.22c5.94,15.6,16,36.86,30.27,49.57,10.31,9.2,19.86,13.43,28.37,12.57a19.06,19.06,0,0,0,12.65-6.49.5.5,0,0,1,.8.59,19.7,19.7,0,0,1-13.35,6.9C150.12,207.82,149.36,207.86,148.59,207.86Z"/><path class="cls-7" d="M188.82,211.31c-16.6,0-19.7-3.94-28.9-15.63l-.25-.31a.51.51,0,0,1,.09-.71.5.5,0,0,1,.7.09l.25.31c9,11.4,12,15.25,28.11,15.25s25.47-16.34,25.56-16.5a.5.5,0,1,1,.87.49C215.16,194.47,205.42,211.31,188.82,211.31Z"/><path class="cls-7" d="M187.57,78.31a.49.49,0,0,1-.49-.41c-.36-1.75-3.8-4.36-5.46-5.46-2.27,1.83-8.29,2.09-17.93.77-7.44-1-14.42-2.65-14.49-2.67a.5.5,0,0,1,.23-1c7.64,1.79,28.24,5.62,31.77,1.89a.53.53,0,0,1,.64-.08c.58.37,5.69,3.69,6.22,6.33a.51.51,0,0,1-.4.59Z"/><path class="cls-7" d="M247.82,81.56h0c-13.43-.26-15.38-4.63-15.46-4.81a.5.5,0,0,1,.93-.39c0,.07,2,4,14.55,4.2a.5.5,0,0,1,0,1Z"/><path class="cls-7" d="M200.18,165.89a.49.49,0,0,1-.41-.21.51.51,0,0,1,.11-.7c.62-.46,1.29-.87,2-1.3a25,25,0,0,0,2.87-2c4.61-3.92,17.71-28.89,19.24-31.83-1.18-1.61-7-10.36-3.14-20.45a.5.5,0,1,1,.93.36c-4.08,10.59,3.11,19.64,3.19,19.73a.52.52,0,0,1,0,.55c-.59,1.14-14.6,28.13-19.62,32.4a24.09,24.09,0,0,1-3,2.08c-.68.43-1.32.83-1.92,1.27A.53.53,0,0,1,200.18,165.89Z"/><path class="cls-7" d="M183.39,195.54a10.14,10.14,0,0,1-6.71-2.15c-4.19-3.48-3.64-9.86-3.61-10.13a.5.5,0,0,1,0-.12,10.42,10.42,0,0,0-.09-2.35.49.49,0,0,1,.45-.54.5.5,0,0,1,.54.45,9.89,9.89,0,0,1,.07,2.7c0,.61-.34,6.24,3.26,9.23,2.62,2.17,6.69,2.49,12.11,1a.33.33,0,0,1,.17,0l6.75.5c.14,0,4.61,1.17,6.35-1,1.42-1.8.7-5.51-2.07-10.74-.33-.6-.63-1.18-.91-1.74a.49.49,0,0,1,.22-.67.5.5,0,0,1,.67.22c.28.55.58,1.12.9,1.72,3,5.69,3.68,9.67,2,11.83-2.15,2.71-7.08,1.45-7.29,1.39l-6.57-.48A23.18,23.18,0,0,1,183.39,195.54Z"/><path class="cls-7" d="M170.21,161a.5.5,0,0,1-.49-.4l-.14-.74c-2.24-11.7,1.84-19.18,5.65-23.4a25.25,25.25,0,0,1,8.91-6.41.54.54,0,0,1,.25,0c20.31,3.11,35.63-19.45,36.48-20.74a.52.52,0,0,1,.45-.26.5.5,0,0,1,.5.5.46.46,0,0,1-.06.23.21.21,0,0,1,0,.06c-.61.94-14.45,21.5-33.49,21.5a26.89,26.89,0,0,1-3.86-.28c-1.69.68-17.8,7.76-13.81,28.64l.14.72a.51.51,0,0,1-.39.6Z"/><path class="cls-7" d="M220.57,99.31h-.07a.49.49,0,0,1-.43-.46c-.72-10.34-12.6-16.28-12.72-16.33a.51.51,0,0,1-.23-.67.5.5,0,0,1,.67-.23c.48.23,11.08,5.53,13,15.2,1.51-3.59,5.38-11.25,11.18-12.25a.5.5,0,1,1,.17,1C225.28,86.73,221.08,98.85,221,99A.51.51,0,0,1,220.57,99.31Z"/><path class="cls-7" d="M184.32,131.06h0c-10-.31-16.82-3.24-20.19-8.72-5.57-9.08.25-21.71.5-22.25a.51.51,0,0,1,.67-.24.5.5,0,0,1,.24.67c-.06.12-5.85,12.68-.55,21.3,3.17,5.17,9.69,7.94,19.36,8.24a.5.5,0,0,1,0,1Z"/><path class="cls-7" d="M242.7,133.7c-8.79,0-17.72-3.21-18.31-3.42a.51.51,0,0,1-.29-.65.5.5,0,0,1,.64-.29c.22.08,22.08,7.93,30.74-.8,4.78-4.82,4.73-13.84-.13-26.81a.5.5,0,1,1,.93-.35c5,13.37,5,22.75-.1,27.87C252.84,132.62,247.79,133.7,242.7,133.7Z"/><path class="cls-7" d="M262.07,66.56a.51.51,0,0,1-.45-.27.52.52,0,0,1,.21-.68c9.39-4.94,13.23-10.52,14.81-14.33a14.69,14.69,0,0,0,1.21-6.94c-13.31-9.47-31.58,2-31.76,2.14a.5.5,0,0,1-.69-.15.49.49,0,0,1,.15-.69c.19-.13,19.19-12.08,33.06-2a.52.52,0,0,1,.2.32c.09.51,2.1,12.72-16.51,22.53A.46.46,0,0,1,262.07,66.56Z"/><path class="cls-7" d="M278.32,44.56a.51.51,0,0,1-.4-.2c-.12-.16-12.41-15.82-41.43-5.33a.5.5,0,0,1-.64-.3.49.49,0,0,1,.3-.64c15.51-5.61,26.24-3.79,32.51-1.28,6.83,2.74,9.93,6.77,10.06,6.95a.49.49,0,0,1-.1.69A.5.5,0,0,1,278.32,44.56Z"/><path class="cls-7" d="M95.82,70.81a.53.53,0,0,1-.27-.08.51.51,0,0,1-.16-.69c.07-.11,6.54-10.65,1.23-21.51-5.52-11.29-1.7-27.41-1.54-28.09a.52.52,0,0,1,.39-.38c26.07-5,40.64,21,40.79,21.26a.5.5,0,0,1-.88.48C135.24,41.54,121.12,16.4,96,21c-.5,2.32-3.41,17,1.54,27.1,5.55,11.36-1.21,22.37-1.28,22.48A.52.52,0,0,1,95.82,70.81Z"/><path class="cls-7" d="M160.33,29.73c-16.07,0-28.18-8.92-28.31-9-16.77-9.23-36,.2-36.23.29a.49.49,0,0,1-.67-.22.5.5,0,0,1,.22-.67c.2-.1,19.94-9.76,37.22-.24.2.15,15.12,11.13,33.69,8.44a.5.5,0,0,1,.14,1A42.15,42.15,0,0,1,160.33,29.73Z"/><path class="cls-7" d="M191.71,184.89a48.81,48.81,0,0,1-9.24-1.09c-9.86-2-15.87-5.09-17.89-9.26a6.08,6.08,0,0,1-.21-5.21c0-.15,1.86-5.64,10.82-15.61,8.72-9.68,6.41-21.69,6.39-21.81a.5.5,0,0,1,1-.2c0,.12,2.44,12.61-6.62,22.68-8.8,9.77-10.63,15.26-10.65,15.32a5.14,5.14,0,0,0,.21,4.43c1.29,2.65,5.32,6.31,17.16,8.68,8.5,1.69,13.92,1.36,16.11-1,1.8-1.93,1-4.84.52-6.58-.09-.34-.17-.62-.21-.85-.18-.87.11-4,.69-10.05,1-10.54,2.54-26.48,1.55-36.24a.5.5,0,1,1,1-.1c1,9.85-.53,25.85-1.54,36.44-.47,4.83-.87,9-.71,9.76,0,.2.11.47.2.77.49,1.82,1.42,5.2-.76,7.53C198,184.1,195.45,184.89,191.71,184.89Z"/><path class="cls-7" d="M200.07,176.06a.51.51,0,0,1-.44-.26c0-.05-2-3.33-10.48-4.83-8.67-1.54-13.55,0-13.6,0s-4.64,1.87-7.61,1.09a3.72,3.72,0,0,1-2.7-4.32.5.5,0,0,1,.57-.41.51.51,0,0,1,.42.58,2.76,2.76,0,0,0,2,3.18c2.64.7,7-1,7-1.06.24-.08,5.18-1.62,14.11,0s11.1,5.18,11.19,5.34a.49.49,0,0,1-.2.67A.44.44,0,0,1,200.07,176.06Z"/><path class="cls-7" d="M183.48,183.63a.48.48,0,0,1-.49-.42,3.37,3.37,0,0,1,.33-1.4c-.77.82-1.33,1.37-1.4,1.44a.5.5,0,0,1-.7-.72,48.68,48.68,0,0,0,3.84-4.28c.87-1.59,1.79-3.11,2.25-3.87a.5.5,0,0,1,.62-.2.51.51,0,0,1,.29.59,13.2,13.2,0,0,1-2.29,4,17,17,0,0,0-2,4.31.51.51,0,0,1-.44.56Z"/><path class="cls-7" d="M182.2,191.68a16.93,16.93,0,0,1-2.71-.21c-4.27-.72-6.08-7.09-6.15-7.37a.49.49,0,0,1,.34-.61.5.5,0,0,1,.62.35c0,.06,1.71,6,5.35,6.64a19.51,19.51,0,0,0,7.69-.49c.77-.18,7.33-1.69,9.13-.15a6.12,6.12,0,0,0,5.51.21,1.42,1.42,0,0,0,.69-1.71.48.48,0,0,1,.36-.6.51.51,0,0,1,.61.36,2.43,2.43,0,0,1-1.13,2.8c-1.86,1.15-5.4.8-6.68-.3-1.07-.91-5.62-.26-8.23.36A21,21,0,0,1,182.2,191.68Z"/><path class="cls-7" d="M180.9,190.89a.48.48,0,0,1-.26-.07.51.51,0,0,1-.17-.69,12.19,12.19,0,0,0-.1-4.1,19.73,19.73,0,0,0-2.81,3.39.5.5,0,1,1-.82-.56c.37-.55,2.29-3.3,3.35-3.84a.77.77,0,0,1,.93.18c.8.86.63,4.9.31,5.45A.51.51,0,0,1,180.9,190.89Z"/><path class="cls-7" d="M196.15,190.72a.5.5,0,0,1-.35-.85c5.12-5.13,5.71-5,6-4.88s.91.26,1.36,4.43a.5.5,0,0,1-.45.55.51.51,0,0,1-.55-.44,16.66,16.66,0,0,0-.66-3.47,49.74,49.74,0,0,0-5,4.52A.5.5,0,0,1,196.15,190.72Z"/><path class="cls-7" d="M121.82,138.31a.52.52,0,0,1-.5-.42.51.51,0,0,1,.41-.58c.12,0,11.83-2.1,26.56-11.92,14.9-9.93,33-14.28,33.16-14.32a.5.5,0,0,1,.23,1c-.18,0-18.09,4.35-32.84,14.18-14.91,9.95-26.82,12.06-26.94,12.08Z"/><path class="cls-7" d="M156.07,153.31a.39.39,0,0,1-.18,0,.5.5,0,0,1-.29-.64,98,98,0,0,1,16.56-28.46,51.74,51.74,0,0,1,8.87-8.53.52.52,0,0,1,.7.13.51.51,0,0,1-.13.7c-.15.1-15,10.49-25.07,36.52A.5.5,0,0,1,156.07,153.31Z"/><path class="cls-7" d="M266.32,200.06a.5.5,0,0,1-.5-.48c-3-52.65-25.13-75-25.35-75.17a.49.49,0,0,1,0-.7.5.5,0,0,1,.71,0c.22.22,22.67,22.75,25.65,75.83a.52.52,0,0,1-.48.53Z"/><path class="cls-7" d="M317.07,177.06a.5.5,0,0,1-.43-.25c-17.48-29.29-70.76-56.78-71.3-57.06a.5.5,0,1,1,.45-.89c.54.28,54.09,27.91,71.71,57.44a.51.51,0,0,1-.18.69A.59.59,0,0,1,317.07,177.06Z"/><path class="cls-7" d="M322.85,137.48a213.9,213.9,0,0,1-23.59-1.18c-21.86-2.48-50.18-20.64-50.46-20.82a.5.5,0,1,1,.54-.84c.28.18,28.4,18.21,50,20.67s47.15.27,47.4.25a.49.49,0,0,1,.54.45.48.48,0,0,1-.45.54C346.7,136.57,336.15,137.48,322.85,137.48Z"/><path class="cls-7" d="M129.57,120.81a.5.5,0,0,1-.44-.25.51.51,0,0,1,.19-.69c23.81-13.64,58.34-17.77,58.69-17.81a.5.5,0,0,1,.11,1c-.34,0-34.67,4.15-58.3,17.69A.59.59,0,0,1,129.57,120.81Z"/><path class="cls-7" d="M60.67,284.83c-5.55,0-15.4-1.5-32.52-7.55a15,15,0,0,1-10-10.12c-3-10,1.58-26,13.68-47.66A294,294,0,0,1,50.92,190c.18-.2,14-14.33,17.44-22.4,3.5-8.25,21.11-25.2,21.86-25.92a.5.5,0,1,1,.69.73c-.18.17-18.21,17.52-21.63,25.58-3.5,8.24-17,22.07-17.61,22.66-.35.47-39.54,52.94-32.52,76.21a14,14,0,0,0,9.33,9.46c32.22,11.39,38.19,6.42,38.24,6.36.27-.31,30.42-34.11,63.53-31.51,16.77,1.31,31.5,11.61,43.77,30.62,2.25-4.3,13.82-24.73,30.64-26.68,10.07-1.16,20.16,4.39,30,16.51a69.37,69.37,0,0,0,19.27-23.1c7.55-14.39,13.88-38.65,1.17-72.55a.5.5,0,1,1,.93-.35c12.85,34.27,6.42,58.83-1.24,73.41-8.31,15.8-19.83,23.6-19.95,23.68a.49.49,0,0,1-.66-.1c-9.71-12.08-19.61-17.63-29.41-16.5-18.17,2.1-30.13,26.65-30.25,26.9a.5.5,0,0,1-.88.05c-12.18-19.19-26.81-29.59-43.47-30.89-32.62-2.56-62.43,30.87-62.73,31.21C67.32,283.51,65.88,284.83,60.67,284.83Z"/><path class="cls-7" d="M133.52,309a23.41,23.41,0,0,1-5.57-.75c-24.32-6-26.86-34.16-26.88-34.44a.5.5,0,1,1,1-.08c0,.27,2.51,27.71,26.13,33.55,6.29,1.56,10.81.58,13.41-2.89,5.68-7.59.78-24.17-.22-25.87a.52.52,0,0,1,.18-.69.51.51,0,0,1,.69.18c1.07,1.85,6.22,18.88.15,27C140.4,307.7,137.42,309,133.52,309Z"/><path class="cls-7" d="M105.07,303.21c-6.53,0-14-2.48-22.17-7.38a96.48,96.48,0,0,1-16.18-12.42.5.5,0,0,1,0-.71.51.51,0,0,1,.71,0c.27.27,27.23,26.65,46.43,17.65a.51.51,0,0,1,.67.24.5.5,0,0,1-.24.67A21.57,21.57,0,0,1,105.07,303.21Z"/><path class="cls-7" d="M195.18,311.7c-3.21,0-6.17-1.25-9.22-4.29a4.94,4.94,0,0,1-1.58-4.59c1.27-6.7,16.11-13.2,16.74-13.47a.5.5,0,0,1,.66.26.52.52,0,0,1-.26.66c-.15.06-15,6.55-16.16,12.73a4,4,0,0,0,1.31,3.7c7.3,7.31,14,3.61,26.16-3.08a.49.49,0,0,1,.67.19.49.49,0,0,1-.19.68C205.87,308.6,200.23,311.7,195.18,311.7Z"/><path class="cls-7" d="M212.75,322.17c-.73,0-1.49,0-2.3-.06s-1.84-.05-2.88-.05a6.86,6.86,0,0,1-5.33-2.21c-3.08-3.44-2.45-9.59-2.42-9.85a.5.5,0,0,1,1,.11c0,.06-.6,6,2.18,9.07a5.86,5.86,0,0,0,4.58,1.88c1.05,0,2,0,2.91.06,6.24.19,9.37.29,21.49-11.18a.5.5,0,0,1,.69.73C221.78,321,217.92,322.16,212.75,322.17Z"/><path class="cls-7" d="M154.13,313.58a10.35,10.35,0,0,1-3.08-.46c-6.18-1.93-9.08-9.08-9.2-9.38a.51.51,0,0,1,.28-.65.5.5,0,0,1,.65.28c0,.07,2.85,7,8.57,8.79,3.18,1,6.69.23,10.44-2.27,13.1-8.74,11.79-26.86,11.78-27a.5.5,0,0,1,.42-.54.49.49,0,0,1,.56.38c0,.17,4,17,10,19.66a.5.5,0,0,1-.4.91c-4.65-2-8-11.46-9.58-16.75-.34,6-2.33,17.64-12.2,24.21A14.88,14.88,0,0,1,154.13,313.58Z"/><path class="cls-7" d="M234.09,333.39a11,11,0,0,1-1.66-.15c-4.41-.75-11.06-4.13-15.29-11.18a.49.49,0,0,1,.17-.68.5.5,0,0,1,.69.17c4.05,6.76,10.4,10,14.6,10.7a4.3,4.3,0,0,0,2.65-.08l.56-.44c2.5-1.9,10.09-7.7,13-20.54,3.16-13.86-14.49-38.34-14.67-38.59A.5.5,0,1,1,235,272a120.75,120.75,0,0,1,8.63,14.22c5.49,10.69,7.58,19.16,6.2,25.19-3,13.19-10.81,19.15-13.38,21.1l-.53.42A2.92,2.92,0,0,1,234.09,333.39Z"/>
    </g>
  </g>
</svg>
